<?xml version="1.0" ?><!DOCTYPE svg  PUBLIC '-//W3C//DTD SVG 1.1//EN'  'http://www.w3.org/Graphics/SVG/1.1/DTD/svg11.dtd'><svg enable-background="new 0 0 512 512" height="512px" id="Layer_1" version="1.1" viewBox="0 0 512 512" width="512px" xml:space="preserve" xmlns="http://www.w3.org/2000/svg" xmlns:xlink="http://www.w3.org/1999/xlink"><path d="M319.967,503.497v-67.34C394.335,409.732,447.9,339.457,447.9,256c0-83.426-53.564-153.732-127.934-180.156V8.503  C430.254,36.988,511.867,136.812,511.867,256C511.867,375.188,430.254,475.043,319.967,503.497z M256,511.868L128.066,383.936  h-95.95c-17.679,0-31.983-14.307-31.983-31.983V160.05c0-17.679,14.306-31.983,31.983-31.983h95.95L256,0.133  c0,0,31.982-3.998,31.982,31.983c0,72.899,0,382.053,0,447.769C287.983,515.866,256,511.868,256,511.868z M224.017,128.066  l-63.967,63.967H64.099v127.934h95.951l63.967,63.969V128.066L224.017,128.066z M415.916,256  c0,59.532-40.854,109.132-95.949,123.404v-68.309c19.053-11.087,31.982-31.482,31.982-55.096c0-23.612-12.931-44.008-31.982-55.097  v-68.308C375.063,146.869,415.916,196.469,415.916,256z"/></svg>