<?xml version="1.0"?>
<svg xmlns="http://www.w3.org/2000/svg" id="Icons" viewBox="0 0 64 64" width="512" height="512">
    <path
        d="M58.707,41.293A12.573,12.573,0,0,1,55,32.343,11.355,11.355,0,0,0,43.657,21H38.483a1,1,0,0,0-.707,1.707l3.958,3.959a1,1,0,0,1,0,1.414l-8.441,8.441a1,1,0,0,0-.293.707V40.5A2.5,2.5,0,0,0,35.5,43a.5.5,0,0,1,.5.5v6a3.5,3.5,0,0,0,7,0V48a1,1,0,0,1,2,0v6.5a3.5,3.5,0,0,0,7,0V51a1,1,0,0,1,2,0v7.5a4.5,4.5,0,0,0,9,0V51.657A14.558,14.558,0,0,0,58.707,41.293ZM46,39a2,2,0,0,1-4,0V36a2,2,0,0,1,4,0Z"
        style="fill:#c4a2fc"/>
    <path
        d="M42,60.5a2.5,2.5,0,1,1-4.989-.291,6.193,6.193,0,0,1,1.766-3.518.991.991,0,0,1,1.449,0A5.962,5.962,0,0,1,42,60.5Z"
        style="fill:#c4a2fc"/>
    <path
        d="M42.318,25.251,28.17,11.1V7a6,6,0,0,0-12,0v7.358L1.877,28.651a3.005,3.005,0,0,0,0,4.243l16.4,16.4a3.005,3.005,0,0,0,4.243,0l19.8-19.8A3,3,0,0,0,42.318,25.251ZM18.17,7a4,4,0,0,1,8,0V9.1l-.251-.251a3.071,3.071,0,0,0-4.243,0L18.17,12.358Zm.886,7.3,2.7,2.7-11.6,11.605L7.377,25.98ZM40.9,28.08l-19.8,19.8a1,1,0,0,1-1.414,0l-16.4-16.4a1,1,0,0,1,0-1.414L5.962,27.4l3.521,3.332a1,1,0,0,0,1.394-.02l13-13a1,1,0,0,0,0-1.414l-3.406-3.407,2.62-2.62a1.023,1.023,0,0,1,1.414,0l1.665,1.666v9.252a3,3,0,1,0,2,0V13.932L40.9,26.666A1,1,0,0,1,40.9,28.08ZM27.17,23a1,1,0,1,1-1,1A1,1,0,0,1,27.17,23Z"
        style="fill:#151a6a"/>
</svg>
