<svg xmlns="http://www.w3.org/2000/svg" viewBox="0 0 24 24"><g data-name="Layer 2"><path d="M3.49 9.1A8.94 8.94 0 0 0 6.37 19l-1.26 2.55 1.79.89 1.18-2.36a8.89 8.89 0 0 0 7.85 0l1.18 2.36 1.79-.89L17.63 19a8.94 8.94 0 0 0 2.88-9.9 4 4 0 1 0-5.61-5.61 8.85 8.85 0 0 0-5.8 0A4 4 0 1 0 3.49 9.1ZM18 4a2 2 0 0 1 2 2 2 2 0 0 1-.41 1.18 9.06 9.06 0 0 0-2.78-2.78A2 2 0 0 1 18 4Zm1 8a7 7 0 1 1-7-7 7 7 0 0 1 7 7ZM6 4a2 2 0 0 1 1.18.41 9.06 9.06 0 0 0-2.77 2.77A2 2 0 0 1 4 6a2 2 0 0 1 2-2Z"/><path d="M15.71 14.29 13 11.59V7h-2v5.41l3.29 3.3 1.42-1.42z"/></g></svg>