<svg id="Layer_1" data-name="Layer 1" xmlns="http://www.w3.org/2000/svg" viewBox="0 0 403 396"><title>Artboard 1</title><polygon points="71.783 244.815 255.309 57.645 341.029 146.358 155.297 333.846 71.783 244.815" style="fill:#fef0a5"/><path d="M284.27347,25.8799a61.20925,61.20925,0,0,1,10.56166-8.36962c8.99236-5.70429,17.38689-3.48734,23.06627,3.53716q15.65568,19.31739,32.00881,37.98711c10.31257,11.80714,17.86017,19.15547,28.3222,30.863,3.313,3.66171,10.26274,8.3198,8.64362,14.07392a12.67748,12.67748,0,0,1-3.6368,5.82884c-17.26234,15.6183-29.9164,27.97345-41.92282,39.681q-15.39413-15.24467-30.19041-31.08716c-9.59019-10.1382-19.006-20.45076-28.3471-30.78824-8.27-9.11691-16.44033-18.28363-24.63558-27.42545l-3.61189-3.56207C264.57,46.52994,274.23491,35.96828,284.27347,25.8799Z" style="fill:#eab0e4"/><path d="M100.34113,274.627c9.49055,10.03856,18.58255,20.675,27.45036,31.33625,8.07071,9.66491,16.01686,19.35474,23.9132,28.5962-1.27039,1.07111-2.5906,2.04258-3.93572,3.039-1.79349,1.2953-4.4339,1.44476-6.72558,1.99277-1.59422.39855-3.313.37364-4.83246.89675-10.61148,3.63679-21.37242,6.97468-31.7099,11.1844-9.86419,3.98553-80.95613,27.15144-80.95613,27.15144s31.43589-96.99791,34.25067-107.3852c1.096-3.93571,1.2953-8.0707,2.24186-12.05624,1.32021-5.75411,5.20611-10.23783,9.24146-14.47246l5.60465,5.505A290.32762,290.32762,0,0,1,100.34113,274.627Z" style="fill:#fff"/><path d="M318.56671,134.59091c-3.59327-3.97169-9.56886-13.61108-13.50959-14.2802a11.094,11.094,0,0,1-1.16106-.28037c-58.94065,54.0229-128.7901,112.73649-184.00675,171.03037,6.858,7.0455,13.33415,14.43157,20.08894,21.57167,4.55653,4.818,9.18357,9.38309,13.59388,14.19591.559.47646,1.11118.95809,1.68053,1.42251.30618-.33369.61236-.66739.95809-.99249,9.20765-8.65206,18.71976-16.9687,28.30926-25.19933,7.5082-7.58388,15.04564-15.13853,22.74993-22.528,12.47926-11.98043,22.39386-26.32943,35.61964-37.713,13.974-12.03032,38.26171-37.86265,52.35958-50.16818,17.27831-15.025,29.878-27.1568,42.83371-39.73754C331.58264,146.21012,324.43222,141.07909,318.56671,134.59091Z" style="fill:#f9c095"/><path d="M155.66016,322.32513c.01452-.01269.0299-.02545.04388-.03814l.01379-.01325c-.39361.2688-.61328.42737-.71069.50458C155.22375,322.62573,155.443,322.47681,155.66016,322.32513Z"/><path d="M306.53125,23.1225l-.04926-.00092a1.1736,1.1736,0,0,0,.5517.12616A3.03961,3.03961,0,0,1,306.53125,23.1225Z"/><path d="M308.42566,23.57532c-.03418-.0116-.06873-.02228-.10291-.03376a1.15964,1.15964,0,0,0,.35706.17914C308.57715,23.6637,308.49207,23.61505,308.42566,23.57532Z"/><path d="M379.587,102.67865a4.77577,4.77577,0,0,1-.42151-.62756l-.04651-.0517C379.30811,102.47327,379.513,102.67865,379.587,102.67865Z"/><path d="M344.08277,140.75358c-21.67495-21.42584-42.33934-43.81729-62.701-66.486q-8.83462-9.83562-17.63729-19.6999c-2.77245-3.09964-8.42365-3.03456-11.20931,0a8.11028,8.11028,0,0,0,0,11.20931c20.31263,22.70978,40.581,45.46981,61.75467,67.3865q9.1837,9.506,18.58364,18.79942c2.95223,2.9183,8.30207,3.167,11.20931,0a8.06529,8.06529,0,0,0,0-11.20931Z"/><path d="M392.72754,93.7934a60.44055,60.44055,0,0,0-6.67438-7.25892c-2.54712-2.50781-4.84924-5.2868-7.27453-7.913-10.20484-11.05011-20.45411-21.99945-30.26288-33.40979q-8.09382-9.41538-16.01422-18.978-3.84422-4.64565-7.64142-9.32946a26.102,26.102,0,0,0-8.34461-6.99817c-7.69854-3.84094-16.23608-3.21436-23.66943.99512-7.17865,4.0653-13.00647,9.9259-18.69391,15.79241C262.74005,38.46509,251.52441,50.402,239.78064,61.84851c-11.57074,11.27789-23.29388,22.39685-34.90033,33.6366-11.44812,11.08648-21.49017,23.50543-32.21716,35.27331-5.54151,6.07923-11.24378,11.993-16.9383,17.92719-5.49536,5.72674-10.64721,11.76843-15.9533,17.66778-10.97858,12.20612-22.92072,23.5268-34.59626,35.05573-5.95532,5.88061-11.91583,11.76105-18.01751,17.49042-5.57734,5.237-11.6457,9.94427-16.99933,15.42022-6.98889,7.1485-11.17865,16.86322-15.11023,25.91639-4.44422,10.23352-7.40308,21.03192-10.877,31.62432Q36.20242,316.15838,28.0625,340.3999q-5.76763,17.26026-11.56537,34.51044-.30414.90481-.60846,1.80957c-1.91589,5.69488,4.1637,11.47681,9.75012,9.75012q17.61484-5.44455,35.19941-10.98669c15.14465-4.769,30.49755-9.22235,45.37909-14.7779,6.22656-2.32446,12.40179-4.72827,18.70037-6.86261,6.13965-2.08044,12.48865-3.80108,18.358-6.58355,4.1651-1.97455,8.26953-4.09284,12.30529-6.31922,4.46033-2.46057,8.91791-5.0393,12.55835-8.64825,12.56739-12.45874,24.867-25.18482,37.47473-37.603,5.88868-5.80017,11.88294-11.45605,17.412-17.60809,5.42011-6.03089,10.60456-12.273,16.16437-18.17816,4.664-4.95362,9.77356-9.35169,14.77454-13.9455,4.59478-4.22064,9.06317-8.57831,13.511-12.9527,9.45-9.29406,18.73175-18.77111,28.41815-27.82147,1.90943-1.784,3.83918-3.54626,5.80762-5.26514,19.36408-16.87738,37.66907-34.8366,56.128-52.68286,10.39984-10.05468,20.99774-19.88067,31.6355-29.68152C395.90582,110.61951,398.11932,101.15228,392.72754,93.7934ZM310.36865,24.6322c-.21966-.19732-.3294-.30951,0,0ZM135.16376,333.62378c-.177.08368-.35547.16412-.53357.24536-.993.31268-1.97437.67639-2.9596,1.00861-8.29925,2.79846-16.64184,5.48315-24.81653,8.6347-1.31042.50519-2.62744.99255-3.944,1.481L58.56451,298.9129c2.62629-7.84015,5.23572-15.69275,7.55011-23.62115a65.571,65.571,0,0,1,2.34949-6.42432l.03833-.08948q.316-.73369.63794-1.46484.772-1.75414,1.575-3.49451.78205-1.69547,1.59363-3.37719c9.36591,9.24658,18.72754,18.50433,27.8219,28.01593,7.86139,8.222,15.39832,16.7442,22.97437,25.22754q8.03064,8.99239,16.11145,17.93969C137.87067,332.30109,136.52551,332.9798,135.16376,333.62378ZM379.94482,103.31232c-.006.0205-.00689.0285-.01226.04748-.1662.29279-.418.66315-.42615.6781a1.77834,1.77834,0,0,0-.14264.34339c-.41425.45337-1.04388.9024-1.376,1.20593-.87768.802-1.76,1.599-2.63836,2.40027q-8.19324,7.475-16.251,15.09662c-17.90546,16.93121-35.23029,34.46954-53.42859,51.09143q-7.50741,6.85711-15.17743,13.5329c-9.39929,8.20751-18.149,17.16558-27.00433,25.94714-8.76612,8.69311-17.595,17.26636-26.80292,25.48968-11.97565,10.695-21.39172,23.833-32.7887,35.09394q-18.68691,18.46389-37.20794,37.08117-4.61289,4.64685-9.25592,9.26368c-.56787.56359-1.12281,1.15124-1.71473,1.68969.16358-.11169.34955-.23761.57807-.39-.21472.14319-.42426.29364-.63574.4414-.37445.32782-.90223.65064-.653.45319-.42114.29663-.84381.59131-1.27893.86932-.08423.05384-.17157.10291-.256.15644-10.15985-11.2898-20.2514-22.64075-30.42609-33.91712-7.40814-8.21026-15.0498-16.18707-22.8468-24.02838q-9.7435-9.79879-19.59155-19.49316c4.74609-4.89649,9.98523-9.22962,15.062-13.78174,11.99261-10.75324,23.23437-22.41821,34.68744-33.73865,5.71619-5.65,11.42706-11.31976,16.90149-17.20618,5.327-5.7279,10.3919-11.69213,15.67193-17.46264,5.35987-5.85785,11.00116-11.45294,16.4032-17.273q8.16276-8.79438,16.07013-17.82092c5.16809-5.86261,10.19257-11.85663,15.67688-17.43024,5.34131-5.42829,10.94971-10.58295,16.44031-15.85773,11.627-11.1698,23.2995-22.32525,34.63171-33.79492,5.61042-5.67853,11.10309-11.4715,16.61872-17.2417,5.37042-5.61835,10.63385-11.39355,16.54547-16.44672.02746-.02349.04284-.03741.065-.05664.03906-.028.06964-.04956.11444-.08178.34833-.25074.69116-.50861,1.04035-.7583q1.04453-.74689,2.11669-1.45417c.719-.47571,1.44361-.94488,2.19355-1.37079.36627-.208.74444-.39123,1.11377-.59344.05731-.03137.1-.05566.14465-.08093.77447-.25067,1.53015-.52411,2.32684-.70612.17163-.03924.399-.06286.61463-.09595.47986.00245.95685.0011,1.435.00873a.28341.28341,0,0,1-.08667-.07879.31048.31048,0,0,0,.13593.07971c.159.00287.31732.00158.47717.009.70191.03253.41339.128.02527.11627.34369.06287.715.10956.817.13922.15936.04633.31524.10205.472.1546-.0216-.02087-.03643-.04125-.03381-.06a.56951.56951,0,0,0,.13672.09375c.1236.04193.24817.08056.37237.12195.74628.24835.28144.16723-.11822.02343.48529.26941,1.26508.67719,1.38165.75171.16773.10724.42383.333.639.47321.60883.57416,1.21686,1.13428,1.7774,1.76184,2.605,2.91626,4.971,6.07721,7.459,9.09473,10.1499,12.30981,20.441,24.54931,31.17651,36.35467,4.70069,5.16919,9.52442,10.22394,14.28675,15.33588q3.86783,4.15182,7.66253,8.36987c1.79529,1.9939,3.83747,3.73529,5.66272,5.69922.1333.14343.26355.2904.39368.43756-.02673-.067-.0542-.12689-.07953-.205a1.64293,1.64293,0,0,0,.126.25672c.06933.07788.13727.15741.209.23242.24384.25494.27619.39514.21247.39514.13964.18048.271.35736.38208.52936C379.94708,103.29553,379.936,103.34259,379.94482,103.31232Zm.11011-.66083c.00507.057.00037.11413.00336.17114A.46413.46413,0,0,1,380.05493,102.65149Z"/></svg>