<svg xmlns="http://www.w3.org/2000/svg" data-name="Layer 1" viewBox="0 0 403 396"><path d="m71.783 244.815 183.526-187.17 85.72 88.713-185.732 187.488-83.514-89.031z" style="fill:#fef0a5"/><path d="M284.273 25.88a61.21 61.21 0 0 1 10.562-8.37c8.992-5.704 17.387-3.487 23.066 3.537q15.656 19.318 32.01 37.988c10.312 11.807 17.86 19.155 28.321 30.863 3.313 3.661 10.263 8.32 8.644 14.073a12.677 12.677 0 0 1-3.637 5.83c-17.262 15.618-29.916 27.973-41.923 39.68q-15.394-15.244-30.19-31.087c-9.59-10.138-19.006-20.45-28.347-30.788-8.27-9.117-16.44-18.284-24.636-27.426l-3.612-3.562c10.039-10.088 19.704-20.65 29.742-30.738Z" style="fill:#eab0e4"/><path d="M100.341 274.627c9.49 10.039 18.583 20.675 27.45 31.336 8.071 9.665 16.017 19.355 23.914 28.596-1.27 1.072-2.59 2.043-3.936 3.04-1.794 1.295-4.434 1.444-6.726 1.992-1.594.399-3.313.374-4.832.897-10.612 3.637-21.372 6.975-31.71 11.184-9.864 3.986-80.956 27.152-80.956 27.152s31.436-96.998 34.25-107.385c1.097-3.936 1.296-8.071 2.242-12.057 1.32-5.754 5.207-10.237 9.242-14.472l5.605 5.505a290.328 290.328 0 0 1 25.457 24.212Z" style="fill:#fff"/><path d="M318.567 134.59c-3.594-3.97-9.57-13.61-13.51-14.28a11.094 11.094 0 0 1-1.16-.28c-58.942 54.023-128.791 112.737-184.008 171.03 6.858 7.046 13.334 14.432 20.09 21.572 4.556 4.818 9.183 9.383 13.593 14.196.56.477 1.111.958 1.68 1.423.307-.334.613-.668.959-.993 9.207-8.652 18.72-16.968 28.309-25.199 7.508-7.584 15.046-15.139 22.75-22.528 12.48-11.98 22.394-26.33 35.62-37.713 13.974-12.03 38.261-37.863 52.36-50.168 17.277-15.025 29.877-27.157 42.833-39.738-6.5-5.702-13.65-10.833-19.516-17.321Z" style="fill:#f9c095"/><path d="m155.66 322.325.044-.038.014-.013c-.394.269-.613.427-.71.504.216-.152.435-.301.652-.453ZM306.531 23.122h-.049a1.174 1.174 0 0 0 .552.126 3.04 3.04 0 0 1-.503-.126Zm1.895.453-.103-.033a1.16 1.16 0 0 0 .357.179 9.4 9.4 0 0 1-.254-.146Zm71.161 79.104a4.776 4.776 0 0 1-.422-.628l-.046-.052c.19.474.394.68.468.68Zm-35.504 38.075c-21.675-21.426-42.34-43.818-62.701-66.486q-8.835-9.836-17.638-19.7c-2.772-3.1-8.423-3.035-11.209 0a8.11 8.11 0 0 0 0 11.209c20.313 22.71 40.581 45.47 61.755 67.386q9.184 9.506 18.583 18.8c2.953 2.918 8.303 3.167 11.21 0a8.065 8.065 0 0 0 0-11.21Z"/><path d="M392.728 93.793a60.44 60.44 0 0 0-6.675-7.259c-2.547-2.507-4.85-5.286-7.274-7.913-10.205-11.05-20.454-21.999-30.263-33.41q-8.094-9.415-16.014-18.977-3.845-4.646-7.642-9.33a26.102 26.102 0 0 0-8.345-6.998c-7.698-3.84-16.236-3.214-23.669.995-7.179 4.065-13.006 9.926-18.694 15.793-11.412 11.771-22.628 23.708-34.371 35.155-11.571 11.277-23.294 22.396-34.9 33.636-11.449 11.087-21.49 23.506-32.218 35.273-5.541 6.08-11.244 11.993-16.938 17.928-5.496 5.726-10.647 11.768-15.953 17.667-10.979 12.207-22.921 23.527-34.597 35.056-5.955 5.88-11.916 11.761-18.017 17.49-5.578 5.238-11.646 9.945-17 15.42-6.988 7.15-11.178 16.864-15.11 25.917-4.444 10.234-7.403 21.032-10.877 31.624q-7.969 24.298-16.108 48.54-5.768 17.26-11.566 34.51l-.608 1.81c-1.916 5.695 4.163 11.477 9.75 9.75q17.615-5.445 35.2-10.987c15.144-4.769 30.497-9.222 45.378-14.778 6.227-2.324 12.402-4.728 18.7-6.862 6.14-2.08 12.49-3.801 18.359-6.584a225.357 225.357 0 0 0 12.305-6.319c4.46-2.46 8.918-5.04 12.558-8.648 12.568-12.459 24.867-25.185 37.475-37.603 5.889-5.8 11.883-11.456 17.412-17.608 5.42-6.031 10.605-12.273 16.164-18.178 4.664-4.954 9.774-9.352 14.775-13.946 4.595-4.22 9.063-8.578 13.51-12.953 9.45-9.294 18.733-18.77 28.42-27.821a231.551 231.551 0 0 1 5.807-5.265c19.364-16.878 37.669-34.837 56.128-52.683 10.4-10.055 20.997-19.88 31.635-29.682 6.44-5.933 8.654-15.4 3.263-22.76Zm-82.36-69.16c-.219-.198-.329-.31 0 0Zm-175.204 308.99c-.177.084-.356.165-.534.246-.993.313-1.974.677-2.96 1.009-8.299 2.798-16.641 5.483-24.816 8.634-1.31.506-2.627.993-3.944 1.481l-44.345-46.08c2.626-7.84 5.235-15.693 7.55-23.621a65.571 65.571 0 0 1 2.35-6.425l.037-.09q.316-.733.638-1.464.772-1.754 1.575-3.494.782-1.696 1.594-3.378c9.366 9.247 18.728 18.505 27.822 28.016 7.861 8.222 15.398 16.745 22.974 25.228q8.03 8.992 16.112 17.94c-1.346.676-2.691 1.355-4.053 1.999Zm244.78-230.31-.011.047c-.167.293-.418.663-.427.678a1.778 1.778 0 0 0-.142.343c-.414.454-1.044.903-1.376 1.206-.878.802-1.76 1.6-2.639 2.4q-8.193 7.475-16.25 15.097c-17.906 16.931-35.23 34.47-53.43 51.092q-7.507 6.857-15.177 13.532c-9.399 8.208-18.149 17.166-27.004 25.948-8.766 8.693-17.595 17.266-26.803 25.49-11.976 10.694-21.392 23.832-32.789 35.093q-18.686 18.464-37.207 37.081-4.613 4.647-9.256 9.264c-.568.564-1.123 1.151-1.715 1.69.163-.112.35-.238.578-.39-.215.143-.424.293-.636.441-.374.328-.902.65-.653.453-.421.297-.844.592-1.279.87-.084.053-.171.103-.256.156-10.16-11.29-20.251-22.64-30.426-33.917-7.408-8.21-15.05-16.187-22.847-24.028q-9.743-9.8-19.591-19.494c4.746-4.896 9.985-9.23 15.062-13.781 11.992-10.754 23.234-22.419 34.687-33.739 5.716-5.65 11.427-11.32 16.902-17.206 5.327-5.728 10.392-11.692 15.672-17.463 5.36-5.858 11-11.453 16.403-17.273q8.163-8.794 16.07-17.82c5.168-5.863 10.193-11.857 15.677-17.43 5.341-5.43 10.95-10.584 16.44-15.859 11.627-11.17 23.3-22.325 34.632-33.795 5.61-5.678 11.103-11.471 16.619-17.241 5.37-5.619 10.633-11.394 16.545-16.447l.065-.057.115-.081c.348-.251.69-.509 1.04-.759q1.044-.747 2.117-1.454a38.051 38.051 0 0 1 2.193-1.37c.366-.209.745-.392 1.114-.594l.145-.081c.774-.25 1.53-.524 2.326-.706.172-.04.4-.063.615-.096.48.002.957.001 1.435.009a.283.283 0 0 1-.087-.08.31.31 0 0 0 .136.08c.16.003.318.002.477.01.702.032.414.128.026.116.343.063.715.11.817.139.16.046.315.102.472.155-.022-.021-.037-.042-.034-.06a.57.57 0 0 0 .137.093c.123.042.248.08.372.122.746.249.281.168-.118.024.485.27 1.265.677 1.381.751.168.108.424.333.64.474.608.574 1.216 1.134 1.777 1.761 2.605 2.917 4.97 6.078 7.459 9.095 10.15 12.31 20.44 24.55 31.176 36.355 4.701 5.17 9.525 10.224 14.287 15.336q3.868 4.152 7.663 8.37c1.795 1.994 3.837 3.735 5.662 5.699.134.143.264.29.394.437-.027-.067-.054-.126-.08-.205a1.643 1.643 0 0 0 .126.257c.07.078.138.158.21.233.243.255.276.395.212.395.14.18.27.357.382.53-.022.087-.033.134-.024.103Zm.11-.662c.006.057.001.115.004.172a.464.464 0 0 1-.003-.172Z"/></svg>