<svg xmlns="http://www.w3.org/2000/svg" xml:space="preserve" style="enable-background:new 0 0 64 64" viewBox="0 0 64 64"><path d="M59.575 58.158c0 1.702-1.542 3.095-3.428 3.095H8.157c-1.885 0-3.428-1.393-3.428-3.095V5.554c0-1.702 1.543-3.094 3.428-3.094h47.99c1.886 0 3.428 1.392 3.428 3.094z" style="stroke-width:1.62842;fill:#b3b3b3"/><path d="M56.147 2.46H8.157c-1.885 0-3.428 1.315-3.428 2.923v8.768c0 1.607 0 0 0 0l26.566 2.923c.686 0 2.571.584 2.571 1.9v2.484c0 1.169 1.2 2.192 2.571 2.192 1.371 0 2.571-1.023 2.571-2.192 0-1.17 1.2-2.192 2.571-2.192 1.371 0 2.57 1.023 2.57 2.192v19.728c0 1.17 1.2 2.192 2.572 2.192 1.371 0 2.57-1.023 2.57-2.192V25.842c0-1.17 1.2-2.192 2.572-2.192 1.37 0 2.57 1.023 2.57 2.192v3.653c0 1.17 1.2 2.192 2.571 2.192 1.372 0 2.571-1.023 2.571-2.192V5.383c0-1.608-1.542-2.923-3.428-2.923z" style="stroke-width:1.58262;fill:#c75c5c"/><path d="M60.432 6.113c0 13.299-12.683 24.113-28.28 24.113-15.596 0-28.28-10.814-28.28-24.113" style="fill:none;stroke:#4f5d73;stroke-width:2;stroke-linecap:round;stroke-miterlimit:10"/></svg>