<?xml version="1.0" encoding="UTF-8" standalone="no"?>
<svg
   version="1.1"
   x="0px"
   y="0px"
   viewBox="0 0 64 64"
   style="enable-background:new 0 0 64 64;"
   xml:space="preserve"
   xmlns="http://www.w3.org/2000/svg"
   xmlns:svg="http://www.w3.org/2000/svg">
<path
   d="m 59.575359,58.158246 c 0,1.701889 -1.542545,3.094345 -3.427877,3.094345 H 8.1572059 c -1.8853322,0 -3.4278772,-1.392456 -3.4278772,-3.094345 V 5.5543863 c 0,-1.7018892 1.542545,-3.0943445 3.4278772,-3.0943445 H 56.147482 c 1.885332,0 3.427877,1.3924553 3.427877,3.0943445 z"
   id="path8"
   style="stroke-width:1.62842;fill:#b3b3b3" />
<path
   d="M 56.147482,2.4600418 H 8.1572059 c -1.8853322,0 -3.4278772,1.3152251 -3.4278772,2.9227219 V 14.15093 c 0,1.607497 0,0 0,0 l 26.5660453,2.922722 c 0.685576,0 2.570908,0.584545 2.570908,1.89977 0,0 0,1.899769 0,2.484313 0,1.169089 1.199758,2.192042 2.570908,2.192042 1.371151,0 2.570908,-1.022953 2.570908,-2.192042 0,-1.169089 1.199756,-2.192041 2.570908,-2.192041 1.37115,0 2.570907,1.022952 2.570907,2.192041 v 19.728374 c 0,1.169089 1.199757,2.192042 2.570908,2.192042 1.37115,0 2.570907,-1.022953 2.570907,-2.192042 V 25.841818 c 0,-1.169088 1.199758,-2.192041 2.570908,-2.192041 1.371151,0 2.570908,1.022953 2.570908,2.192041 v 3.653404 c 0,1.169088 1.199756,2.192041 2.570907,2.192041 1.371151,0 2.570908,-1.022953 2.570908,-2.192041 V 5.3827637 c 0,-1.6074968 -1.542545,-2.9227219 -3.427877,-2.9227219 z"
   id="path12"
   style="stroke-width:1.58262;fill:#C75C5C" />
<path
   d="m 60.432329,6.1134441 c 0,13.2983859 -12.683145,24.1124579 -28.279986,24.1124579 -15.596839,0 -28.2799836,-10.814072 -28.2799836,-24.1124579"
   id="path18"
   style="fill:none;stroke:#4F5D73;stroke-width:2;stroke-linecap:round;stroke-miterlimit:10" />
</svg>
