<svg id="Layer_1" data-name="Layer 1" xmlns="http://www.w3.org/2000/svg" viewBox="0 0 1133 208"><title>Artboard 1</title><path d="M149.48357,158.13876q-.0005-.53854.00838-1.0757c.39486-23.96822,14.90332-51.35507,40.65027-55.13865a34.51145,34.51145,0,0,1,26.08068,6.56431,4.115,4.115,0,0,1,1.84274,2.57629,4.374,4.374,0,0,1-.72545,2.40673l-4.42188,8.3183a6.85747,6.85747,0,0,1-1.81773,2.44779c-1.8354,1.34092-4.37035.572-6.603.14507-7.81556-1.49451-16.036,2.24219-21.25117,8.25207s-7.73505,13.97063-8.55661,21.88527c-.52287,5.03719-.37307,10.309,1.75473,14.90452,3.95869,8.54986,14.47667,12.91677,23.74305,11.2122,2.295-.42218,4.67023-1.15726,6.90821-.49632,2.45017.7236,4.13808,2.96733,5.268,5.25866a23.72089,23.72089,0,0,1,2.1665,6.87349,5.50033,5.50033,0,0,1-.34025,3.554c-.87414,1.53919-2.82808,2.02179-4.571,2.33087-8.78148,1.55725-17.79411,2.44722-26.61171,1.10953s-17.48648-5.07157-23.52942-11.6307C152.2764,179.8198,149.49349,168.79471,149.48357,158.13876Z" style="fill:#eab0e4"/><path d="M276.69092,186c-.57,2.44-1.54,5.21-3.92,6.01-2.09.69-4.43-.58-5.66-2.41a14.774,14.774,0,0,1-1.88-6.28,113.40184,113.40184,0,0,1-1.25-14.25,12.82611,12.82611,0,0,0-.36-3.56,3.38,3.38,0,0,0-6.36-.87,10.49014,10.49014,0,0,0-1.39,4.51,12.45513,12.45513,0,0,1-1.23,4.56,2.94019,2.94019,0,0,1-1.93,1.56c-1.45.22-2.58-1.21-3.29-2.5-2.24-4.11-2.64-7.91-2.97-13.44.21-14.77.48-29.55.9-44.32.17-5.99,1.6-8.28,7.25-9.92a60.73076,60.73076,0,0,1,17.73-2.39,2.92928,2.92928,0,0,1,1.82.44,3.06184,3.06184,0,0,1,.83,2.29q.435,6.06.86,12.12a.6602.6602,0,0,0,.01.14,45.90183,45.90183,0,0,1,32.56-14.5,29.11674,29.11674,0,0,1,12.22,2.14,17.19937,17.19937,0,0,1,8.9,8.37c2.08,4.6,1.55,9.91.98,14.93q-.795,6.975-1.59,13.96a1.16975,1.16975,0,0,1-1.77,1.22c-6.73-2.02-13.15-5.38-20.15-6-9.35-.84-18.45,3.32-26.29,8.49a10.18085,10.18085,0,0,0-3,2.65c-1.33,1.99-1.17,4.58-1,6.96a214.30836,214.30836,0,0,1-.01,30.09Z" style="fill:#8195d2"/><path d="M276.69092,186h.01q-.315,4.53-.82,9.03a4.78607,4.78607,0,0,1-1.23,3.24,4.73341,4.73341,0,0,1-2.71.82,205.06832,205.06832,0,0,1-22.17.8c-1.31-.02-2.86-.2-3.48-1.36a3.86228,3.86228,0,0,1-.29-1.82q.195-18.69.45-37.38c.33,5.53.73,9.33,2.97,13.44.71,1.29,1.84,2.72,3.29,2.5a2.94019,2.94019,0,0,0,1.93-1.56,12.45513,12.45513,0,0,0,1.23-4.56,10.49014,10.49014,0,0,1,1.39-4.51,3.38,3.38,0,0,1,6.36.87,12.82611,12.82611,0,0,1,.36,3.56,113.40184,113.40184,0,0,0,1.25,14.25,14.774,14.774,0,0,0,1.88,6.28c1.23,1.83,3.57,3.1,5.66,2.41C275.15092,191.21,276.12092,188.44,276.69092,186Z" style="fill:#badeb8"/><path d="M396.95092,159.03011c.24,3.48.01,6.99-.03,10.48-.04,4.06-.16,8.12-.15,12.19v.05l-1.07.01c-3.49-.19-6.97-.39-10.46-.56l.02-.44c-1.46-10.38-.78-20.94-.44-31.42q.75-22.695-.67-45.41l-.02-.44c3.36-.13,6.72-.34,10.07-.65l1.12-.47c.96,1.82.8,4.02.89,6.04.1,2.38-.23,4.78-.3,7.17-.08,2.71-.1,5.43-.12,8.14-.02,3.51-.08,7.01,0,10.52.08,3.26.42,6.52.46,9.78C396.30092,149.04011,396.61092,154.03011,396.95092,159.03011Z" style="fill:#fef0a5"/><path d="M396.97092,193.89011a16.63473,16.63473,0,0,1-.44,3.79,4.6199,4.6199,0,0,1-5.34,3.93c-4.67-.5-9.36-.89-14.05-1.2-4.44-.3-7.43-.26-11.88-.51-1.39-.08-3.72.39-4.55-1.1a3.58492,3.58492,0,0,1-.45-1.9c.33-6.59.39-11.6.45-16.37,4.22-.02,8.44.05,12.66.18,3.96.11,7.91.29,11.87.49,3.49.17,6.97.37,10.46.56l1.07-.01C396.78092,185.79011,396.96092,189.85011,396.97092,193.89011Z" style="fill:#eab0e4"/><path d="M395.11092,102.01011l.21.36-1.12.47c-3.35.31-6.71.52-10.07.65-3.79.15-7.57.17-11.36.07-3.4-.07-6.79-.24-10.19-.51l-.4-.02c.18-.3.4-.58.57-.87a12.99791,12.99791,0,0,0,.79-1.15c1.4-2.86,2.89-5.68,4.13-8.61.46-1.08,2.29-5.15,4.35-9.74l.35.16a75.5222,75.5222,0,0,0,6.97,6.05,59.82866,59.82866,0,0,1,5.9-5.8l.67-.29c3.2,7.49,6.49,15.07,7.23,16.36C393.71092,100.15011,394.50092,101.02011,395.11092,102.01011Z" style="fill:#fff"/><path d="M385.91092,82.78011l-.67.29a59.82866,59.82866,0,0,0-5.9,5.8,75.5222,75.5222,0,0,1-6.97-6.05l-.35-.16c3.28-7.24,7.15-15.75,7.15-15.75S382.49092,74.79011,385.91092,82.78011Z" style="fill:#8195d2"/><path d="M385.26092,180.76011l-.02.44c-3.96-.2-7.91-.38-11.87-.49l.03-.95c-.92-8.49-.15-17.06-.09-25.6.14-16.8-2.42-33.65-.55-50.35l.01-.25c3.79.1,7.57.08,11.36-.07l.02.44q1.41,22.68.67,45.41C384.48092,159.82011,383.80092,170.38011,385.26092,180.76011Z" style="fill:#fef0a5"/><path d="M373.40092,179.76011l-.03.95c-4.22-.13-8.44-.2-12.66-.18.08-5.6.15-10.85.64-17.88.37-5.29.05-15.35.44-20.57.37-4.95-.52-9.81-.42-14.73.13-6.22-.01-12.45.02-18.68a32.86235,32.86235,0,0,1,.41-4.75,2.40067,2.40067,0,0,1,.38-.89l.4.02c3.4.27,6.79.44,10.19.51l-.01.25c-1.87,16.7.69,33.55.55,50.35C373.25092,162.70011,372.48092,171.27011,373.40092,179.76011Z" style="fill:#fef0a5"/><path d="M1125.48092,158.27c.62,4.7.99,9.12-.75,13.53-2.68,6.8-6.13,13.93-11.61,18.77-7.62,6.74-20.17,9.49-30.31,8.76-10.14-.74-19.85-5.1-27.72-11.53-2.46-2.02-4.83-4.32-6.06-7.27a12.57816,12.57816,0,0,1-.87-2.97l.87-.14q5.67-3.315,11.18-6.88l.87-.82c2.81,2.53,2.35,2.45,5.97,5.46a27.58805,27.58805,0,0,0,37.88-2.42c3.1-3.33,5.36-8.46,2.98-12.33a11.76587,11.76587,0,0,0-4.2-3.65c-13.94-8.36-30.74-11.06-44.5-19.71-5.14-3.23-10-7.58-11.77-13.4-3.23-10.65,4.51-19.59,12.57-24.95,7.31-4.85,16.83-7.29,25.61-7.64a41.91783,41.91783,0,0,1,6.23.22c12.94,1.46,25.15,9.88,30.43,21.62l-.57.27a69.132,69.132,0,0,0-7.83,1.31c-1.65.4-3.26.93-4.92,1.3-1.63.37-3.31.59-4.91,1.09l-.1.06a22.162,22.162,0,0,0-28.44-8.41c-2.88,1.37-5.67,3.72-6.05,6.88a8.09871,8.09871,0,0,0,2.78,6.63,21.02387,21.02387,0,0,0,6.42,3.73c11.57,4.88,24.05,8.05,34.41,15.16C1119.10092,145.08,1124.52092,151.01,1125.48092,158.27Z" style="fill:#fef0a5"/><path d="M1124.21092,118.56c.28,1.17.41,2.6-.5,3.38a3.46629,3.46629,0,0,1-1.69.62q-5.565,1.005-11.12,2.01a4.88734,4.88734,0,0,1-2.15.07c-1.66-.45-2.33-2.37-2.95-3.98a20.38672,20.38672,0,0,0-1.85-3.71l.1-.06c1.6-.5,3.28-.72,4.91-1.09,1.66-.37,3.27-.9,4.92-1.3a69.132,69.132,0,0,1,7.83-1.31l.57-.27A30.50847,30.50847,0,0,1,1124.21092,118.56Z" style="fill:#eab0e4"/><path d="M1061.08092,169.72l-.87.82q-5.505,3.57-11.18,6.88l-.87.14c-.4-2.4.05-4.43-.02-7.58-.03-1.46-.05-2.79-.05-3.98h.15c1.55.67,2.84,1.16,4.43,1.72.38-1.26.7-2.54.98-3.83l.37-.41c2.58,2.28,5.15,4.56,5.63,4.98C1060.21092,168.94,1060.68092,169.36,1061.08092,169.72Z" style="fill:#fff"/><path d="M1048.22092,158.32s2.91,2.58,5.8,5.16l-.37.41c-.28,1.29-.6,2.57-.98,3.83-1.59-.56-2.88-1.05-4.43-1.72h-.15C1048.06092,160.94,1048.22092,158.32,1048.22092,158.32Z" style="fill:#8195d2"/><path d="M967.69092,185.62011c-.57,2.44-1.54,5.21-3.92,6.01-2.09.69-4.43-.58-5.65-2.41a14.64612,14.64612,0,0,1-1.89-6.28,113.40184,113.40184,0,0,1-1.25-14.25,12.113,12.113,0,0,0-.36-3.56,3.38,3.38,0,0,0-6.36-.87,10.62818,10.62818,0,0,0-1.39,4.51,12.26232,12.26232,0,0,1-1.23,4.56,2.91773,2.91773,0,0,1-1.93,1.56c-1.45.22-2.58-1.21-3.28-2.5-2.25-4.1-2.65-7.9-2.98-13.41v-.03q.315-22.155.91-44.32c.17-5.99,1.59-8.28,7.24-9.92a60.73076,60.73076,0,0,1,17.73-2.39,2.91312,2.91312,0,0,1,1.82.44,3.06184,3.06184,0,0,1,.83,2.29q.435,6.06.86,12.12c0,.05.01.09.01.14a45.90183,45.90183,0,0,1,32.56-14.5,29.08916,29.08916,0,0,1,12.22,2.14,17.19937,17.19937,0,0,1,8.9,8.37c2.08,4.6,1.55,9.91.98,14.93q-.795,6.975-1.59,13.96a1.16975,1.16975,0,0,1-1.77,1.22c-6.73-2.02-13.15-5.38-20.15-6-9.35-.84-18.45,3.32-26.29,8.49a10.18085,10.18085,0,0,0-3,2.65c-1.32,1.99-1.17,4.58-1,6.96a214.30836,214.30836,0,0,1-.01,30.09Z" style="fill:#8195d2"/><path d="M967.69092,185.62011h.01q-.315,4.53-.82,9.03a4.78607,4.78607,0,0,1-1.23,3.24,4.71059,4.71059,0,0,1-2.71.82,205.06832,205.06832,0,0,1-22.17.8c-1.31-.02-2.86-.2-3.48-1.36a3.737,3.737,0,0,1-.28-1.82q.195-18.675.44-37.35c.33,5.51.73,9.31,2.98,13.41.7,1.29,1.83,2.72,3.28,2.5a2.91773,2.91773,0,0,0,1.93-1.56,12.26232,12.26232,0,0,0,1.23-4.56,10.62818,10.62818,0,0,1,1.39-4.51,3.38,3.38,0,0,1,6.36.87,12.113,12.113,0,0,1,.36,3.56,113.40184,113.40184,0,0,0,1.25,14.25,14.64612,14.64612,0,0,0,1.89,6.28c1.22,1.83,3.56,3.1,5.65,2.41C966.15092,190.83011,967.12092,188.06011,967.69092,185.62011Z" style="fill:#badeb8"/><path d="M849.89092,117.00011c5.26,9.14,5.13,21.64-1.79,29.6-4.75,5.46-11.96,8.23-19.11,9.36-6.18.99-12.46.9-18.72,1.14-.98.04-1.96.09-2.94.14a13.71873,13.71873,0,0,0-5.01.99,5.038,5.038,0,0,0-3.03,3.87c-.17,2.01,1.29,3.81,2.88,5.06,3.63,2.87,8.23,4.15,12.56,5.82,4.33,1.66,8.74,4,10.95,8.08a11.91034,11.91034,0,0,1-3.89,15.14c-2.59,1.67-5.73,2.22-8.79,2.64-9.75,1.35-19.89,1.72-29.26-1.3-9.37-3.03-17.92-9.93-20.85-19.33-1.39-4.49-1.46-9.26-1.89-13.94-.63-6.89-2.05-13.79-1.33-20.67,1.49-14.09,11.71-29.79,23.59-37.27a54.40014,54.40014,0,0,1,41.38-6.93C834.88092,101.91011,844.64092,107.85011,849.89092,117.00011Zm-38.34,5.43a8.19577,8.19577,0,0,0-.17-2.16,8.06046,8.06046,0,0,0-.99-2.1,14.25692,14.25692,0,0,0-2.36-3.28,5.01876,5.01876,0,0,0-3.63-1.55l-.86-.16a11.394,11.394,0,0,0-6.79,2.52,5.27516,5.27516,0,0,0-2.17,3.9,12.34389,12.34389,0,0,0,1.66,7.84,7.11912,7.11912,0,0,0,1.82,2.15,6.33824,6.33824,0,0,0,4.64.95,18.83487,18.83487,0,0,0,4.59-1.5,7.77745,7.77745,0,0,0,2.91-1.79C811.34092,125.98011,811.51092,124.13011,811.55092,122.43011Zm-20.6,54.14a6.96344,6.96344,0,0,0-.15-1.88,7.04687,7.04687,0,0,0-.86-1.82,12.43223,12.43223,0,0,0-2.05-2.86,4.36793,4.36793,0,0,0-3.16-1.35l-.75-.13a9.932,9.932,0,0,0-5.91,2.18,5.56077,5.56077,0,0,0-1.19,1.28,5.24851,5.24851,0,0,0-.69,2.12,10.68072,10.68072,0,0,0,1.44,6.82,6.13184,6.13184,0,0,0,1.59,1.88,5.50164,5.50164,0,0,0,4.03.82,16.44258,16.44258,0,0,0,4-1.31,6.788,6.788,0,0,0,2.53-1.55A6.47579,6.47579,0,0,0,790.95092,176.57011Zm-.01-30.59a7.79153,7.79153,0,0,0-.16-2.16,8.06046,8.06046,0,0,0-.99-2.1,14.47521,14.47521,0,0,0-2.36-3.28,5.01876,5.01876,0,0,0-3.63-1.55l-.86-.16a11.394,11.394,0,0,0-6.79,2.52,6.17808,6.17808,0,0,0-1.37,1.47,6.06811,6.06811,0,0,0-.8,2.43,12.34389,12.34389,0,0,0,1.66,7.84,7.00092,7.00092,0,0,0,1.82,2.15,6.33824,6.33824,0,0,0,4.64.95,18.83487,18.83487,0,0,0,4.59-1.5,7.885,7.885,0,0,0,2.91-1.78C790.74092,149.53011,790.90092,147.68011,790.94092,145.98011Z" style="fill:#eab0e4"/><path d="M811.38092,120.27011a8.19577,8.19577,0,0,1,.17,2.16c-.04,1.7-.21,3.55-1.35,4.82a7.77745,7.77745,0,0,1-2.91,1.79,18.83487,18.83487,0,0,1-4.59,1.5,6.33824,6.33824,0,0,1-4.64-.95,7.11912,7.11912,0,0,1-1.82-2.15,12.34389,12.34389,0,0,1-1.66-7.84,5.27516,5.27516,0,0,1,2.17-3.9,11.394,11.394,0,0,1,6.79-2.52l.86.16a5.01876,5.01876,0,0,1,3.63,1.55,14.25692,14.25692,0,0,1,2.36,3.28A8.06046,8.06046,0,0,1,811.38092,120.27011Z" style="fill:#fff"/><path d="M790.80092,174.69011a6.96344,6.96344,0,0,1,.15,1.88,6.47579,6.47579,0,0,1-1.17,4.2,6.788,6.788,0,0,1-2.53,1.55,16.44258,16.44258,0,0,1-4,1.31,5.50164,5.50164,0,0,1-4.03-.82,6.13184,6.13184,0,0,1-1.59-1.88,10.68072,10.68072,0,0,1-1.44-6.82,5.24851,5.24851,0,0,1,.69-2.12,5.56077,5.56077,0,0,1,1.19-1.28,9.932,9.932,0,0,1,5.91-2.18l.75.13a4.36793,4.36793,0,0,1,3.16,1.35,12.43223,12.43223,0,0,1,2.05,2.86A7.04687,7.04687,0,0,1,790.80092,174.69011Z" style="fill:#fff"/><path d="M790.78092,143.82011a7.79153,7.79153,0,0,1,.16,2.16c-.04,1.7-.2,3.55-1.34,4.83a7.885,7.885,0,0,1-2.91,1.78,18.83487,18.83487,0,0,1-4.59,1.5,6.33824,6.33824,0,0,1-4.64-.95,7.00092,7.00092,0,0,1-1.82-2.15,12.34389,12.34389,0,0,1-1.66-7.84,6.06811,6.06811,0,0,1,.8-2.43,6.17808,6.17808,0,0,1,1.37-1.47,11.394,11.394,0,0,1,6.79-2.52l.86.16a5.01876,5.01876,0,0,1,3.63,1.55,14.47521,14.47521,0,0,1,2.36,3.28A8.06046,8.06046,0,0,1,790.78092,143.82011Z" style="fill:#fff"/><path d="M733.19092,173.91a109.90458,109.90458,0,0,1,.22,22.43,3.32026,3.32026,0,0,1-.83,2.3,3.36358,3.36358,0,0,1-2.23.57q-43.92.765-87.83,1.53a2.26856,2.26856,0,0,1-1.74-.46,2.2434,2.2434,0,0,1-.42-1.48c-1.78-45.72-3.55-91.51-1.49-137.22.19-4.26-.08-11.92,4.69-13.63,5.97-2.15,14.6-1.17,20.73-.24,1.31.2,2.76.53,3.49,1.64a4.87888,4.87888,0,0,1,.56,2.51c1.7,40.04-4.38,80.12-2.46,120.14h.11q31.395-1.5,62.84-1.54c1.29,0,2.77.08,3.6,1.07A4.45107,4.45107,0,0,1,733.19092,173.91Z" style="fill:#fef0a5"/><path d="M608.85092,156.35011c2.43,6.09,4.29,12.39,3.8,19.1a58.19762,58.19762,0,0,1-.77,8.06c-.82,3.79-2.06,7.49-3.19,11.21a8.986,8.986,0,0,1-1.13,1.82,4.93874,4.93874,0,0,0-.7,1.37c-.48,2.34-1.1,2.99-3.47,3.13-2.3.14-4.61.22-6.91.23-4.79.01-9.57-.01-14.36-.1-6.75-.13-13.5-.26-20.24-.56-3.97-.17-7.91.31-11.87.17-3.88-.13-7.77-.24-11.65-.42a4.30022,4.30022,0,0,1-1.56-.58c-1.39-.7-1.59-1.49-.94-2.91a8.75334,8.75334,0,0,0,.77-2.42c.51-3.62,1.04-7.24,1.35-10.89.21-2.43.05-4.89.08-7.33.02-1.92.07-3.83.12-5.75a92.78065,92.78065,0,0,0,.24-10.27c-.59-7.18-.4-14.36-.48-21.54-.04-3.09.28-6.18.35-9.27.11-4.67.19-9.35.2-14.03.01-2.2-.2-4.39-.24-6.58-.03-1.56.14-3.13.1-4.7-.04-1.49-.33-2.98-.34-4.48-.05-4.98.21-9.97-.08-14.93-.31-5.2.42-10.34.62-15.52.03-.89.09-1.79.05-2.67,0-.05-.01-.11-.01-.16l.42-.03c7.52-.19,16.62-.09,24.14-.29.32,4.51-.49,10.39-.64,14.89-.21,5.34-.19,10.69-.33,16.03-.09,3.51-.39,7-.41,10.5-.03,5.34.11,10.68.15,16.03.02,2.23-.05,4.47-.05,6.7,0,5.1.02,10.2.01,15.3-.01,1.59-.15,3.18-.15,4.77a11.12344,11.12344,0,0,0,.42,2.03,9.82237,9.82237,0,0,0,2.58-2.38,25.25839,25.25839,0,0,1,8.73-6.58c4.33-2.18,9-2.46,13.73-2.23,1.9.09,3.81.27,5.7.55,3.29.48,5.86,2.47,8.27,4.5A26.2953,26.2953,0,0,1,608.85092,156.35011Zm-19.08,24.18c2.49-3.64,1.15-8.82-1.01-12.28a5.8841,5.8841,0,0,0-3.69-2.82c-1.74-.32-3.11.59-4.43,1.6a42.45451,42.45451,0,0,0-11.82,14.23l.47.93a29.68207,29.68207,0,0,0,4.03,1.55c3.96.89,8.87,1.05,12.71-.42A7.91327,7.91327,0,0,0,589.77092,180.53011Z" style="fill:#eab0e4"/><path d="M560.97092,28.21011c2.25,4.93,3.68,10.06,2.78,15.54a19.3252,19.3252,0,0,1-2.18,6.2l-.35-.18a2.94743,2.94743,0,0,1-3.01-1.6,11.05622,11.05622,0,0,1-1.03-3.5,26.255,26.255,0,0,0-.75-2.9,5.24549,5.24549,0,0,0-1.18-2.19,2.04753,2.04753,0,0,0-2.3-.49,2.25975,2.25975,0,0,0-.87.94,21.73712,21.73712,0,0,0-.93,2.48,2.98732,2.98732,0,0,1-1.75,1.87c-1.14.33-2.28-.46-3.14-1.28a8.12629,8.12629,0,0,1-2.31-3.32c-.68-2.12.07-4.46-.42-6.64-.14-.62-.58-1.35-1.22-1.24-.49.08-.74.63-1.05,1.03a2.26706,2.26706,0,0,1-2.47.67,3.11139,3.11139,0,0,1-.99-.61,4.0422,4.0422,0,0,1-.38-1,4.11912,4.11912,0,0,1,.27-1.37c.33-.69.66-1.36,1.01-2.02.05-.1.1-.19.15-.29a48.52436,48.52436,0,0,1,11.44-14.32c.92-.79,1.36-2.12,2.16-3.09.56-.68.94-1.81,2.22-1.46,1.14.31,1.75,1.14,1.83,2.76.06,1.19-.13,2.41.02,3.58a24.03447,24.03447,0,0,0,1.04,5.58C558.47092,23.73011,559.91092,25.89011,560.97092,28.21011Z" style="fill:#fef0a5"/><path d="M558.94092,58.13011c1.49,2.86,3.99,4.69,4.21,7.88-7.52.2-16.62.1-24.14.29l-.42.03a3.71522,3.71522,0,0,1,.11-1.93c1.23-2.67,2.6-5.27,3.92-7.9.34-.67.67-1.34,1.1-2.21l.31.15q6.555.3,13.11.59l1.15.34A3.98757,3.98757,0,0,0,558.94092,58.13011Z" style="fill:#8195d2"/><path d="M561.22092,49.77011l.35.18a29.75823,29.75823,0,0,1-2.39,3.69,4.326,4.326,0,0,0-.89,1.73l-1.15-.34q-6.555-.3-13.11-.59l-.31-.15c.08-.14.15-.28.22-.43-1.01-1.11-2.02-2.23-3.05-3.34a18.123,18.123,0,0,1-4.96-12.32,16.28155,16.28155,0,0,1,1.57-7.17c.06-.14.13-.27.19-.41a4.11912,4.11912,0,0,0-.27,1.37,4.0422,4.0422,0,0,0,.38,1,3.11139,3.11139,0,0,0,.99.61,2.26706,2.26706,0,0,0,2.47-.67c.31-.4.56-.95,1.05-1.03.64-.11,1.08.62,1.22,1.24.49,2.18-.26,4.52.42,6.64a8.12629,8.12629,0,0,0,2.31,3.32c.86.82,2,1.61,3.14,1.28a2.98732,2.98732,0,0,0,1.75-1.87,21.73712,21.73712,0,0,1,.93-2.48,2.25975,2.25975,0,0,1,.87-.94,2.04753,2.04753,0,0,1,2.3.49,5.24549,5.24549,0,0,1,1.18,2.19,26.255,26.255,0,0,1,.75,2.9,11.05622,11.05622,0,0,0,1.03,3.5A2.94743,2.94743,0,0,0,561.22092,49.77011Z" style="fill:#fff"/><path d="M514.06092,163.85a50.4562,50.4562,0,0,1-4.27,33.23,6.80852,6.80852,0,0,1-2.72,3.25,7.44144,7.44144,0,0,1-3.32.48l-60.9-.78c-1.44-.02-3.12-.16-3.89-1.38a4.47116,4.47116,0,0,1-.2-3.23c1.81-9.81,1.97-19.84,2.06-29.81q.345-37.05-.42-74.1c-.2-9.52-.39-19.36,1.96-28.48l.23.06c7.52-.2,14.65.2,22.17,0l.24-.06c1.48,5.1.84,10.9.53,16.38q-2.055,36.09-.73,72.27c.09-.1.18-.21.27-.31a31.90366,31.90366,0,0,1,18.22-10.74,25.73727,25.73727,0,0,1,20.68,5.06C509.43092,150.16,512.57092,156.95,514.06092,163.85Zm-21.31,13.76c2.49-3.64,1.15-8.82-1.01-12.28a5.8841,5.8841,0,0,0-3.69-2.82c-1.75-.32-3.12.59-4.43,1.6a42.33764,42.33764,0,0,0-11.82,14.23l.47.93a29.68207,29.68207,0,0,0,4.03,1.55c3.96.89,8.87,1.05,12.71-.42A7.91327,7.91327,0,0,0,492.75092,177.61Z" style="fill:#badeb8"/><path d="M444.25092,23.28a56.36185,56.36185,0,0,1,3.76-5.17c2.17-2.67,5.08-7.91,8.54-8.78,2.95-.74,2.55,3.41,2.49,5.25-.24,7.13,4.91,12.48,6.85,18.94a21.68505,21.68505,0,0,1-1.77,15.85l-.51-.26a3.17181,3.17181,0,0,1-2.86-2.51,15.84232,15.84232,0,0,1-.22-4.08,5.21375,5.21375,0,0,0-1.27-3.78.81647.81647,0,0,0-.49-.26c-.35-.03-.61.32-.77.63-.59,1.15-.88,2.45-1.53,3.58a3.43994,3.43994,0,0,1-3.1,1.98,3.66965,3.66965,0,0,1-1.92-.99,6.46481,6.46481,0,0,1-2.08-3,10.01651,10.01651,0,0,1-.24-3.14c.11-3.31.22-6.61.33-9.92.01-.45-.31-2.88-1.22-1.87-.33.38-.43.94-.77,1.35-.83,1.02-3.41,2.46-4.58,1.23a1.211,1.211,0,0,1-.29-.73,5.69663,5.69663,0,0,1,.81-2.67A11.63686,11.63686,0,0,1,444.25092,23.28Z" style="fill:#eab0e4"/><path d="M465.00092,63.03l-.24.06c-7.52.2-14.65-.2-22.17,0l-.23-.06a44.444,44.444,0,0,1,2.88-8,4.37526,4.37526,0,0,0,.53-1.56c4.37.19,10.99.33,15.36.53h.5a8.66387,8.66387,0,0,0,1.21,4.37A16.16382,16.16382,0,0,1,465.00092,63.03Z" style="fill:#8195d2"/><path d="M463.61092,49.11l.51.26a20.22979,20.22979,0,0,1-1.97,3.14c-.59.78-.45.51-.52,1.49h-.5c-4.37-.2-10.99-.34-15.36-.53a1.31291,1.31291,0,0,0,.01-.28c-.07-1.06-1-1.81-1.78-2.52-6.56-5.99-6.14-14.61-2.66-22.14a43.4361,43.4361,0,0,1,2.91-5.25,11.63686,11.63686,0,0,0-.84,1.65,5.69663,5.69663,0,0,0-.81,2.67,1.211,1.211,0,0,0,.29.73c1.17,1.23,3.75-.21,4.58-1.23.34-.41.44-.97.77-1.35.91-1.01,1.23,1.42,1.22,1.87-.11,3.31-.22,6.61-.33,9.92a10.01651,10.01651,0,0,0,.24,3.14,6.46481,6.46481,0,0,0,2.08,3,3.66965,3.66965,0,0,0,1.92.99,3.43994,3.43994,0,0,0,3.1-1.98c.65-1.13.94-2.43,1.53-3.58.16-.31.42-.66.77-.63a.81647.81647,0,0,1,.49.26,5.21375,5.21375,0,0,1,1.27,3.78,15.84232,15.84232,0,0,0,.22,4.08A3.17181,3.17181,0,0,0,463.61092,49.11Z" style="fill:#fff"/><path d="M126.42092,124.79011c4.37,14.39,1.26,30.86-6.11,43.71-10.71,18.68-31.11,31.85-52.64,32.42-.99.02-1.98.02-2.98-.01-20.52-.62-42.16-13.74-50.36-32.58a6.88346,6.88346,0,0,1-.36-1.19l.79-.09a9.10368,9.10368,0,0,0,3.24-1.46q2.55-1.56,5.21-2.93l.28.54c14.37,28.69,54.89,32.04,76.78,10.01,13.26-13.34,18.18-34.94,8.86-51.88-9.69-17.61-32.63-24.95-50.79-30-20.47-5.69-47.73-22.17-35.43-47.49,11.82-24.32,49.03-33.14,69.97-17.72,7.13,5.25,15.49,12.94,18.28,21.97l.05.21c-.26.06-.52.11-.78.17-1.16.24-2.32.49-3.45.84-.85.26-1.69.59-2.52.91q-2.265.87-4.54,1.75l-.62.3a32.96472,32.96472,0,0,0-11.92-13.46,40.6708,40.6708,0,0,0-24.62-5.94c-5.86.4-11.77,1.97-16.52,5.41-4.76,3.45-8.21,8.96-8.29,14.83-.11,7.25,4.85,13.79,10.94,17.74,6.09,3.94,13.24,5.82,20.17,7.96C92.76092,86.11011,118.66092,99.25011,126.42092,124.79011Z" style="fill:#fef0a5"/><path d="M125.94092,54.32011c.44,2.05.72,4.36-.44,6.12-1,1.53-2.84,2.25-4.58,2.82a89.87977,89.87977,0,0,1-12.31,3.13,6.68327,6.68327,0,0,1-3.44-.02c-2.57-.93-3.07-4.24-3.56-6.93a28.88719,28.88719,0,0,0-2.31-7.17l.62-.3q2.28-.885,4.54-1.75c.83-.32,1.67-.65,2.52-.91,1.13-.35,2.29-.6,3.45-.84.26-.06.52-.11.78-.17q5.715-1.215,11.41-2.43l.61-.25A50.15617,50.15617,0,0,1,125.94092,54.32011Z" style="fill:#eab0e4"/><path d="M123.23092,45.62011l-.61.25q-5.7,1.215-11.41,2.43l-.05-.21c-2.79-9.03-11.15-16.72-18.28-21.97-20.94-15.42-58.15-6.6-69.97,17.72-12.3,25.32,14.96,41.8,35.43,47.49,18.16,5.05,41.1,12.39,50.79,30,9.32,16.94,4.4,38.54-8.86,51.88-21.89,22.03-62.41,18.68-76.78-10.01l-.28-.54a79.79286,79.79286,0,0,1,7.83-3.54l.78-.64c1.47,1.67,2.73,3.08,3.62,4.07,6.2,6.82,15.09,12.56,24.15,14.27,9.43,1.77,19.27-1.56,27.13-7.07,9.94-6.98,17.64-19.05,14.97-30.9-1.76-7.81-7.72-14.12-14.57-18.26-6.86-4.14-14.63-6.43-22.23-8.94-12.39-4.09-24.7-8.94-35.25-16.61-10.54-7.68-19.26-18.5-22.21-31.2-9.13-39.22,41.11-60.34,72.72-53.6C99.07092,14.28011,115.95092,27.88011,123.23092,45.62011Z" style="fill:#fef0a5"/><path d="M31.82092,158.48011l-.78.64a79.79286,79.79286,0,0,0-7.83,3.54q-2.655,1.365-5.21,2.93a9.10368,9.10368,0,0,1-3.24,1.46l-.79.09c-.72-3.3-1.02-10.69-1.13-17.37,2.05.69,4.08,1.45,6.09,2.25l1.89-5.67.24-.21C24.63092,150.26011,28.70092,154.94011,31.82092,158.48011Z" style="fill:#fff"/><path d="M21.06092,146.14011l-.24.21-1.89,5.67c-2.01-.8-4.04-1.56-6.09-2.25-.12-6.81-.04-12.88-.04-13.17C12.80092,136.60011,16.53092,140.92011,21.06092,146.14011Z" style="fill:#8195d2"/><path d="M64.69588,199.785a59.10462,59.10462,0,0,1-41.78614-20.04725,47.60221,47.60221,0,0,1-6.54639-9.71527,15.27214,15.27214,0,0,1-1.66641-5.4546,158.97969,158.97969,0,0,1-.7579-16.26037c-.05238-3.90568-.06548-7.81345-.01465-11.71928l-1.92049.79549q7.07958,8.21448,14.20283,16.39134c2.74475,3.14817,5.47936,6.30845,8.28649,9.40144A49.62033,49.62033,0,0,0,51.7653,175.57975a33.20384,33.20384,0,0,0,21.25687,1.79255,43.76566,43.76566,0,0,0,18.90119-10.39837c4.98936-4.63953,9.08073-10.6335,10.69508-17.31682a24.31753,24.31753,0,0,0-3.19332-18.98076c-8.36775-13.03035-24.347-16.66758-38.0333-21.39409-14.44876-4.98981-28.91169-11.48061-39.70536-22.62275C12.90868,77.59834,6.78766,65.42572,7.51982,52.57224,8.06627,42.97892,12.84309,34.3666,19.736,27.84c7.249-6.86376,16.46515-11.52213,25.96808-14.38454A73.17587,73.17587,0,0,1,75.191,10.55507a59.53091,59.53091,0,0,1,32.58487,15.20217,58.10911,58.10911,0,0,1,11.84192,14.90644,51.74628,51.74628,0,0,1,3.82433,8.74471q.76054,2.30631,1.29759,4.67862c.37615,1.66267.81069,3.60174.09028,5.2325-.73471,1.66312-2.60537,2.32454-4.20662,2.85919-2.00967.671-4.04852,1.25952-6.10213,1.78009q-2.967.75211-5.98161,1.29989c-1.84852.33338-3.55747.38757-4.56112-1.41416a13.168,13.168,0,0,1-1.16766-4.07739,32.39522,32.39522,0,0,0-1.23655-4.89162,32.06285,32.06285,0,0,0-4.7611-8.833c-8.955-11.78279-24.70478-16.28628-38.94688-13.68989-7.01346,1.27858-13.73792,4.69682-17.78543,10.73a18.22421,18.22421,0,0,0-1.10151,18.73364c6.79688,13.25389,23.11673,15.631,35.824,20.05863,11.75147,4.09462,23.35438,9.55668,32.94567,17.6039,9.78246,8.2076,17.11812,19.27958,19.03568,32.06726,2.17739,14.52041-2.362,29.75569-10.78824,41.59921a64.65,64.65,0,0,1-31.57766,23.60151,56.93949,56.93949,0,0,1-19.723,3.03824,1.12569,1.12569,0,0,0,0,2.25,62.20982,62.20982,0,0,0,37.96392-12.30234,65.96885,65.96885,0,0,0,23.91436-32.645c4.45282-13.72829,3.98874-28.70633-2.76111-41.60066-5.77184-11.026-15.402-19.45868-26.0214-25.68114a119.77943,119.77943,0,0,0-16.9832-8.105c-6.28706-2.45778-12.7596-4.26143-19.167-6.35911-7.05661-2.31021-14.24083-5.464-18.80529-11.59254a17.9152,17.9152,0,0,1-3.73894-9.5013,16.23392,16.23392,0,0,1,2.71575-9.709c4.10881-6.38269,11.55162-9.48364,18.85145-10.34953a40.71516,40.71516,0,0,1,22.79936,3.68985A32.36341,32.36341,0,0,1,98.19491,52.56107c1.47627,3.042,2.01706,6.17035,2.76889,9.42435.6614,2.86258,2.20127,5.62386,5.474,5.74346a23.72491,23.72491,0,0,0,5.702-.89895q3.10644-.67509,6.1595-1.57038c3.0883-.90546,7.1846-1.78461,8.60186-5.06787,1.29557-3.00135.10608-6.6959-.75741-9.66631a54.12542,54.12542,0,0,0-3.50419-8.93569A61.89337,61.89337,0,0,0,64.22518,7.96409a79.76087,79.76087,0,0,0-29.76211,7.38662c-8.84929,4.14136-17.09082,10.16482-22.6603,18.29283A37.81085,37.81085,0,0,0,5.82106,61.557C8.13053,75.14747,16.91786,86.71813,27.665,94.95153c12.65307,9.69356,27.81378,14.72283,42.74836,19.69116,7.36367,2.4497,14.8862,5.24829,20.90332,10.30391,5.30334,4.45591,9.42929,10.59538,9.76209,17.686.68465,14.58722-12.3911,26.98961-25.20646,31.52856a31.35538,31.35538,0,0,1-22.03237-.15642,46.96586,46.96586,0,0,1-17.80633-12.47517c-6.11726-6.7471-12.02665-13.68953-17.9835-20.57781q-2.22938-2.578-4.45518-5.15905a1.13631,1.13631,0,0,0-1.9205.7955,239.23107,239.23107,0,0,0,.68663,27.18772,17.63912,17.63912,0,0,0,1.14261,5.45057A47.9645,47.9645,0,0,0,19.70646,179.377a59.20608,59.20608,0,0,0,18.77585,15.46349A60.48245,60.48245,0,0,0,64.69588,202.035C66.1441,202.08391,66.14228,199.83384,64.69588,199.785Z"/><path d="M100.22477,53.05192A70.58778,70.58778,0,0,1,110.95108,49.504q5.98515-1.27373,11.97064-2.54594c1.41553-.30106.8165-2.4705-.59814-2.16963q-5.98531,1.273-11.97064,2.54594a70.5826,70.5826,0,0,0-10.72631,3.54791c-1.33678.51592-.756,2.69225.59814,2.16963Z"/><path d="M13.99106,167.92577a1.12567,1.12567,0,0,0,0-2.25,1.12567,1.12567,0,0,0,0,2.25Z"/><path d="M15.0603,168.131a11.40108,11.40108,0,0,0,3.76376-1.73082q2.01228-1.21965,4.0915-2.32361a80.85478,80.85478,0,0,1,8.42078-3.86806c1.33331-.52205.753-2.69868-.59814-2.16963a86.218,86.218,0,0,0-8.42084,3.81224q-2.01928,1.05246-3.97806,2.21576a12.20273,12.20273,0,0,1-3.87714,1.89449c-1.42205.26185-.81969,2.4307.59814,2.16963Z"/><path d="M12.40061,150.80227q3.14625,1.068,6.23169,2.303a1.14062,1.14062,0,0,0,1.38388-.78574L21.9024,146.651a1.12528,1.12528,0,1,0-2.16962-.59814l-1.88622,5.66853,1.38388-.78575q-3.08463-1.23472-6.23169-2.303a1.12529,1.12529,0,0,0-.59814,2.16963Z"/><path d="M112.24176,47.79429c-2.31045-7.29146-7.55968-13.28268-13.23792-18.22157-4.74209-4.12464-9.797-7.64541-15.76893-9.72188-11.11682-3.86543-23.718-3.13048-34.69281.85672-11.05043,4.01469-21.16359,11.59885-26.467,22.29-2.75184,5.54739-4.09412,11.74071-2.89819,17.88526a29.53357,29.53357,0,0,0,7.94638,14.42947c8.19744,8.621,19.76067,13.98325,31.07142,17.14867C71.164,96.09058,84.48849,100.17531,95.55,108.124a41.99254,41.99254,0,0,1,13.31009,15.11211,39.36929,39.36929,0,0,1,3.79812,20.85269,46.24038,46.24038,0,0,1-20.341,34.2034,50.24835,50.24835,0,0,1-33.40452,7.78957,44.73382,44.73382,0,0,1-29.63591-15.904A42.59937,42.59937,0,0,1,24.4582,162.631c-.65354-1.29245-2.59531-.15478-1.9428,1.13562a45.14126,45.14126,0,0,0,25.86131,22.22081,52.45378,52.45378,0,0,0,33.97967-.26674,48.91046,48.91046,0,0,0,27.8-24.52822c6.22874-12.7838,6.83188-28.32465-.30895-40.88287-6.75546-11.88048-19.27727-18.93528-31.62386-23.75866C66.45163,91.95206,53.81179,89.8403,42.58391,83.87813,32.80973,78.68789,22.24645,70.28939,21.0748,58.44837,19.86617,46.2337,28.47261,34.8923,38.14419,28.43221A53.35942,53.35942,0,0,1,72.1589,19.78129a41.28563,41.28563,0,0,1,16.35449,4.86822,51.07945,51.07945,0,0,1,7.85786,5.62517,59.34641,59.34641,0,0,1,8.18368,8.20479,30.88116,30.88116,0,0,1,5.5172,9.913c.4358,1.37534,2.60878.78776,2.16963-.59814Z"/><path d="M13.99106,167.92577a1.12567,1.12567,0,0,0,0-2.25,1.12567,1.12567,0,0,0,0,2.25Z"/><path d="M1085.61843,92.204a38.58386,38.58386,0,0,1,27.92245,10.44361,33.96166,33.96166,0,0,1,8.12133,11.64731,30.74663,30.74663,0,0,1,1.10263,3.18576c.274.9563,1.0773,2.943.07906,3.695a4.79084,4.79084,0,0,1-1.84684.43512l-2.17546.39316-5.31778.96107c-1.254.22663-3.2019.9449-4.45655.59035-1.17347-.3316-1.65135-1.88679-2.04091-2.89047a24.74211,24.74211,0,0,0-3.50517-6.32119,23.38467,23.38467,0,0,0-12.318-8.26384,23.72286,23.72286,0,0,0-16.24478,1.49045c-4.40432,2.11707-8.07651,6.49507-6.04279,11.57457,2.07277,5.177,7.90984,7.15235,12.67628,9.03049,5.3926,2.12486,10.88705,3.98225,16.26095,6.15558,9.6861,3.91727,21.409,9.608,25.46963,20.00931a27.10317,27.10317,0,0,1,1.49833,8.17624,20.88673,20.88673,0,0,1-1.06907,8.76635,53.74149,53.74149,0,0,1-8.042,14.95448c-6.56291,8.11925-17.25061,11.564-27.39346,12.03007-11.09106.50964-21.80524-3.30156-30.656-9.89321-4.34026-3.23244-8.51029-7.19727-8.52491-12.99248-.00692-2.73928.13217-5.47124.10325-8.21477-.02322-2.203-.01781-4.407.04267-6.60943.02051-.74685.04212-1.49467.08883-2.24046l-1.92049.7955q4.09255,3.63825,8.188,7.27327c3.0225,2.68178,5.92391,5.50529,8.95943,8.16576,5.75923,5.04765,12.69275,8.21929,20.463,8.14178a29.034,29.034,0,0,0,20.274-8.70286c2.45563-2.525,4.45774-5.79717,4.6985-9.3843.25779-3.84092-2.14191-6.56427-5.22076-8.48346-6.85044-4.27018-14.54477-7.0481-22.09085-9.80551-7.59384-2.77487-15.26-5.54141-22.1953-9.76513-6.33959-3.86094-12.51013-9.53989-12.68588-17.49657-.16035-7.2591,4.87595-13.39858,10.32848-17.6215a46.086,46.086,0,0,1,21.61114-8.68992,57.04914,57.04914,0,0,1,5.85906-.54014c1.4423-.063,1.45014-2.31329,0-2.25a54.42291,54.42291,0,0,0-22.471,5.63222c-6.06829,3.11907-11.90323,7.92342-15.16459,14.00871a18.68626,18.68626,0,0,0,1.03266,19.77683c4.30607,6.125,11.232,10.0282,17.891,13.09857,7.29383,3.36307,14.95765,5.80384,22.42958,8.72314a100.75827,100.75827,0,0,1,11.01823,4.977c3.26691,1.7532,7.51956,3.77392,7.42458,8.07223-.08268,3.74133-2.705,7.02872-5.3604,9.41144a26.5354,26.5354,0,0,1-32.3289,2.38394c-3.96019-2.593-7.24924-6.25527-10.78287-9.38324q-4.7617-4.21508-9.51093-8.44424-.38761-.3445-.77519-.68905a1.14,1.14,0,0,0-1.9205.79549c-.20285,3.23863-.16674,6.50258-.1203,9.74467.03965,2.76812-.26377,5.5866-.08285,8.34456a14.28477,14.28477,0,0,0,2.73156,7.43889c3.267,4.48135,8.40224,7.90948,13.207,10.54564a49.49089,49.49089,0,0,0,16.35991,5.65337c10.2279,1.53579,21.66964-.17624,30.56823-5.62185a32.96909,32.96909,0,0,0,10.97317-11.57722,65.49227,65.49227,0,0,0,3.88591-7.82539,27.20858,27.20858,0,0,0,2.41442-8.36473c.48155-5.51726-.39794-11.6187-3.26737-16.41336a35.40456,35.40456,0,0,0-11.57654-11.23128c-10.1948-6.526-22.03943-9.57983-33.09406-14.25264-2.67929-1.13254-5.593-2.44954-7.29625-4.92466a5.83926,5.83926,0,0,1,.4149-7.592c3.87445-4.20795,10.88579-5.32741,16.28714-4.44163a21.18579,21.18579,0,0,1,13.6746,8.508c1.52457,2.11954,2.2659,4.4675,3.41817,6.76572a5.29956,5.29956,0,0,0,2.00531,2.30337c1.27767.727,2.715.43948,4.08172.19493q5.07754-.90851,10.15213-1.83476a3.634,3.634,0,0,0,3.59043-4.8147,31.27735,31.27735,0,0,0-6.19689-13.28619,40.41872,40.41872,0,0,0-24.60248-15.0562,42.156,42.156,0,0,0-9.00954-.62566C1084.17452,90.0036,1084.16783,92.25383,1085.61843,92.204Z"/><path d="M362.47776,162.65184c.462-7.0063.06429-14.04325.47174-21.05445.28561-4.91455-.52474-9.81739-.44224-14.73424.08526-5.08112.01311-10.16232.00535-15.2437-.00175-1.14148-.01776-2.28545.012-3.42663a15.94715,15.94715,0,0,1,.36516-3.97506,11.71433,11.71433,0,0,1,1.53864-2.48819c.64149-1.05934,1.13011-2.2481,1.68117-3.35729,1.18724-2.3897,2.26064-4.82331,3.3443-7.25973,1.95119-4.38689,3.93817-8.758,5.91973-13.13123q2.38125-5.25535,4.76934-10.5076l-2.05622-.26874q4.02926,9.56793,8.12373,19.1084c1.59852,3.71947,3.19014,7.44423,4.869,11.1284a19.75187,19.75187,0,0,0,1.93171,3.53148,10.8889,10.8889,0,0,1,1.5532,2.44242,9.75736,9.75736,0,0,1,.46917,3.14122,63.15585,63.15585,0,0,1-.10432,6.38916c-.31416,4.53736-.24531,9.09861-.28148,13.64452-.036,4.51932.06338,9.00543.32219,13.51721.25986,4.53013.24863,9.07042.51366,13.60244.26749,4.574.47451,9.07083.35914,13.65457-.114,4.53033-.1928,9.06886-.19624,13.60067-.00349,4.6032.46031,9.28327.17521,13.87745-.1046,1.68553-.32965,3.94722-1.81495,5.03942-1.36927,1.00688-3.20254.5549-4.75144.401-4.50483-.44757-9.02239-.83647-13.54274-1.08834-3.87972-.21616-7.82735-.4627-11.7113-.414a4.15506,4.15506,0,0,1-1.92283-.1932c-.95989-.51744-.672-2.02033-.63164-2.90138q.14265-3.11342.23-6.229c.19627-6.979.15282-13.96339.46628-20.93914q.1319-2.93523.33477-5.86646c.09844-1.44531-2.152-1.43923-2.25,0-.50519,7.41788-.5679,14.83917-.6989,22.26966q-.053,3.00469-.14648,6.00848a53.33654,53.33654,0,0,0-.217,6.56428c.38823,4.10878,4.50152,3.46417,7.52789,3.60405,4.37607.20226,8.7468.30072,13.11753.62244q3.515.25872,7.025.58088c2.0011.18464,4.18589.70976,6.18614.35957,3.71878-.651,4.77843-4.28568,5.03122-7.57965.17866-2.328.003-4.712-.05077-7.044-.05627-2.43839-.11039-4.87665-.10577-7.31584.00888-4.68918.09121-9.38483.21473-14.07233.12717-4.82589-.20126-9.576-.45937-14.391-.252-4.70125-.26832-9.40683-.55-14.1065-.28344-4.72853-.21458-9.45652-.184-14.19074.01548-2.39587.02753-4.79183.08252-7.18719.05315-2.31463.30355-4.61954.34477-6.93334a25.85282,25.85282,0,0,0-.38411-6.24263c-.4691-1.99549-1.89266-3.31791-2.86351-5.04915a92.68934,92.68934,0,0,1-3.821-8.45524c-3.29521-7.58075-6.715-15.64689-9.81915-23.00936q-.10064-.23866-.2012-.47738c-.32523-.7723-1.60551-1.25981-2.05621-.26874-3.42951,7.54128-6.86394,15.08082-10.24523,22.64386-.84585,1.89195-1.64493,3.80718-2.53246,5.67975a42.53262,42.53262,0,0,1-3.2315,6.36479,7.92394,7.92394,0,0,0-1.47081,2.59312,21.18178,21.18178,0,0,0-.40587,3.6201c-.29663,5.041-.00084,10.15-.01447,15.19873-.007,2.58745-.11846,5.17994-.01481,7.76606.09824,2.45134.3373,4.8947.4317,7.34624.1651,4.28776-.245,8.615-.26928,12.91-.023,4.06057.04768,8.13691-.21964,12.1911C360.13245,164.09743,362.38283,164.09162,362.47776,162.65184Z"/><path d="M544.734,53.06522c-2.1734-2.39052-4.53113-4.66046-5.97894-7.59021a16.99077,16.99077,0,0,1-1.66627-8.58315c.2212-3.25259,1.71163-6.19873,3.275-8.998a47.96357,47.96357,0,0,1,5.30381-7.69q1.40161-1.6488,2.9489-3.16566a24.89865,24.89865,0,0,0,3.36583-3.31361,22.11252,22.11252,0,0,1,1.8812-2.87325c1.26539-1.33314,1.52647,1.567,1.518,2.24331a23.16312,23.16312,0,0,0,1.37637,9.25122c1.35886,3.23759,3.29463,6.157,4.49,9.47854,2.28936,6.36108,2.25106,12.93055-1.353,18.79005-1.42363,2.31455-3.5523,4.18841-2.38768,7.08627,1.04579,2.60218,3.45629,4.49685,4.29046,7.17114a12.80286,12.80286,0,0,1,.29939,3.90115c-.01675,1.70753-.12418,3.41339-.24652,5.11612-.2261,3.1472-.461,6.2833-.54749,9.43849-.19849,7.24272-.35828,14.4784-.60588,21.71935-.275,8.04143.11148,16.11241.0557,24.15842-.02843,4.10151.00535,8.20376.00487,12.30535-.00023,1.95176.02043,3.90436-.06007,5.85481a18.02179,18.02179,0,0,0,.3732,5.19444,1.13281,1.13281,0,0,0,1.65262.67234c1.8941-1.28183,3.10038-3.1172,4.75721-4.65153a26.39711,26.39711,0,0,1,5.63379-3.84177c4.47806-2.37533,9.323-2.79386,14.31277-2.5303a24.21273,24.21273,0,0,1,7.50869,1.11387,20.75569,20.75569,0,0,1,5.74329,3.86129,26.9305,26.9305,0,0,1,7.74572,11.16837,42.64828,42.64828,0,0,1,3.17787,14.77536,72.04112,72.04112,0,0,1-.44807,7.80767,44.93821,44.93821,0,0,1-1.837,7.90951c-.36824,1.24363-.75374,2.482-1.13669,3.7212a16.4607,16.4607,0,0,1-.57106,1.85875,11.9497,11.9497,0,0,1-1.01692,1.5473,9.91455,9.91455,0,0,0-1.047,2.58274,1.52636,1.52636,0,0,1-1.10493,1.21306,13.34,13.34,0,0,1-3.0226.25439q-2.22173.10128-4.44606.119c-2.72223.01929-5.44538.00607-8.16758-.01146-5.52072-.03557-11.04147-.15678-16.56046-.29612-5.43644-.13725-10.86795-.49271-16.305-.27141-5.37571.2188-10.749-.03958-16.1218-.26533-.82119-.0345-2.745-.02436-3.16708-.99824-.27512-.63471.78442-2.26907.94528-2.92759a65.78534,65.78534,0,0,0,1.05935-7.539c.65926-5.38443.478-10.74153.62166-16.15247.07135-2.68739.29412-5.36866.35054-8.05594.05652-2.69188-.25176-5.3732-.36416-8.06077-.22852-5.46429-.14647-10.93549-.19627-16.40287-.04867-5.34423.38871-10.7019.47543-16.04879.04313-2.65905.09153-5.32051.07659-7.98-.01452-2.5855-.31-5.16308-.22938-7.74969.03883-1.24613.13035-2.49242.0631-3.73936-.06859-1.27163-.27726-2.53108-.315-3.80494-.07827-2.64312.0306-5.296.05144-7.93959.04272-5.41866-.314-10.77893.06987-16.19518.186-2.62375.40275-5.24776.46737-7.87829.03248-1.3219-.20585-2.4544.33747-3.69359.527-1.202,1.15025-2.37037,1.74222-3.54135q1.55622-3.07835,3.1037-6.16078c.64516-1.29166-1.295-2.43254-1.94281-1.13561-1.13132,2.265-2.281,4.52046-3.41744,6.78283-.55548,1.10585-1.11021,2.21424-1.62554,3.33955a7.93429,7.93429,0,0,0-.43895,3.73946c.0191,5.68987-.96076,11.33692-.706,17.03521.12575,2.81268.18229,5.61512.15325,8.431-.02849,2.76384-.21139,5.5783.02125,8.33544.1082,1.28227.27994,2.54907.272,3.83868-.00918,1.49048-.1302,2.97521-.092,4.46663.0708,2.76637.245,5.51285.225,8.28264-.04146,5.74737-.16459,11.48536-.45025,17.22544-.28268,5.68016-.12086,11.43545-.006,17.12085.05945,2.94393.24578,5.87109.42716,8.80868a80.13585,80.13585,0,0,1-.224,8.55931c-.25856,5.7187.10731,11.458-.53267,17.15186a67.36819,67.36819,0,0,1-1.14649,8.36244c-.4339,1.77627-1.88627,3.63767-.24443,5.25574,1.8503,1.82352,4.68886,1.52556,7.06193,1.6136,2.834.10513,5.67164.23663,8.50714.28591,2.88554.05014,5.76518-.19168,8.64946-.22312,2.96278-.0323,5.93254.17783,8.89374.26871q8.64347.26529,17.29306.37663c5.76306.06962,11.55592.19087,17.31193-.15457,1.6548-.09932,3.36758-.2866,4.30907-1.83235a14.57262,14.57262,0,0,0,.82645-2.36844c.40866-1.02351,1.27872-1.78069,1.68128-2.81187a79.869,79.869,0,0,0,2.43754-8.07662,41.04465,41.04465,0,0,0,1.42135-8.31227,56.19131,56.19131,0,0,0,.16444-8.18812,41.21,41.21,0,0,0-1.42107-7.66039c-1.34335-4.789-3.10572-9.525-6.24535-13.43676-2.77089-3.45233-6.669-7.01614-10.91218-8.493a28.49952,28.49952,0,0,0-7.73334-1.0573,39.179,39.179,0,0,0-7.55218.23731,26.69966,26.69966,0,0,0-13.22208,6.12351c-1.82384,1.52968-3.09051,3.63365-5.06513,4.97l1.65262.67233a18.13207,18.13207,0,0,1-.273-5.0733c.07129-1.95494.04059-3.91524.04026-5.87116-.00067-3.93713-.03214-7.87494-.00485-11.812.05251-7.57408-.237-15.15457-.09487-22.7269.0719-3.83157.3641-7.655.44055-11.48716.07433-3.72578.09616-7.45252.19166-11.1779.0888-3.46351.35082-6.90227.59108-10.35706.20839-2.99654.7585-6.6302-.27635-9.51578-.95753-2.67-3.35986-4.51886-4.312-7.17471-.54654-1.5245.67494-2.59655,1.483-3.772a25.6556,25.6556,0,0,0,2.53911-4.60657c2.68288-6.395,1.56637-13.30832-1.07851-19.51143-1.408-3.30227-3.716-6.33661-4.41081-9.90084a23.22411,23.22411,0,0,1-.47484-4.979c.0358-1.42244.15528-2.98069-.64681-4.23768a3.33611,3.33611,0,0,0-2.90008-1.49855c-1.18234.076-1.79051,1.004-2.42343,1.8768a19.10088,19.10088,0,0,1-2.45837,3.3315c-1.34424,1.20107-2.65078,2.43071-3.87122,3.75923a50.32264,50.32264,0,0,0-6.26359,8.45725c-1.88435,3.19267-3.67849,6.61654-4.11652,10.34525A19.11414,19.11414,0,0,0,536.49,45.92161c1.52088,3.41555,4.17359,6.00754,6.653,8.7346C544.11919,55.72992,545.70666,54.13505,544.734,53.06522Z"/><path d="M465.86856,152.16267c5.03757-5.769,12.059-10.04092,19.79583-10.72509a24.08905,24.08905,0,0,1,20.61461,8.11221c5.09217,6.0155,7.27371,14.27044,7.7013,22.00144a49.39077,49.39077,0,0,1-4.77512,24.18363c-.7974,1.64229-1.63376,3.54741-3.6331,3.88151-2.25065.37611-4.78452.02732-7.0607-.00165l-14.22767-.18108-28.45535-.36217c-4.53634-.05773-9.12884.08864-13.65686-.18626a2.90731,2.90731,0,0,1-2.24306-.80408c-.56588-.8031-.10124-2.21646.05022-3.077.39337-2.23476.70535-4.48445.95646-6.73952,1.01149-9.08368.98534-18.25007,1.05259-27.37765q.20889-28.34967-.23374-56.69913c-.13884-8.892-.60319-17.82648-.21949-26.71631a71.1834,71.1834,0,0,1,1.54489-12.615A47.56947,47.56947,0,0,1,444.87,58.77607q.52311-1.40979,1.15323-2.77484a6.64512,6.64512,0,0,0,.87427-2.62359c.02806-1.83336-1.5098-2.88649-2.67576-4.05323a14.51453,14.51453,0,0,1-2.995-4.309,16.6407,16.6407,0,0,1-.85144-10.0372c1.5261-7.58575,6.5459-13.45383,10.98347-19.52266a22.57122,22.57122,0,0,1,3.2518-3.75168c.58114-.50813,2.32226-1.9295,3.01209-1.06781.57105.71333.35638,2.29054.327,3.13027a19.34937,19.34937,0,0,0,.34911,4.79035c.75815,3.53526,2.5936,6.7142,4.22016,9.90217,1.72635,3.38356,3.04217,6.80121,3.02756,10.65371a21.51218,21.51218,0,0,1-3.06067,10.90649c-.72072,1.201-1.85563,2.18838-1.95961,3.62833a9.30051,9.30051,0,0,0,.99055,4.65351,32.01319,32.01319,0,0,1,2.35711,4.88049,23.8615,23.8615,0,0,1,.90347,5.85326c.16668,3.95548-.24,7.92-.45722,11.86623q-1.56184,28.38-1.02835,56.82366.1311,6.97991.38866,13.95653c.033.90125,1.25316,1.57818,1.9205.7955l.26763-.31389c.93454-1.096-.6497-2.695-1.591-1.591l-.26763.31389,1.92049.79549q-1.09879-30.02439.12513-60.0717c.19827-4.826.43046-9.65173.73884-14.47208a51.20888,51.20888,0,0,0-.20472-12.22895,19.31752,19.31752,0,0,0-1.8434-5.5411c-.86987-1.67449-1.97659-3.11257-2.00117-5.09822-.01106-.89379.05394-.73986.61222-1.50205a21.36152,21.36152,0,0,0,1.64682-2.63314,24.14562,24.14562,0,0,0,2.082-5.427,21.90108,21.90108,0,0,0-.1137-11.48922c-1.09378-3.65955-3.1561-6.91265-4.76988-10.34687a21.77722,21.77722,0,0,1-1.8459-5.47424,27.1593,27.1593,0,0,1-.13779-4.5789c-.01563-2.43054-.9374-5.3074-3.9627-4.57136-3.16784.77073-5.35992,4.02481-7.14948,6.49937a118.3603,118.3603,0,0,0-7.00295,9.8765c-3.61806,6.259-5.99467,14.07765-3.019,21.07077a16.53187,16.53187,0,0,0,2.8785,4.51329c.635.71428,1.37711,1.30721,2.0355,1.99471.9533.99546.501,1.74894-.01013,2.86541a49.15272,49.15272,0,0,0-3.70886,12.42042c-1.48554,8.9216-1.12221,18.00126-.94624,27.00389q.58321,29.83686.44456,59.682c-.0457,9.836.07186,19.71835-.67016,29.53271-.18617,2.46234-.43109,4.92191-.77291,7.36776-.28645,2.04967-1.03486,4.3066-.8759,6.383.34147,4.46033,6.02128,3.70831,9.13376,3.74793l30.20261.3844,14.9765.19061,7.48825.09531c2.24387.02856,4.6948.33991,6.91-.08825,3.879-.74974,5.39325-5.53465,6.648-8.74878a51.56707,51.56707,0,0,0,3.101-12.42409,48.2141,48.2141,0,0,0-3.15732-24.60682c-3.17118-7.43273-8.87149-13.36163-16.71409-15.743a29.08127,29.08127,0,0,0-22.80949,2.89825,35.22285,35.22285,0,0,0-8.96078,7.41014C463.32887,151.65814,464.914,153.25587,465.86856,152.16267Z"/><path d="M665.98971,173.12359q24.66873-1.17327,49.36865-1.454,5.98664-.0669,11.9737-.08079c1.40335-.00326,3.8394-.42636,4.50731,1.18785a9.442,9.442,0,0,1,.37915,2.59343q.169,1.70128.28481,3.40729a109.9296,109.9296,0,0,1,.16954,11.71657c-.07555,1.943-.14127,3.91775-.38407,5.84838-.11511.91531-.24154,1.56078-1.25823,1.7141a24.65368,24.65368,0,0,1-3.17892.07233L678.947,198.982l-24.45233.42662-5.98833.10447-2.99416.05224a21.83123,21.83123,0,0,1-3.309.05313c-.97506-.13883-.72407-.97248-.75694-1.81857q-.05814-1.49643-.11619-2.99287-.11608-2.99311-.2312-5.98626c-1.25792-32.753-2.37319-65.52931-1.9321-98.31133q.16449-12.22476.63937-24.44277c.117-2.94167.16557-5.90084.37594-8.8379.1593-2.224.43549-4.74184,1.739-6.62363,1.55054-2.23839,5.03277-2.498,7.51119-2.69907a52.46289,52.46289,0,0,1,9.67722.25169c1.51687.15857,3.02968.35639,4.53765.58433a9.349,9.349,0,0,1,2.13693.46523,2.2621,2.2621,0,0,1,1.41782,2.27846c.32116,3.87144.26849,7.81427.30468,11.69738.30175,32.37329-3.50508,64.63277-3.09881,97.00776q.07414,5.90907.35067,11.81275a1.14015,1.14015,0,0,0,1.125,1.125l.10627-.00508c1.4415-.06888,1.44985-2.31928,0-2.25l-.10627.00508,1.125,1.125c-.80707-17.06645-.18448-34.15222.68163-51.20335.87091-17.14544,1.97728-34.2893,2.07628-51.46254q.0369-6.401-.13228-12.801a51.85209,51.85209,0,0,0-.27322-5.94981,4.15167,4.15167,0,0,0-2.50748-3.35794,16.83049,16.83049,0,0,0-4.54212-.93153c-1.65979-.22474-3.32341-.42072-4.993-.55677a44.05887,44.05887,0,0,0-10.31225.20275c-2.67083.41293-5.33449,1.09632-6.95245,3.41883-1.4287,2.05082-1.83667,4.6881-2.0607,7.12057-.26975,2.92889-.2872,5.89836-.4066,8.83576q-.26349,6.48229-.43009,12.968c-.45072,17.37824-.4141,34.7661-.10139,52.14638.31136,17.30606.89637,34.60577,1.54731,51.90194q.24408,6.48563.49734,12.97089c.0387.99761.07487,1.99535.11622,2.99285a5.0214,5.0214,0,0,0,.41153,2.2963c.79808,1.40777,2.49688,1.27946,3.88889,1.25517l25.94941-.45274,51.89882-.90546,6.48736-.11319c1.56261-.02726,3.61461.26212,5.03012-.57568,1.47853-.8751,1.5904-2.659,1.72187-4.19058q.27156-3.16348.35962-6.339a109.90156,109.90156,0,0,0-.3811-12.68749c-.14391-1.6341-.082-3.6926-.89459-5.17041a4.30315,4.30315,0,0,0-3.59557-2.02737,58.51947,58.51947,0,0,0-6.00288-.03794q-3.24292.0153-6.48575.04616-6.48563.06171-12.97047.18566-12.96948.24789-25.93261.74459-6.35655.24357-12.71058.54692C664.54817,170.94215,664.53985,173.19255,665.98971,173.12359Z"/><path d="M150.60857,158.13876c.03537-17.80587,7.52268-37.23515,22.28579-47.93455,7.865-5.70007,17.80558-8.61737,27.49767-7.17754,5.477.81365,11.23491,2.92922,15.46,6.6078a2.40057,2.40057,0,0,1,1.06624,1.67172,4.89477,4.89477,0,0,1-.89858,2.25445l-2.44367,4.597c-.72044,1.35526-1.374,2.78151-2.19746,4.07756a3.55358,3.55358,0,0,1-3.81292,1.57939c-2.65765-.29539-5.104-1.01695-7.81653-.846a23.21152,23.21152,0,0,0-7.50676,1.78938,27.626,27.626,0,0,0-12.08907,10.0713,40.13329,40.13329,0,0,0-6.03939,15.71168c-.97638,5.61727-1.37357,11.68316.45126,17.17466,3.10906,9.3562,12.96115,14.79823,22.53645,14.39074,2.8123-.11969,5.60655-1.25257,8.40772-1.09369,2.89779.16437,4.69021,2.55432,5.88312,4.9545a22.011,22.011,0,0,1,1.60306,4.39c.36346,1.43407,1.00156,3.51062.2232,4.90193-.61549,1.10017-2.0586,1.43781-3.19329,1.67889-1.50168.319-3.033.53909-4.55064.76735-12.35262,1.8578-25.65879,1.845-36.86384-4.37938a32.34358,32.34358,0,0,1-11.96541-11.30358,41.757,41.757,0,0,1-5.46633-15.77945,56.94012,56.94012,0,0,1-.57062-8.10409,1.12567,1.12567,0,0,0-2.25,0c.04809,11.47745,3.199,23.59194,11.74145,31.73552,9.03709,8.61509,21.88856,11.48521,34.04062,11.14156a96.006,96.006,0,0,0,10.48433-.93154q2.4135-.33509,4.814-.75752a11.07659,11.07659,0,0,0,4.13268-1.30884c2.54371-1.62875,2.37784-4.52955,1.84393-7.15678a21.56257,21.56257,0,0,0-3.40381-8.25059,8.46151,8.46151,0,0,0-6.73146-3.85827c-2.9862-.06363-5.86958,1.0875-8.87055,1.12243a22.05288,22.05288,0,0,1-14.20393-4.8606c-4.49094-3.73371-6.446-9.08846-6.62831-14.8306a44.9408,44.9408,0,0,1,3.27531-18.171,28.03993,28.03993,0,0,1,11.16254-13.61562,22.70073,22.70073,0,0,1,7.76772-2.94744,22.9856,22.9856,0,0,1,8.32449.40067c2.72076.49387,5.31692.29693,7.00329-2.15564a44.63267,44.63267,0,0,0,2.408-4.40124q1.28-2.40792,2.56-4.81586a6.021,6.021,0,0,0,1.07159-3.71142,5.54193,5.54193,0,0,0-2.45347-3.32149,32.5488,32.5488,0,0,0-7.50618-4.3154c-10.08479-4.17205-21.632-3.30356-31.34572,1.46162-17.32535,8.49916-27.057,28.0235-29.09883,46.53247a65.1402,65.1402,0,0,0-.38769,7.01562A1.12567,1.12567,0,0,0,150.60857,158.13876Z"/><path d="M274.71305,117.552l.00983.139a1.13916,1.13916,0,0,0,1.92049.7955,45.0272,45.0272,0,0,1,27.15085-13.85813c5.44366-.66762,11.35677-.51825,16.43772,1.74864a15.536,15.536,0,0,1,9.34655,11.29375c1.0322,5.59358-.27094,11.6398-.9057,17.21478l-.49325,4.332-.24662,2.166a4.26007,4.26007,0,0,1-.14793,1.25816c-.15741.26827-.4102.05641-.76408-.05062-2.72959-.82549-5.38535-1.88317-8.06283-2.85925-5.24077-1.91054-10.61438-3.46371-16.25163-3.09587a40.63718,40.63718,0,0,0-15.39214,4.515,67.85957,67.85957,0,0,0-7.17034,4.17629c-2.07883,1.37825-3.83791,2.949-4.40366,5.47982-.58385,2.61181-.12027,5.402.02771,8.03717q.2609,4.6459.32115,9.3002.12057,9.30567-.56047,18.59875a64.33246,64.33246,0,0,1-.92281,9.24129c-.31575,1.4067-1.12653,1.816-2.48723,1.9666-1.61028.17819-3.2345.27525-4.8507.38365q-4.67429.31349-9.35951.41494a67.56216,67.56216,0,0,1-8.99578-.03083,2.56719,2.56719,0,0,1-1.44588-.48207c-.48822-.46525-.33608-1.42441-.33088-2.0222.0137-1.57776.03347-3.15549.05032-4.73321q.05187-4.85781.10587-9.71558.21205-18.93273.52922-37.86411.17063-9.46524.3976-18.92935.115-4.732.24784-9.46358a14.38923,14.38923,0,0,1,.85758-5.5355,6.10319,6.10319,0,0,1,3.189-2.942,33.22,33.22,0,0,1,7.43586-2.08555,58.45765,58.45765,0,0,1,9.07218-1.07809q1.17989-.048,2.36116-.04947a4.9301,4.9301,0,0,1,1.79544.08332c.74485.32432.66344,1.34047.71246,2.01291.0589.808.11425,1.61634.17138,2.4245l.65126,9.21308c.10153,1.43618,2.35232,1.44736,2.25,0l-.71981-10.18288c-.1885-2.66667-.19138-5.55859-3.52947-5.78317a47.66116,47.66116,0,0,0-9.337.52734,58.34227,58.34227,0,0,0-9.40594,1.9944c-3.59018,1.10007-6.48517,3.03647-7.31931,6.88975a43.327,43.327,0,0,0-.53036,7.99785q-.13284,4.98075-.24613,9.962-.47179,20.67234-.69806,41.34925-.12724,10.21364-.23278,20.42754-.02667,2.49116-.053,4.98232c-.014,1.323-.14588,2.80231.77679,3.88,1.66074,1.93969,5.06494,1.44631,7.30951,1.45128q5.05464.01121,10.1057-.22464a92.91592,92.91592,0,0,0,9.87764-.72265c2.62689-.40817,3.69038-2.22842,4.00617-4.71056.42678-3.3544.68986-6.73921.9142-10.1124q.66635-10.019.3999-20.07118c-.08959-3.37125-.30575-6.73082-.501-10.09666a12.392,12.392,0,0,1,.22293-4.08444,6.23784,6.23784,0,0,1,2.77307-3.417,52.09647,52.09647,0,0,1,16.31864-7.80154,31.42039,31.42039,0,0,1,17.87055.91412c2.99855.97109,5.92243,2.15411,8.89728,3.19277,1.92208.67108,5.373,2.38829,6.09207-.67357a39.58728,39.58728,0,0,0,.52973-4.50367l.60285-5.29473c.36354-3.19284.81307-6.39079.995-9.60061.31738-5.59838-.69514-11.127-4.7388-15.2626-3.93433-4.02377-9.4118-5.87373-14.91252-6.37458a46.26436,46.26436,0,0,0-31.49234,9.39222,46.81957,46.81957,0,0,0-5.8862,5.29956l1.9205.79549-.00983-.139C276.86153,116.11579,274.61074,116.10461,274.71305,117.552Z"/><path d="M810.26889,155.97717c-2.95663.118-6.364-.00277-9.00475,1.54579a5.65591,5.65591,0,0,0-2.90374,6.33823c.75252,2.5752,3.11051,4.37319,5.31121,5.69a45.765,45.765,0,0,0,7.98276,3.48325c4.97719,1.80694,11.01188,3.96221,13.3526,9.18206a10.87114,10.87114,0,0,1-3.23713,12.6362c-2.346,1.77781-5.38411,2.36075-8.22838,2.78578a99.93509,99.93509,0,0,1-9.98973.995,54.82433,54.82433,0,0,1-19.5114-2.1831,34.26693,34.26693,0,0,1-13.42224-7.98783,26.03189,26.03189,0,0,1-7.58292-14.65922c-.5386-3.31346-.63419-6.68116-.95508-10.01852-.32419-3.37169-.82246-6.7239-1.14995-10.09523a44.08615,44.08615,0,0,1,1.61856-18.06817,54.34739,54.34739,0,0,1,18.911-26.70212C799.41919,95.73189,828.54483,94.82988,844.57,111.743c7.27263,7.67562,10.38845,19.56663,5.72417,29.42546-5.33821,11.28329-18.62839,13.95142-29.91117,14.48569-3.36947.15956-6.74335.19765-10.11408.323-1.44345.0537-1.45049,2.304,0,2.25,12.51431-.46553,26.72578.08211,36.69645-8.87734,8.36081-7.51286,9.60512-20.14839,5.29682-30.11829-4.51179-10.44079-14.83685-17.36763-25.47921-20.4278a54.92516,54.92516,0,0,0-36.3083,2.50624,53.32318,53.32318,0,0,0-25.214,22.80806,51.84244,51.84244,0,0,0-6.18719,15.96418c-1.31589,6.79069-.42153,13.54678.3872,20.33784.78934,6.62827.49269,13.71,3.03145,19.99125a29.88326,29.88326,0,0,0,9.83989,12.47215c10.399,7.8915,23.977,8.89878,36.53856,7.5893,5.70732-.595,12.51638-1.05084,16.35913-5.91352a13.1792,13.1792,0,0,0,1.72006-13.4784c-2.41307-5.19051-8.03635-7.76282-13.10462-9.63586a53.052,53.052,0,0,1-9.03793-3.83664c-2.17125-1.29914-5.8976-4.08351-3.7775-6.95084,1.965-2.65762,6.33174-2.3143,9.23916-2.43033C811.71187,158.16958,811.71924,155.91929,810.26889,155.97717Z"/><path d="M888.63337,196.36249c-5.02962-.18874-10.33152-.3676-15.63091-.60315a25.45491,25.45491,0,0,1-3.26614-.47632c-1.63138-.28821-2.42785-1.41391-2.329-3.35683.12923-2.54252.31757-5.082.46777-7.62346.19162-3.24246.24042-6.50022.60081-9.7234a56.69217,56.69217,0,0,1,1.39348-6.22266,19.48033,19.48033,0,0,0,.67-3.21682c.08319-1.55325.52044-2.4131,2.03195-2.65644a24.989,24.989,0,0,1,4.76571-.35465c2.60957.08622,5.22482.275,7.81523.59962,3.76268.47159,7.52342,1.00586,11.24984,1.70185a13.40569,13.40569,0,0,1,5.97934,2.89031,4.70118,4.70118,0,0,1,1.953,4.38078c-.49291,3.94931-1.05839,7.895-1.774,11.80937a29.40463,29.40463,0,0,1-3.28571,9.67412,4.7948,4.7948,0,0,1-3.92472,2.72465C893.20782,196.07224,891.063,196.20031,888.63337,196.36249Z" style="fill:#fff"/><path d="M888.63337,195.23749c-4.05191-.15157-8.10426-.292-12.1557-.456a36.149,36.149,0,0,1-6.44228-.58327c-1.58879-.35357-1.54232-1.57706-1.46512-2.987.21942-4.00767.47219-8.01229.67944-12.02075a39.06814,39.06814,0,0,1,.65579-6.32354c.40912-1.87382.94139-3.72272,1.39678-5.58577.20133-.82369.2669-1.63033.38558-2.46354.08115-.56972.18893-.92886.73659-1.14743a9.63874,9.63874,0,0,1,2.763-.3702,27.75,27.75,0,0,1,3.12836-.009A118.487,118.487,0,0,1,890.981,164.6537c3.811.57822,7.71673.96969,10.75357,3.58946,1.55782,1.34389,1.56953,2.74057,1.32464,4.64281q-.39254,3.04916-.86548,6.08726c-.66327,4.2234-1.30869,8.58776-3.24527,12.4503-.85716,1.70961-1.77592,3.1726-3.81275,3.377-2.15834.21658-4.33813.29334-6.50237.437-1.43729.09539-1.44794,2.3461,0,2.25,2.23586-.14838,4.48674-.2305,6.71665-.453a5.83559,5.83559,0,0,0,4.13623-2.18022c2.64314-3.27751,3.61453-7.94582,4.32792-11.98451.41553-2.35242.77885-4.71391,1.10708-7.08.27034-1.94878.91944-4.212.37938-6.1544-1.02448-3.68477-5.66892-5.74587-9.08573-6.37977a143.574,143.574,0,0,0-14.47428-2.003,41.60917,41.60917,0,0,0-7.03142-.16448c-1.55636.13818-3.56.156-4.57295,1.55073a3.94729,3.94729,0,0,0-.66247,1.87764,28.80227,28.80227,0,0,1-.63371,3.31212,56.94625,56.94625,0,0,0-1.46071,6.5262c-.59212,4.78409-.61213,9.664-.91676,14.474-.12008,1.896-.62844,4.26044.489,5.96425,1.08118,1.64855,3.33864,1.80491,5.11455,2.00921,2.75664.31712,5.58973.27868,8.36195.38293q4.10253.15428,8.20529.30242C890.08145,197.54166,890.07917,195.29158,888.63337,195.23749Z"/><path d="M186.58793,103.66913a30.44868,30.44868,0,0,1,.94958,3.16572q.18617.774.3314,1.55708.07815.42145.14406.84508c.04992.32089.06449.42841.09471.67133a1.1545,1.1545,0,0,0,1.125,1.125c.54721-.02451,1.20281-.49951,1.125-1.125a31.77445,31.77445,0,0,0-1.60012-6.83735,1.12529,1.12529,0,0,0-2.16963.59814Z"/><path d="M175.59654,108.39222q.41517.74475.78908,1.51122.17369.35793.3377.72045.07024.15537.13869.31154c.01548.03531.17777.41834.10964.254a29.81846,29.81846,0,0,1,1.08976,3.10927,1.12529,1.12529,0,0,0,2.16963-.59814,31.00813,31.00813,0,0,0-2.69169-6.444,1.12518,1.12518,0,0,0-1.94281,1.13562Z"/><path d="M165.82532,115.61069q.57044.6477,1.117,1.31581.28111.34445.55533.69443.06451.08235.12864.165c-.07146-.09211-.03217-.04177.0156.02094q.14262.18725.28394.37547,1.04977,1.40328,1.98689,2.88566a1.12518,1.12518,0,1,0,1.94281-1.13562,47.10591,47.10591,0,0,0-4.43917-5.91268,1.13165,1.13165,0,0,0-1.591,0,1.152,1.152,0,0,0,0,1.591Z"/><path d="M245.32341,159.33023c.30052,4.96039.6909,10.31407,3.48631,14.605,1.2268,1.88314,3.4557,3.37714,5.56189,1.78087,2.19885-1.66649,2.30764-4.77692,2.73682-7.25535a6.88107,6.88107,0,0,1,1.411-3.59836c1.06437-1.14346,2.67073-1.32958,3.60087.06522.80108,1.20125.71267,2.76344.735,4.14375q.04194,2.59115.23607,5.17537c.23971,3.20516.63011,6.39874,1.08092,9.5805.37279,2.63116.92547,5.44569,2.84563,7.42712,1.77085,1.82735,4.59065,2.7282,6.935,1.45945,2.32319-1.25733,3.24928-4.02378,3.82623-6.4293.33753-1.40731-1.83153-2.00782-2.16963-.59814-.44309,1.84741-1.09707,4.53317-3.13839,5.23544-2.54646.876-4.61885-1.73767-5.32655-3.83939a40.0472,40.0472,0,0,1-1.355-8.16744c-.33786-2.94181-.586-5.89581-.66465-8.85666-.06288-2.36834.121-5.02347-1.55319-6.93414a4.22724,4.22724,0,0,0-5.39513-.82576c-2.02115,1.15081-2.86044,3.38517-3.23777,5.5642-.212,1.22417-.69545,7.36356-3.04685,6.13717-1.03278-.53864-1.63141-1.99124-2.099-2.98849a19.14,19.14,0,0,1-1.2153-3.48686,44.81087,44.81087,0,0,1-1.00425-8.19422c-.08716-1.43871-2.33776-1.44864-2.25,0Z"/><path d="M965.71456,117.17208l.00982.139a1.13916,1.13916,0,0,0,1.9205.79549,45.0273,45.0273,0,0,1,27.15085-13.85813c5.44366-.66761,11.35677-.51825,16.43771,1.74865a15.5359,15.5359,0,0,1,9.34655,11.29374c1.0322,5.59359-.27093,11.63981-.9057,17.21478l-.49324,4.33206-.24662,2.166a4.26,4.26,0,0,1-.14793,1.25815c-.15741.26827-.4102.05641-.76409-.05061-2.72959-.8255-5.38534-1.88318-8.06283-2.85926-5.24076-1.91054-10.61438-3.46371-16.25162-3.09586a40.63693,40.63693,0,0,0-15.39214,4.515,67.86152,67.86152,0,0,0-7.17035,4.1763c-2.07882,1.37824-3.83791,2.949-4.40365,5.47982-.58385,2.6118-.12027,5.402.02771,8.03717q.26089,4.6459.32115,9.3002.12055,9.30567-.56047,18.59874a64.33246,64.33246,0,0,1-.92281,9.24129c-.31575,1.4067-1.12653,1.816-2.48723,1.9666-1.61028.1782-3.2345.27526-4.8507.38365q-4.67428.3135-9.35951.415a67.5623,67.5623,0,0,1-8.99579-.03084,2.56709,2.56709,0,0,1-1.44587-.48206c-.48823-.46526-.33608-1.42442-.33089-2.02221.01371-1.57776.03348-3.15549.05033-4.73321q.05187-4.85779.10587-9.71557.21206-18.93273.52922-37.86412.17063-9.46524.3976-18.92935.115-4.732.24783-9.46358a14.389,14.389,0,0,1,.85759-5.53549,6.10317,6.10317,0,0,1,3.189-2.942,33.22039,33.22039,0,0,1,7.43586-2.08555,58.45888,58.45888,0,0,1,9.07217-1.07809q1.1799-.04794,2.36116-.04946a4.92971,4.92971,0,0,1,1.79545.08332c.74485.32432.66344,1.34046.71245,2.0129.0589.808.11426,1.61634.17139,2.4245l.65126,9.21308c.10152,1.43618,2.35231,1.44736,2.25,0l-.71982-10.18288c-.1885-2.66666-.19138-5.55858-3.52947-5.78317a47.662,47.662,0,0,0-9.337.52734,58.34218,58.34218,0,0,0-9.40593,1.99441c-3.59019,1.10006-6.48517,3.03646-7.31931,6.88974a43.32707,43.32707,0,0,0-.53037,7.99786q-.13284,4.98075-.24613,9.962-.47178,20.67234-.69806,41.34925-.12723,10.21365-.23278,20.42754-.02666,2.49115-.053,4.98233c-.014,1.323-.14588,2.80231.77679,3.88,1.66073,1.93969,5.06494,1.44632,7.3095,1.45129q5.05466.01119,10.1057-.22464a92.91856,92.91856,0,0,0,9.87764-.72266c2.6269-.40816,3.69038-2.22842,4.00618-4.71056.42677-3.3544.68986-6.73921.9142-10.1124q.66635-10.019.39989-20.07117c-.08959-3.37126-.30575-6.73082-.501-10.09667a12.39173,12.39173,0,0,1,.22294-4.08444,6.23779,6.23779,0,0,1,2.77307-3.417,52.09644,52.09644,0,0,1,16.31863-7.80155,31.42051,31.42051,0,0,1,17.87056.91413c2.99855.97108,5.92242,2.1541,8.89728,3.19276,1.92207.67108,5.37305,2.3883,6.09207-.67357a39.58709,39.58709,0,0,0,.52972-4.50366l.60286-5.29474c.36353-3.19283.81307-6.39079.995-9.60061.31738-5.59837-.69514-11.127-4.7388-15.2626-3.93434-4.02377-9.4118-5.87373-14.91253-6.37458a46.26439,46.26439,0,0,0-31.49233,9.39222,46.819,46.819,0,0,0-5.8862,5.29956l1.92049.7955-.00982-.139C967.863,115.7359,965.61225,115.72472,965.71456,117.17208Z"/><path d="M936.32492,158.95035c.30052,4.96039.6909,10.31406,3.4863,14.605,1.2268,1.88313,3.45571,3.37713,5.56189,1.78087,2.19885-1.66649,2.30765-4.77693,2.73683-7.25536a6.881,6.881,0,0,1,1.411-3.59836c1.06437-1.14346,2.67072-1.32957,3.60087.06522.80108,1.20126.71267,2.76345.735,4.14375q.042,2.59116.23607,5.17538c.23972,3.20515.63012,6.39873,1.08093,9.58049.37279,2.63117.92547,5.44569,2.84563,7.42712,1.77084,1.82735,4.59065,2.7282,6.93495,1.45945,2.3232-1.25733,3.24929-4.02378,3.82624-6.4293.33753-1.4073-1.83153-2.00782-2.16963-.59814-.44309,1.84741-1.09707,4.53318-3.13839,5.23544-2.54647.876-4.61886-1.73766-5.32655-3.83939a40.04712,40.04712,0,0,1-1.355-8.16743c-.33785-2.94181-.586-5.89582-.66464-8.85666-.06288-2.36835.121-5.02347-1.55319-6.93415a4.22724,4.22724,0,0,0-5.39513-.82576c-2.02116,1.15081-2.86044,3.38517-3.23778,5.5642-.212,1.22418-.69544,7.36356-3.04685,6.13718-1.03277-.53865-1.6314-1.99125-2.099-2.9885a19.13972,19.13972,0,0,1-1.21531-3.48685,44.81183,44.81183,0,0,1-1.00424-8.19422c-.08717-1.43871-2.33777-1.44865-2.25,0Z"/><path d="M157.53329,127.219,164.123,131.381a1.13516,1.13516,0,0,0,1.53922-.40359,1.14892,1.14892,0,0,0-.4036-1.53922l-6.58969-4.16206a1.13515,1.13515,0,0,0-1.53921.40359,1.14892,1.14892,0,0,0,.40359,1.53922Z"/><path d="M152.92522,139.12033a29.93181,29.93181,0,0,0,3.94929,1.18853,22.0135,22.0135,0,0,1,3.89668.649,1.13249,1.13249,0,0,0,1.38389-.78575,1.15254,1.15254,0,0,0-.78575-1.38388,21.40454,21.40454,0,0,0-3.89668-.649,29.93291,29.93291,0,0,1-3.94929-1.18854,1.12529,1.12529,0,0,0-.59814,2.16963Z"/><path d="M150.50549,154.01745a49.78708,49.78708,0,0,0,7.91011.2673,1.14852,1.14852,0,0,0,1.125-1.125,1.13608,1.13608,0,0,0-1.125-1.125,49.787,49.787,0,0,1-7.91011-.2673,1.13175,1.13175,0,0,0-1.125,1.125,1.15158,1.15158,0,0,0,1.125,1.125Z"/><path d="M151.08707,169.18123a40.85976,40.85976,0,0,0,7.30186-1.71542,1.12528,1.12528,0,1,0-.59814-2.16962c-1.12917.34554-2.25892.691-3.40273.98548a26.16315,26.16315,0,0,1-3.301.64956,1.15292,1.15292,0,0,0-1.125,1.125c.02474.55223.49881,1.19657,1.125,1.125Z"/><path d="M155.54092,182.67888a9.54863,9.54863,0,0,0,3.50751-1.59269c.51682-.33723,1.02765-.68469,1.56077-.99608.25662-.14989.51812-.29185.78684-.41894-.004.00189.26639-.12155.13544-.06406-.13027.0572.14259-.05524.13939-.054.15394-.05791.31014-.10853.46787-.155a1.12529,1.12529,0,0,0-.59814-2.16963,13.22779,13.22779,0,0,0-3.46022,1.8052,17.45831,17.45831,0,0,1-1.571.95c-.13036.06717-.26512.12537-.39582.1915-.11743.05942.1541-.0558-.04492.01925-.06062.02286-.12089.04652-.1819.06835a5.62986,5.62986,0,0,1-.94393.24657,1.12988,1.12988,0,0,0-.78574,1.38389,1.15665,1.15665,0,0,0,1.38388.78574Z"/><path d="M165.10783,192.35424c1.18833-.26165,1.76171-1.42343,2.40336-2.33072.15665-.2215.31954-.438.48138-.65567.09372-.126-.16826.21332-.002.00227.04194-.05325.08375-.10661.126-.15965q.12666-.1591.25611-.31595.53088-.64317,1.10732-1.24636a1.125,1.125,0,1,0-1.591-1.591,25.42119,25.42119,0,0,0-2.13084,2.56642c-.28653.39318-.54692.80334-.82632,1.20121-.03119.04441-.069.08789-.09688.13411.02282-.03787.152-.18483.05356-.07239a2.98738,2.98738,0,0,1-.22165.23554c-.03159.02906-.1786.15735-.03243.03218.14251-.122-.01034-.00565-.0422.0147-.12647.08074.05837-.032.09984-.03528a1.669,1.669,0,0,0-.18237.051,1.13361,1.13361,0,0,0-.78575,1.38388,1.15081,1.15081,0,0,0,1.38389.78574Z"/><path d="M178.80008,197.77239a1.33361,1.33361,0,0,1,.00551-.181q-.031.22629.01.03507.02436-.087.05665-.17142-.08349.19225-.00165.01784c.10884-.188.21388-.37667.3293-.56107.269-.4297.5205-.86878.74608-1.32292a16.20062,16.20062,0,0,0,1.13673-2.98157,1.12529,1.12529,0,0,0-2.16963-.59814,14.8791,14.8791,0,0,1-.48738,1.4971c-.01574.04068-.17153.4224-.072.18722-.05115.12088-.10468.2408-.15944.36008q-.154.33552-.32515.66285c-.51217.98031-1.32288,1.89287-1.319,3.05594a1.125,1.125,0,0,0,2.25,0Z"/><path d="M639.26776,64.16452q5.36345-.07636,10.72323.18612c1.44735.0709,1.44364-2.17928,0-2.25q-5.35757-.26246-10.72323-.18612a1.12568,1.12568,0,0,0,0,2.25Z"/><path d="M638.95088,75.5564q5.79761.50967,11.61276.77134c1.44765.06514,1.44443-2.185,0-2.25q-5.81406-.2616-11.61276-.77134a1.13374,1.13374,0,0,0-1.125,1.125,1.14847,1.14847,0,0,0,1.125,1.125Z"/><path d="M638.75536,88.678q5.20256-.15418,10.40086.19266a1.125,1.125,0,0,0,0-2.25q-5.19327-.34676-10.40086-.19266c-1.44465.04282-1.45075,2.293,0,2.25Z"/><path d="M638.62892,100.39754l10.66019-.29725a1.12569,1.12569,0,0,0,0-2.25l-10.66019.29725a1.12569,1.12569,0,0,0,0,2.25Z"/><path d="M638.7581,112.58088q4.84925.21585,9.7018-.02523a1.14907,1.14907,0,0,0,1.125-1.125,1.13582,1.13582,0,0,0-1.125-1.125q-4.84806.24106-9.7018.02523a1.125,1.125,0,0,0,0,2.25Z"/><path d="M638.69117,125.21724q4.97865-.11057,9.95883-.07677a1.12567,1.12567,0,0,0,0-2.25q-4.97974-.03379-9.95883.07677a1.12568,1.12568,0,0,0,0,2.25Z"/><path d="M639.39547,138.0298l9.63825-.07039a1.12568,1.12568,0,0,0,0-2.25l-9.63825.07039a1.12567,1.12567,0,0,0,0,2.25Z"/><path d="M639.52381,149.16443a65.23914,65.23914,0,0,0,10.01655-.21563,1.15652,1.15652,0,0,0,1.125-1.125,1.13287,1.13287,0,0,0-1.125-1.125,65.23917,65.23917,0,0,1-10.01655.21563,1.125,1.125,0,0,0,0,2.25Z"/><path d="M639.9086,161.12957a92.95476,92.95476,0,0,0,9.70037.00237,1.1494,1.1494,0,0,0,1.125-1.125,1.13566,1.13566,0,0,0-1.125-1.125,92.95476,92.95476,0,0,1-9.70037-.00237,1.125,1.125,0,0,0,0,2.25Z"/><path d="M639.65086,173.11833a110.60832,110.60832,0,0,1,11.10428-.25569,1.12569,1.12569,0,0,0,0-2.25,110.60825,110.60825,0,0,0-11.10428.25569,1.15255,1.15255,0,0,0-1.125,1.125,1.13429,1.13429,0,0,0,1.125,1.125Z"/><path d="M640.481,185.39229q4.85347.06109,9.70391-.16339a1.14859,1.14859,0,0,0,1.125-1.125,1.13606,1.13606,0,0,0-1.125-1.125q-4.84869.22446-9.70391.16339a1.12568,1.12568,0,0,0,0,2.25Z"/><path d="M659.15244,188.777l.4894,11.10732c.06355,1.44222,2.3139,1.45011,2.25,0l-.4894-11.10732c-.06355-1.44222-2.31389-1.45011-2.25,0Z"/><path d="M672.89569,188.26251c-.29094,3.69839.87785,7.30821.80263,11.00073a1.12568,1.12568,0,0,0,2.25,0c.07522-3.69252-1.09357-7.30239-.80263-11.00073a1.13451,1.13451,0,0,0-1.125-1.125,1.14741,1.14741,0,0,0-1.125,1.125Z"/><path d="M685.65553,188.24766q.18157,5.24144.64465,10.46711a1.1549,1.1549,0,0,0,1.125,1.125,1.13341,1.13341,0,0,0,1.125-1.125q-.463-5.22411-.64465-10.46711c-.05-1.44388-2.30025-1.4506-2.25,0Z"/><path d="M697.68549,188.16094a66.12015,66.12015,0,0,0,1.15772,11.17982,1.13562,1.13562,0,0,0,1.38389.78575,1.14882,1.14882,0,0,0,.78574-1.38389,62.519,62.519,0,0,1-1.07735-10.58168,1.12568,1.12568,0,0,0-2.25,0Z"/><path d="M710.47712,188.065c-.03232,3.67148,1.29047,7.17419,1.41456,10.82769.04905,1.444,2.29927,1.45062,2.25,0-.12413-3.65491-1.44681-7.1637-1.41456-10.82769a1.12568,1.12568,0,0,0-2.25,0Z"/><path d="M721.5183,187.75641a20.59928,20.59928,0,0,0,.49463,5.5909,10.01866,10.01866,0,0,1,.27858,2.44969,18.01629,18.01629,0,0,0,.0747,2.84934,1.13172,1.13172,0,0,0,1.38388.78574,1.15553,1.15553,0,0,0,.78574-1.38388,17.09173,17.09173,0,0,1,.00934-2.448,11.71886,11.71886,0,0,0-.32162-2.66732,18.95605,18.95605,0,0,1-.45525-5.17645c.07814-1.44691-2.17209-1.44257-2.25,0Z"/><path d="M803.54378,112.05668c-3.80382.15935-8.65994,2.12185-9.81466,6.11522a12.69121,12.69121,0,0,0,3.00238,11.757c3.29724,3.19889,8.01619,1.46067,11.61873-.13107a6.41713,6.41713,0,0,0,3.88027-3.97855,11.055,11.055,0,0,0,.15529-6.12879,14.74194,14.74194,0,0,0-1.61784-3.08529,12.02212,12.02212,0,0,0-2.13927-2.69782,6.72366,6.72366,0,0,0-2.73176-1.52313c-.70681-.18159-1.34342-.15517-2.05407-.28734-1.41537-.26326-2.0221,1.90478-.59814,2.16962a8.678,8.678,0,0,1,3.14568.75884,9.935,9.935,0,0,1,3.033,3.71178,6.53571,6.53571,0,0,1,.94258,2.13217,10.60164,10.60164,0,0,1,.01426,2.5106,4.45433,4.45433,0,0,1-1.86074,3.813,19.14276,19.14276,0,0,1-4.54909,1.9085,6.51628,6.51628,0,0,1-4.65293-.06232,6.85414,6.85414,0,0,1-2.90883-3.807,11.21035,11.21035,0,0,1-.76544-5.03529,5.249,5.249,0,0,1,2.711-4.271,10.45956,10.45956,0,0,1,5.18965-1.61912C804.9864,114.24625,804.994,111.99593,803.54378,112.05668Z"/><path d="M782.94342,135.608c-3.80382.15934-8.65994,2.12185-9.81467,6.11521a12.69121,12.69121,0,0,0,3.00239,11.757c3.29724,3.19889,8.01619,1.46068,11.61873-.13106a6.41716,6.41716,0,0,0,3.88026-3.97855,11.055,11.055,0,0,0,.15529-6.12879,14.74147,14.74147,0,0,0-1.61784-3.08529,12.02155,12.02155,0,0,0-2.13927-2.69782,6.72356,6.72356,0,0,0-2.73175-1.52313c-.70681-.18159-1.34342-.15517-2.05407-.28735-1.41538-.26325-2.0221,1.90478-.59814,2.16963a8.678,8.678,0,0,1,3.14567.75884,9.93507,9.93507,0,0,1,3.033,3.71178,6.53552,6.53552,0,0,1,.94257,2.13216,10.6012,10.6012,0,0,1,.01427,2.51061,4.45433,4.45433,0,0,1-1.86075,3.813,19.14218,19.14218,0,0,1-4.54909,1.9085,6.51623,6.51623,0,0,1-4.65293-.06232,6.85423,6.85423,0,0,1-2.90883-3.807,11.21044,11.21044,0,0,1-.76543-5.03528,5.249,5.249,0,0,1,2.711-4.271,10.45966,10.45966,0,0,1,5.18966-1.61911C784.386,137.79758,784.39366,135.54726,782.94342,135.608Z"/><path d="M783.9838,167.40092c-3.3771.14148-7.65688,1.88737-8.68075,5.4282a11.19058,11.19058,0,0,0,2.65,10.372c2.92426,2.837,7.08674,1.32265,10.28666-.0912a5.71758,5.71758,0,0,0,3.44342-3.54911,9.77227,9.77227,0,0,0,.13512-5.41042,12.95434,12.95434,0,0,0-1.42243-2.71945,10.59982,10.59982,0,0,0-1.88426-2.377,6.00973,6.00973,0,0,0-2.44141-1.36287c-.68169-.17513-1.12066-.126-1.78727-.25-1.41537-.26325-2.02209,1.90478-.59813,2.16963a7.48848,7.48848,0,0,1,2.70218.64554,8.493,8.493,0,0,1,2.5866,3.17724,5.52135,5.52135,0,0,1,.80541,1.82031,9.21429,9.21429,0,0,1,.0072,2.14566,3.72618,3.72618,0,0,1-1.54668,3.19156,16.50918,16.50918,0,0,1-3.92331,1.64587,5.53856,5.53856,0,0,1-3.936-.03949,5.80348,5.80348,0,0,1-2.46385-3.22516,9.62969,9.62969,0,0,1-.6608-4.34241,4.41286,4.41286,0,0,1,2.28646-3.59007,8.9513,8.9513,0,0,1,4.44182-1.38887C785.42643,169.59049,785.43405,167.34017,783.9838,167.40092Z"/><path d="M362.58584,104.17208a188.80815,188.80815,0,0,0,31.61961-.20742c1.43036-.12964,1.444-2.38087,0-2.25a188.80815,188.80815,0,0,1-31.61961.20742c-1.44394-.1118-1.43671,2.13876,0,2.25Z"/><path d="M371.57829,83.61505A78.238,78.238,0,0,0,378.77446,89.84a1.12281,1.12281,0,0,0,1.3633-.17591,62.425,62.425,0,0,1,5.89367-5.79966c1.09889-.94665-.49857-2.53206-1.591-1.591a62.425,62.425,0,0,0-5.89367,5.79966l1.3633-.17591a73.60135,73.60135,0,0,1-6.74079-5.8731c-1.03463-1.0147-2.62692.575-1.591,1.591Z"/><path d="M360.62073,181.65094c11.7045-.0601,23.39381.581,35.07585,1.23171,1.44675.08059,1.4422-2.16967,0-2.25-11.68205-.65073-23.37135-1.29181-35.07585-1.23171a1.12567,1.12567,0,0,0,0,2.25Z"/><path d="M371.63469,103.81067c-1.07232,9.81918-.66359,19.69811-.1513,29.53871.51629,9.91759.79127,19.75369.48382,29.6829a123.3502,123.3502,0,0,0,.31285,16.7284c.1498,1.42547,2.40141,1.44083,2.25,0-1.0397-9.89349.04624-19.84674-.10672-29.76437-.15236-9.879-1.03217-19.73045-1.19626-29.609a132.36705,132.36705,0,0,1,.65761-16.57659c.157-1.43744-2.09424-1.42632-2.25,0Z"/><path d="M383.02422,103.9341q.93146,15.03252.93,30.10213c-.00621,10.03112-.59505,20.04124-.70506,30.06816a114.849,114.849,0,0,0,.92811,16.95725c.19669,1.42809,2.365.82019,2.16962-.59814-1.36457-9.90743-.78522-19.93848-.43887-29.89352q.51932-14.92632.11856-29.86459-.22887-8.39164-.75238-16.77129c-.08913-1.43838-2.33976-1.44848-2.25,0Z"/><path d="M1049.60065,178.39351q5.66388-3.31771,11.1768-6.88331c1.21167-.78369.085-2.7323-1.13562-1.94281q-5.51167,3.56484-11.1768,6.88331a1.12584,1.12584,0,0,0,1.13562,1.94281Z"/><path d="M1104.346,117.97918c1.39755-.4242,2.83331-.65778,4.26124-.95157,1.494-.30737,2.9524-.7432,4.4226-1.14455a62.95769,62.95769,0,0,1,8.685-1.5643,1.163,1.163,0,0,0,1.125-1.125,1.13065,1.13065,0,0,0-1.125-1.125,67.51222,67.51222,0,0,0-8.956,1.55613c-1.4724.39349-2.92943.8442-4.42058,1.16448-1.535.32969-3.085.56326-4.59039,1.02018-1.38179.41941-.79282,2.59182.59814,2.16963Z"/><path d="M472.77547,178.91031a42.19917,42.19917,0,0,1,6.7757-9.61394,41.05,41.05,0,0,1,4.18616-3.85878c1.46074-1.16933,3.16253-2.492,5.06892-1.47158,1.52731.81752,2.43172,2.53649,3.08633,4.07325a12.42087,12.42087,0,0,1,1.07284,5.22843,6.5365,6.5365,0,0,1-2.04841,4.72184,10.24557,10.24557,0,0,1-5.16733,2.12337,22.93961,22.93961,0,0,1-6.59075.067,18.40457,18.40457,0,0,1-3.26641-.63816c-1.14191-.35739-2.21268-.91743-3.32485-1.3545l.67234.517-.46454-.92954c-.64738-1.2954-2.5889-.1572-1.94281,1.13562.26786.536.44764,1.0977,1.0025,1.38984a20.448,20.448,0,0,0,3.63466,1.46264,24.99938,24.99938,0,0,0,7.41092.85421c4.42975-.09941,9.64735-1.32857,11.57249-5.80164,1.72755-4.014.38294-9.16333-2.1059-12.584a6.1945,6.1945,0,0,0-5.62007-2.86278c-2.24607.28485-4.13033,2.04829-5.77505,3.4717a43.6335,43.6335,0,0,0-10.11955,12.9344C470.16812,179.05885,472.109,180.19814,472.77547,178.91031Z"/><path d="M569.79674,181.83042a42.19948,42.19948,0,0,1,6.7757-9.61394,41.05,41.05,0,0,1,4.18617-3.85877c1.46074-1.16934,3.16252-2.492,5.06891-1.47159,1.52732.81752,2.43172,2.53649,3.08634,4.07325a12.421,12.421,0,0,1,1.07284,5.22843,6.5366,6.5366,0,0,1-2.04841,4.72185A10.24568,10.24568,0,0,1,582.771,183.033a22.94,22.94,0,0,1-6.59075.067,18.40575,18.40575,0,0,1-3.26642-.63816c-1.1419-.35739-2.21267-.91744-3.32484-1.35451l.67233.517-.46454-.92955c-.64737-1.2954-2.58889-.1572-1.94281,1.13562.26786.536.44764,1.09771,1.00251,1.38985a20.44693,20.44693,0,0,0,3.63466,1.46263,24.99931,24.99931,0,0,0,7.41091.85421c4.42975-.09941,9.64736-1.32857,11.57249-5.80163,1.72756-4.014.38295-9.16333-2.10589-12.584a6.19452,6.19452,0,0,0-5.62008-2.86277c-2.24606.28485-4.13033,2.04829-5.775,3.47169a43.63366,43.63366,0,0,0-10.11956,12.9344C567.1894,181.979,569.13031,183.11825,569.79674,181.83042Z"/><path d="M537.88444,27.7436c-.73086,1.39295-1.97553,3.16429-1.48283,4.822a3.09723,3.09723,0,0,0,2.56668,2.22771,3.336,3.336,0,0,0,2.199-.36745,3.54614,3.54614,0,0,0,.88412-.70437c.09838-.10839.17824-.23712.26795-.35251q.14373-.19722.29431-.38931l-.24577.19129c.258,1.89637-.00248,3.79946.2481,5.69523a8.158,8.158,0,0,0,2.45,4.63645c1.181,1.2118,2.82949,2.46977,4.63122,1.9623,1.56043-.43951,2.31263-1.95384,2.78971-3.36839.22346-.66256.46625-2.11147,1.37119-2.04567.9258.06731,1.33158,1.54057,1.54844,2.226,1.02776,3.24862,1.186,9.29916,6.11166,8.58276,1.4275-.20762.82052-2.376-.59813-2.16963-2.27.33016-2.5039-3.75817-2.83248-5.15391-.41418-1.75941-.909-4.04419-2.50659-5.135a2.98807,2.98807,0,0,0-4.30452.78312c-.88267,1.33233-1.12942,5.28984-3.50774,3.71259a6.53954,6.53954,0,0,1-2.9956-5.57531c.00257-1.79085.48768-4.26234-.785-5.76145a1.99585,1.99585,0,0,0-1.97267-.7464c-.9651.21842-1.10674,1.11865-1.8338,1.58968a1.05755,1.05755,0,0,1-1.64911-.54831c-.15716-.88264.9046-2.23261,1.29459-2.97589.67214-1.281-1.26907-2.4197-1.94281-1.13562Z"/><path d="M544.03454,55.56468l13.10678.58692c1.44765.06483,1.44446-2.18531,0-2.25l-13.10678-.58692c-1.44766-.06483-1.44447,2.18531,0,2.25Z"/><path d="M539.01494,67.429c8.044-.205,16.09252-.09113,24.13657-.29614a1.12569,1.12569,0,0,0,0-2.25c-8.04405.205-16.09253.09114-24.13657.29614a1.12569,1.12569,0,0,0,0,2.25Z"/><path d="M445.775,54.5919c5.1163.22633,10.238.30436,15.35434.53069,1.44769.064,1.44457-2.1861,0-2.25-5.11631-.22633-10.238-.30436-15.35434-.53069-1.44769-.06405-1.44457,2.18609,0,2.25Z"/><path d="M442.5941,64.21275c7.38749-.18293,14.77542.18293,22.16292,0a1.12569,1.12569,0,0,0,0-2.25c-7.3875.18292-14.77542-.18293-22.16292,0a1.12569,1.12569,0,0,0,0,2.25Z"/><path d="M874.911,161.88709a34.10384,34.10384,0,0,0-5.75024,7.64462,1.13605,1.13605,0,0,0,.9714,1.69281c2.20375-.02225,4.06206-1.5077,5.8721-2.60263l6.31674-3.82113-1.3633-1.7669-11.29068,13.834c-.7661.93868.18938,2.45714,1.36331,1.7669,3.01157-1.77073,5.79185-3.93469,8.62331-5.97387l9.10739-6.559-1.36331-1.7669a126.08154,126.08154,0,0,1-21.19639,19.47034c-.95643.694-.43673,2.4898.86688,2.05622a20.345,20.345,0,0,0,6.94769-4.36191c2.27028-2.00362,4.48249-4.05395,6.855-5.94a96.01963,96.01963,0,0,1,15.7816-10.14416l-1.3633-1.7669c-8.38306,9.98412-18.6888,18.03807-28.9333,26.002-.84411.6562-.06194,1.858.79549,1.9205,1.52945.11153,2.69564-.93991,3.86676-1.77663l4.22628-3.01952,8.6538-6.18282,17.30759-12.36564-1.53921-1.53921c-1.9595,3.21651-5.35858,5.68076-8.239,8.03333-3.06956,2.507-6.25513,4.86739-9.47624,7.175-6.321,4.52845-12.77411,8.87049-18.92219,13.63631a1.13449,1.13449,0,0,0,.79549,1.9205c3.49654-.3682,6.41734-2.36427,9.40156-4.06518q4.9392-2.8152,9.94329-5.51441,10.00749-5.39844,20.25976-10.32387l-1.3633-1.7669q-14.87724,11.62391-30.56613,22.15159a1.135,1.135,0,0,0,.56781,2.0964c2.49544.1441,4.69812-1.46572,6.77474-2.63626l7.30322-4.11666,14.60644-8.23333-1.36331-1.7669-12.72631,11.61938a1.14135,1.14135,0,0,0,.22768,1.76689,2.90328,2.90328,0,0,0,2.93789.067c1.36437-.56207,2.6983-1.21115,4.043-1.81873l8.65868-3.9122-1.3633-1.7669a85.00224,85.00224,0,0,0-7.26779,6.70981c-1.00534,1.04276.58366,2.63583,1.591,1.591a85.004,85.004,0,0,1,7.26779-6.70981c1.06244-.87211-.29269-2.25063-1.3633-1.7669l-6.88255,3.1097-3.33026,1.50469c-.65784.29723-2.492,1.54289-3.15557,1.04954l.22769,1.7669,12.72631-11.61938c.9596-.87614-.26819-2.38419-1.3633-1.7669l-13.74724,7.749-6.87362,3.87451c-1.14552.64571-2.28726,1.29874-3.43681,1.93726a6.32956,6.32956,0,0,1-3.49111,1.11828l.56781,2.09641q15.91276-10.688,31.0215-22.50341c1.06626-.83309-.29079-2.28285-1.36331-1.7669q-9.81059,4.71958-19.40761,9.86533-4.68939,2.51713-9.32276,5.1369c-2.9898,1.69047-6.23424,4.225-9.73862,4.594l.7955,1.92049c6.35235-4.92417,13.05511-9.36875,19.56618-14.07545,3.12238-2.2571,6.20393-4.57467,9.18081-7.02146,2.93749-2.41442,6.23871-4.91426,8.2423-8.20314.558-.91588-.6002-2.21011-1.53921-1.53922l-16.5026,11.7905-8.05,5.75146-4.22628,3.01951-2.01251,1.43787c-.63019.45025-1.309,1.09775-2.12739,1.03808l.7955,1.92049c10.2445-7.964,20.55024-16.01789,28.9333-26.002a1.13029,1.13029,0,0,0-1.36331-1.7669,98.5544,98.5544,0,0,0-15.1892,9.67509c-2.313,1.79041-4.5249,3.69329-6.68607,5.66318-2.14974,1.95948-4.36217,3.94659-7.1715,4.881l.86688,2.05622A128.52065,128.52065,0,0,0,888.98867,165.926c.77921-.8988-.25986-2.56159-1.36331-1.7669l-9.10739,6.559c-2.83134,2.0391-5.61185,4.20321-8.62331,5.97387l1.3633,1.7669,11.29068-13.834c.761-.93246-.19391-2.4743-1.36331-1.7669l-5.50168,3.32809q-1.32447.8012-2.649,1.60241a5.85927,5.85927,0,0,1-2.90258,1.18607l.97141,1.69281a31.927,31.927,0,0,1,5.39842-7.18925,1.12564,1.12564,0,0,0-1.591-1.591Z"/><path d="M444.54089,20.98657a12.97048,12.97048,0,0,0-3.024,5.90956,2.56954,2.56954,0,0,0,2.89349,3.01332,5.78091,5.78091,0,0,0,4.24946-2.57218,4.41926,4.41926,0,0,0,.34167-.70615l-.47008-.142q-.644-.3688-.41755-.05242c-.056.12378.1853.68874.20484.85925a19.64474,19.64474,0,0,1-.06615,2.80556c-.09126,2.77715-.26605,5.566-.26577,8.34462a7.54854,7.54854,0,0,0,2.25512,5.6564c1.36317,1.33533,3.188,2.22814,5.03987,1.287,2.00925-1.02111,2.59179-3.13239,3.3957-5.0563l.10769-.26614q.45292-.452-.06755-.45946-.558-.22653.04309.26259l.18753.31289a4.78612,4.78612,0,0,1,.447,1.96354c.07552,1.29142-.0898,2.57825.09773,3.86581.31752,2.17993,1.78854,4.12854,4.11524,4.22441,1.44788.05965,1.44514-2.19046,0-2.25-2.36971-.09764-1.9456-3.69546-1.95219-5.23691a6.5607,6.5607,0,0,0-1.47512-4.66888c-1.4639-1.48931-2.85161-.30008-3.50875,1.24823-.55932,1.31784-1.3066,4.61512-3.35584,4.184a4.41868,4.41868,0,0,1-2.15722-1.75589,5.05369,5.05369,0,0,1-.92019-3.08434c-.03221-2.35614.13737-4.72912.21476-7.08411.043-1.30943.99021-7.68814-2.04436-7.17063-.86829.14808-1.22278.90786-1.60706,1.60534a3.43282,3.43282,0,0,1-1.94531,1.50078c-.46718.15657-.85322.31236-1.0468-.15-.21948-.52416.27579-1.22189.488-1.69614a13.38727,13.38727,0,0,1,1.83372-3.1008c.911-1.111-.67191-2.71184-1.591-1.591Z"/><path d="M1048.26976,167.42851c.24619.00986-.07616-.05439.03283.01011.0761.045.20116.07.05033.00677.15974.067.31545.14445.47434.21354.387.16828.77774.32852,1.17583.46879a12.30442,12.30442,0,0,0,2.08948.56,1.4552,1.4552,0,0,0,1.59229-.65848c.18827-.28388.35193-.58861.51451-.88771a21.819,21.819,0,0,0,1.0132-2.172,1.12816,1.12816,0,0,0-.78574-1.38389,1.15955,1.15955,0,0,0-1.38389.78575c-.02783.06806-.05713.14077-.011.03049-.03475.083-.07121.16537-.10766.24765q-.08751.19752-.17957.393-.20712.43977-.43688.86834-.2169.40458-.45344.79825a1.79347,1.79347,0,0,0-.11238.1845c.25862-.5848,1.21477-.31787.68311-.42793q-.23854-.04938-.4753-.10692a14.1187,14.1187,0,0,1-1.75481-.55089c-.08415-.03257-.16745-.06725-.25141-.10028-.17055-.06711.136.0637-.03037-.01318q-.21133-.09766-.42473-.19187a3.218,3.218,0,0,0-1.21878-.32407,1.13353,1.13353,0,0,0-1.125,1.125,1.14866,1.14866,0,0,0,1.125,1.125Z"/></svg>