<svg xmlns="http://www.w3.org/2000/svg" data-name="Layer 1" viewBox="0 0 1133 208"><path d="M149.484 158.139q0-.539.008-1.076c.395-23.968 14.903-51.355 40.65-55.139a34.511 34.511 0 0 1 26.08 6.565 4.115 4.115 0 0 1 1.844 2.576 4.374 4.374 0 0 1-.726 2.407l-4.422 8.318a6.857 6.857 0 0 1-1.817 2.448c-1.836 1.34-4.37.572-6.603.145-7.816-1.495-16.036 2.242-21.252 8.252s-7.735 13.97-8.556 21.885c-.523 5.037-.373 10.31 1.755 14.905 3.958 8.55 14.476 12.917 23.743 11.212 2.295-.422 4.67-1.157 6.908-.496 2.45.723 4.138 2.967 5.268 5.258a23.72 23.72 0 0 1 2.166 6.874 5.5 5.5 0 0 1-.34 3.554c-.874 1.539-2.828 2.022-4.571 2.33-8.781 1.558-17.794 2.448-26.612 1.11s-17.486-5.071-23.53-11.63c-7.2-7.817-9.984-18.842-9.993-29.498Z" style="fill:#eab0e4"/><path d="M276.69 186c-.57 2.44-1.54 5.21-3.92 6.01-2.09.69-4.43-.58-5.66-2.41a14.774 14.774 0 0 1-1.88-6.28 113.402 113.402 0 0 1-1.25-14.25 12.826 12.826 0 0 0-.36-3.56 3.38 3.38 0 0 0-6.36-.87 10.49 10.49 0 0 0-1.39 4.51 12.455 12.455 0 0 1-1.23 4.56 2.94 2.94 0 0 1-1.93 1.56c-1.45.22-2.58-1.21-3.29-2.5-2.24-4.11-2.64-7.91-2.97-13.44.21-14.77.48-29.55.9-44.32.17-5.99 1.6-8.28 7.25-9.92a60.73 60.73 0 0 1 17.73-2.39 2.93 2.93 0 0 1 1.82.44 3.062 3.062 0 0 1 .83 2.29q.436 6.06.86 12.12a.66.66 0 0 0 .01.14 45.902 45.902 0 0 1 32.56-14.5 29.117 29.117 0 0 1 12.22 2.14 17.2 17.2 0 0 1 8.9 8.37c2.08 4.6 1.55 9.91.98 14.93l-1.59 13.96a1.17 1.17 0 0 1-1.77 1.22c-6.73-2.02-13.15-5.38-20.15-6-9.35-.84-18.45 3.32-26.29 8.49a10.18 10.18 0 0 0-3 2.65c-1.33 1.99-1.17 4.58-1 6.96a214.308 214.308 0 0 1-.01 30.09Z" style="fill:#8195d2"/><path d="M276.69 186h.01q-.314 4.53-.82 9.03a4.786 4.786 0 0 1-1.23 3.24 4.733 4.733 0 0 1-2.71.82 205.068 205.068 0 0 1-22.17.8c-1.31-.02-2.86-.2-3.48-1.36a3.862 3.862 0 0 1-.29-1.82q.196-18.69.45-37.38c.33 5.53.73 9.33 2.97 13.44.71 1.29 1.84 2.72 3.29 2.5a2.94 2.94 0 0 0 1.93-1.56 12.455 12.455 0 0 0 1.23-4.56 10.49 10.49 0 0 1 1.39-4.51 3.38 3.38 0 0 1 6.36.87 12.826 12.826 0 0 1 .36 3.56 113.402 113.402 0 0 0 1.25 14.25 14.774 14.774 0 0 0 1.88 6.28c1.23 1.83 3.57 3.1 5.66 2.41 2.38-.8 3.35-3.57 3.92-6.01Z" style="fill:#badeb8"/><path d="M396.95 159.03c.24 3.48.01 6.99-.03 10.48-.04 4.06-.16 8.12-.15 12.19v.05l-1.07.01c-3.49-.19-6.97-.39-10.46-.56l.02-.44c-1.46-10.38-.78-20.94-.44-31.42q.75-22.695-.67-45.41l-.02-.44c3.36-.13 6.72-.34 10.07-.65l1.12-.47c.96 1.82.8 4.02.89 6.04.1 2.38-.23 4.78-.3 7.17-.08 2.71-.1 5.43-.12 8.14-.02 3.51-.08 7.01 0 10.52.08 3.26.42 6.52.46 9.78.05 5.02.36 10.01.7 15.01Z" style="fill:#fef0a5"/><path d="M396.97 193.89a16.635 16.635 0 0 1-.44 3.79 4.62 4.62 0 0 1-5.34 3.93c-4.67-.5-9.36-.89-14.05-1.2-4.44-.3-7.43-.26-11.88-.51-1.39-.08-3.72.39-4.55-1.1a3.585 3.585 0 0 1-.45-1.9c.33-6.59.39-11.6.45-16.37 4.22-.02 8.44.05 12.66.18 3.96.11 7.91.29 11.87.49 3.49.17 6.97.37 10.46.56l1.07-.01c.01 4.04.19 8.1.2 12.14Z" style="fill:#eab0e4"/><path d="m395.11 102.01.21.36-1.12.47c-3.35.31-6.71.52-10.07.65-3.79.15-7.57.17-11.36.07-3.4-.07-6.79-.24-10.19-.51l-.4-.02c.18-.3.4-.58.57-.87a12.998 12.998 0 0 0 .79-1.15c1.4-2.86 2.89-5.68 4.13-8.61.46-1.08 2.29-5.15 4.35-9.74l.35.16a75.522 75.522 0 0 0 6.97 6.05 59.829 59.829 0 0 1 5.9-5.8l.67-.29c3.2 7.49 6.49 15.07 7.23 16.36.57 1.01 1.36 1.88 1.97 2.87Z" style="fill:#fff"/><path d="m385.91 82.78-.67.29a59.829 59.829 0 0 0-5.9 5.8 75.522 75.522 0 0 1-6.97-6.05l-.35-.16c3.28-7.24 7.15-15.75 7.15-15.75s3.32 7.88 6.74 15.87Z" style="fill:#8195d2"/><path d="m385.26 180.76-.02.44c-3.96-.2-7.91-.38-11.87-.49l.03-.95c-.92-8.49-.15-17.06-.09-25.6.14-16.8-2.42-33.65-.55-50.35l.01-.25c3.79.1 7.57.08 11.36-.07l.02.44q1.41 22.68.67 45.41c-.34 10.48-1.02 21.04.44 31.42Z" style="fill:#fef0a5"/><path d="m373.4 179.76-.03.95c-4.22-.13-8.44-.2-12.66-.18.08-5.6.15-10.85.64-17.88.37-5.29.05-15.35.44-20.57.37-4.95-.52-9.81-.42-14.73.13-6.22-.01-12.45.02-18.68a32.862 32.862 0 0 1 .41-4.75 2.4 2.4 0 0 1 .38-.89l.4.02c3.4.27 6.79.44 10.19.51l-.01.25c-1.87 16.7.69 33.55.55 50.35-.06 8.54-.83 17.11.09 25.6Zm752.08-21.49c.62 4.7.99 9.12-.75 13.53-2.68 6.8-6.13 13.93-11.61 18.77-7.62 6.74-20.17 9.49-30.31 8.76-10.14-.74-19.85-5.1-27.72-11.53-2.46-2.02-4.83-4.32-6.06-7.27a12.578 12.578 0 0 1-.87-2.97l.87-.14q5.67-3.315 11.18-6.88l.87-.82c2.81 2.53 2.35 2.45 5.97 5.46a27.588 27.588 0 0 0 37.88-2.42c3.1-3.33 5.36-8.46 2.98-12.33a11.766 11.766 0 0 0-4.2-3.65c-13.94-8.36-30.74-11.06-44.5-19.71-5.14-3.23-10-7.58-11.77-13.4-3.23-10.65 4.51-19.59 12.57-24.95 7.31-4.85 16.83-7.29 25.61-7.64a41.918 41.918 0 0 1 6.23.22c12.94 1.46 25.15 9.88 30.43 21.62l-.57.27a69.132 69.132 0 0 0-7.83 1.31c-1.65.4-3.26.93-4.92 1.3-1.63.37-3.31.59-4.91 1.09l-.1.06a22.162 22.162 0 0 0-28.44-8.41c-2.88 1.37-5.67 3.72-6.05 6.88a8.099 8.099 0 0 0 2.78 6.63 21.024 21.024 0 0 0 6.42 3.73c11.57 4.88 24.05 8.05 34.41 15.16 6.03 4.14 11.45 10.07 12.41 17.33Z" style="fill:#fef0a5"/><path d="M1124.21 118.56c.28 1.17.41 2.6-.5 3.38a3.466 3.466 0 0 1-1.69.62l-11.12 2.01a4.887 4.887 0 0 1-2.15.07c-1.66-.45-2.33-2.37-2.95-3.98a20.387 20.387 0 0 0-1.85-3.71l.1-.06c1.6-.5 3.28-.72 4.91-1.09 1.66-.37 3.27-.9 4.92-1.3a69.132 69.132 0 0 1 7.83-1.31l.57-.27a30.508 30.508 0 0 1 1.93 5.64Z" style="fill:#eab0e4"/><path d="m1061.08 169.72-.87.82q-5.504 3.57-11.18 6.88l-.87.14c-.4-2.4.05-4.43-.02-7.58-.03-1.46-.05-2.79-.05-3.98h.15c1.55.67 2.84 1.16 4.43 1.72.38-1.26.7-2.54.98-3.83l.37-.41c2.58 2.28 5.15 4.56 5.63 4.98.56.48 1.03.9 1.43 1.26Z" style="fill:#fff"/><path d="M1048.22 158.32s2.91 2.58 5.8 5.16l-.37.41c-.28 1.29-.6 2.57-.98 3.83-1.59-.56-2.88-1.05-4.43-1.72h-.15c-.03-5.06.13-7.68.13-7.68Zm-80.53 27.3c-.57 2.44-1.54 5.21-3.92 6.01-2.09.69-4.43-.58-5.65-2.41a14.646 14.646 0 0 1-1.89-6.28 113.402 113.402 0 0 1-1.25-14.25 12.113 12.113 0 0 0-.36-3.56 3.38 3.38 0 0 0-6.36-.87 10.628 10.628 0 0 0-1.39 4.51 12.262 12.262 0 0 1-1.23 4.56 2.918 2.918 0 0 1-1.93 1.56c-1.45.22-2.58-1.21-3.28-2.5-2.25-4.1-2.65-7.9-2.98-13.41v-.03q.316-22.155.91-44.32c.17-5.99 1.59-8.28 7.24-9.92a60.73 60.73 0 0 1 17.73-2.39 2.913 2.913 0 0 1 1.82.44 3.062 3.062 0 0 1 .83 2.29q.436 6.06.86 12.12c0 .05.01.09.01.14a45.902 45.902 0 0 1 32.56-14.5 29.09 29.09 0 0 1 12.22 2.14 17.2 17.2 0 0 1 8.9 8.37c2.08 4.6 1.55 9.91.98 14.93l-1.59 13.96a1.17 1.17 0 0 1-1.77 1.22c-6.73-2.02-13.15-5.38-20.15-6-9.35-.84-18.45 3.32-26.29 8.49a10.18 10.18 0 0 0-3 2.65c-1.32 1.99-1.17 4.58-1 6.96a214.308 214.308 0 0 1-.01 30.09Z" style="fill:#8195d2"/><path d="M967.69 185.62h.01q-.314 4.53-.82 9.03a4.786 4.786 0 0 1-1.23 3.24 4.71 4.71 0 0 1-2.71.82 205.068 205.068 0 0 1-22.17.8c-1.31-.02-2.86-.2-3.48-1.36a3.737 3.737 0 0 1-.28-1.82q.196-18.675.44-37.35c.33 5.51.73 9.31 2.98 13.41.7 1.29 1.83 2.72 3.28 2.5a2.918 2.918 0 0 0 1.93-1.56 12.262 12.262 0 0 0 1.23-4.56 10.628 10.628 0 0 1 1.39-4.51 3.38 3.38 0 0 1 6.36.87 12.113 12.113 0 0 1 .36 3.56 113.402 113.402 0 0 0 1.25 14.25 14.646 14.646 0 0 0 1.89 6.28c1.22 1.83 3.56 3.1 5.65 2.41 2.38-.8 3.35-3.57 3.92-6.01Z" style="fill:#badeb8"/><path d="M849.89 117c5.26 9.14 5.13 21.64-1.79 29.6-4.75 5.46-11.96 8.23-19.11 9.36-6.18.99-12.46.9-18.72 1.14-.98.04-1.96.09-2.94.14a13.719 13.719 0 0 0-5.01.99 5.038 5.038 0 0 0-3.03 3.87c-.17 2.01 1.29 3.81 2.88 5.06 3.63 2.87 8.23 4.15 12.56 5.82 4.33 1.66 8.74 4 10.95 8.08a11.91 11.91 0 0 1-3.89 15.14c-2.59 1.67-5.73 2.22-8.79 2.64-9.75 1.35-19.89 1.72-29.26-1.3-9.37-3.03-17.92-9.93-20.85-19.33-1.39-4.49-1.46-9.26-1.89-13.94-.63-6.89-2.05-13.79-1.33-20.67 1.49-14.09 11.71-29.79 23.59-37.27a54.4 54.4 0 0 1 41.38-6.93c10.24 2.51 20 8.45 25.25 17.6Zm-38.34 5.43a8.196 8.196 0 0 0-.17-2.16 8.06 8.06 0 0 0-.99-2.1 14.257 14.257 0 0 0-2.36-3.28 5.019 5.019 0 0 0-3.63-1.55l-.86-.16a11.394 11.394 0 0 0-6.79 2.52 5.275 5.275 0 0 0-2.17 3.9 12.344 12.344 0 0 0 1.66 7.84 7.12 7.12 0 0 0 1.82 2.15 6.338 6.338 0 0 0 4.64.95 18.835 18.835 0 0 0 4.59-1.5 7.777 7.777 0 0 0 2.91-1.79c1.14-1.27 1.31-3.12 1.35-4.82Zm-20.6 54.14a6.963 6.963 0 0 0-.15-1.88 7.047 7.047 0 0 0-.86-1.82 12.432 12.432 0 0 0-2.05-2.86 4.368 4.368 0 0 0-3.16-1.35l-.75-.13a9.932 9.932 0 0 0-5.91 2.18 5.56 5.56 0 0 0-1.19 1.28 5.249 5.249 0 0 0-.69 2.12 10.68 10.68 0 0 0 1.44 6.82 6.132 6.132 0 0 0 1.59 1.88 5.502 5.502 0 0 0 4.03.82 16.443 16.443 0 0 0 4-1.31 6.788 6.788 0 0 0 2.53-1.55 6.476 6.476 0 0 0 1.17-4.2Zm-.01-30.59a7.792 7.792 0 0 0-.16-2.16 8.06 8.06 0 0 0-.99-2.1 14.475 14.475 0 0 0-2.36-3.28 5.019 5.019 0 0 0-3.63-1.55l-.86-.16a11.394 11.394 0 0 0-6.79 2.52 6.178 6.178 0 0 0-1.37 1.47 6.068 6.068 0 0 0-.8 2.43 12.344 12.344 0 0 0 1.66 7.84 7 7 0 0 0 1.82 2.15 6.338 6.338 0 0 0 4.64.95 18.835 18.835 0 0 0 4.59-1.5 7.885 7.885 0 0 0 2.91-1.78c1.14-1.28 1.3-3.13 1.34-4.83Z" style="fill:#eab0e4"/><path d="M811.38 120.27a8.196 8.196 0 0 1 .17 2.16c-.04 1.7-.21 3.55-1.35 4.82a7.777 7.777 0 0 1-2.91 1.79 18.835 18.835 0 0 1-4.59 1.5 6.338 6.338 0 0 1-4.64-.95 7.12 7.12 0 0 1-1.82-2.15 12.344 12.344 0 0 1-1.66-7.84 5.275 5.275 0 0 1 2.17-3.9 11.394 11.394 0 0 1 6.79-2.52l.86.16a5.019 5.019 0 0 1 3.63 1.55 14.257 14.257 0 0 1 2.36 3.28 8.06 8.06 0 0 1 .99 2.1Zm-20.58 54.42a6.963 6.963 0 0 1 .15 1.88 6.476 6.476 0 0 1-1.17 4.2 6.788 6.788 0 0 1-2.53 1.55 16.443 16.443 0 0 1-4 1.31 5.502 5.502 0 0 1-4.03-.82 6.132 6.132 0 0 1-1.59-1.88 10.68 10.68 0 0 1-1.44-6.82 5.249 5.249 0 0 1 .69-2.12 5.56 5.56 0 0 1 1.19-1.28 9.932 9.932 0 0 1 5.91-2.18l.75.13a4.368 4.368 0 0 1 3.16 1.35 12.432 12.432 0 0 1 2.05 2.86 7.047 7.047 0 0 1 .86 1.82Zm-.02-30.87a7.792 7.792 0 0 1 .16 2.16c-.04 1.7-.2 3.55-1.34 4.83a7.885 7.885 0 0 1-2.91 1.78 18.835 18.835 0 0 1-4.59 1.5 6.338 6.338 0 0 1-4.64-.95 7 7 0 0 1-1.82-2.15 12.344 12.344 0 0 1-1.66-7.84 6.068 6.068 0 0 1 .8-2.43 6.178 6.178 0 0 1 1.37-1.47 11.394 11.394 0 0 1 6.79-2.52l.86.16a5.019 5.019 0 0 1 3.63 1.55 14.475 14.475 0 0 1 2.36 3.28 8.06 8.06 0 0 1 .99 2.1Z" style="fill:#fff"/><path d="M733.19 173.91a109.905 109.905 0 0 1 .22 22.43 3.32 3.32 0 0 1-.83 2.3 3.364 3.364 0 0 1-2.23.57l-87.83 1.53a2.269 2.269 0 0 1-1.74-.46 2.243 2.243 0 0 1-.42-1.48c-1.78-45.72-3.55-91.51-1.49-137.22.19-4.26-.08-11.92 4.69-13.63 5.97-2.15 14.6-1.17 20.73-.24 1.31.2 2.76.53 3.49 1.64a4.879 4.879 0 0 1 .56 2.51c1.7 40.04-4.38 80.12-2.46 120.14h.11q31.396-1.5 62.84-1.54c1.29 0 2.77.08 3.6 1.07a4.451 4.451 0 0 1 .76 2.38Z" style="fill:#fef0a5"/><path d="M608.85 156.35c2.43 6.09 4.29 12.39 3.8 19.1a58.198 58.198 0 0 1-.77 8.06c-.82 3.79-2.06 7.49-3.19 11.21a8.986 8.986 0 0 1-1.13 1.82 4.939 4.939 0 0 0-.7 1.37c-.48 2.34-1.1 2.99-3.47 3.13-2.3.14-4.61.22-6.91.23-4.79.01-9.57-.01-14.36-.1-6.75-.13-13.5-.26-20.24-.56-3.97-.17-7.91.31-11.87.17-3.88-.13-7.77-.24-11.65-.42a4.3 4.3 0 0 1-1.56-.58c-1.39-.7-1.59-1.49-.94-2.91a8.753 8.753 0 0 0 .77-2.42c.51-3.62 1.04-7.24 1.35-10.89.21-2.43.05-4.89.08-7.33.02-1.92.07-3.83.12-5.75a92.78 92.78 0 0 0 .24-10.27c-.59-7.18-.4-14.36-.48-21.54-.04-3.09.28-6.18.35-9.27.11-4.67.19-9.35.2-14.03.01-2.2-.2-4.39-.24-6.58-.03-1.56.14-3.13.1-4.7-.04-1.49-.33-2.98-.34-4.48-.05-4.98.21-9.97-.08-14.93-.31-5.2.42-10.34.62-15.52.03-.89.09-1.79.05-2.67 0-.05-.01-.11-.01-.16l.42-.03c7.52-.19 16.62-.09 24.14-.29.32 4.51-.49 10.39-.64 14.89-.21 5.34-.19 10.69-.33 16.03-.09 3.51-.39 7-.41 10.5-.03 5.34.11 10.68.15 16.03.02 2.23-.05 4.47-.05 6.7 0 5.1.02 10.2.01 15.3-.01 1.59-.15 3.18-.15 4.77a11.123 11.123 0 0 0 .42 2.03 9.822 9.822 0 0 0 2.58-2.38 25.258 25.258 0 0 1 8.73-6.58c4.33-2.18 9-2.46 13.73-2.23 1.9.09 3.81.27 5.7.55 3.29.48 5.86 2.47 8.27 4.5a26.295 26.295 0 0 1 7.69 10.23Zm-19.08 24.18c2.49-3.64 1.15-8.82-1.01-12.28a5.884 5.884 0 0 0-3.69-2.82c-1.74-.32-3.11.59-4.43 1.6a42.455 42.455 0 0 0-11.82 14.23l.47.93a29.682 29.682 0 0 0 4.03 1.55c3.96.89 8.87 1.05 12.71-.42a7.913 7.913 0 0 0 3.74-2.79Z" style="fill:#eab0e4"/><path d="M560.97 28.21c2.25 4.93 3.68 10.06 2.78 15.54a19.325 19.325 0 0 1-2.18 6.2l-.35-.18a2.947 2.947 0 0 1-3.01-1.6 11.056 11.056 0 0 1-1.03-3.5 26.255 26.255 0 0 0-.75-2.9 5.245 5.245 0 0 0-1.18-2.19 2.048 2.048 0 0 0-2.3-.49 2.26 2.26 0 0 0-.87.94 21.737 21.737 0 0 0-.93 2.48 2.987 2.987 0 0 1-1.75 1.87c-1.14.33-2.28-.46-3.14-1.28a8.126 8.126 0 0 1-2.31-3.32c-.68-2.12.07-4.46-.42-6.64-.14-.62-.58-1.35-1.22-1.24-.49.08-.74.63-1.05 1.03a2.267 2.267 0 0 1-2.47.67 3.111 3.111 0 0 1-.99-.61 4.042 4.042 0 0 1-.38-1 4.12 4.12 0 0 1 .27-1.37c.33-.69.66-1.36 1.01-2.02.05-.1.1-.19.15-.29a48.524 48.524 0 0 1 11.44-14.32c.92-.79 1.36-2.12 2.16-3.09.56-.68.94-1.81 2.22-1.46 1.14.31 1.75 1.14 1.83 2.76.06 1.19-.13 2.41.02 3.58a24.034 24.034 0 0 0 1.04 5.58c.91 2.37 2.35 4.53 3.41 6.85Z" style="fill:#fef0a5"/><path d="M558.94 58.13c1.49 2.86 3.99 4.69 4.21 7.88-7.52.2-16.62.1-24.14.29l-.42.03a3.715 3.715 0 0 1 .11-1.93c1.23-2.67 2.6-5.27 3.92-7.9.34-.67.67-1.34 1.1-2.21l.31.15q6.556.3 13.11.59l1.15.34a3.988 3.988 0 0 0 .65 2.76Z" style="fill:#8195d2"/><path d="m561.22 49.77.35.18a29.758 29.758 0 0 1-2.39 3.69 4.326 4.326 0 0 0-.89 1.73l-1.15-.34q-6.554-.3-13.11-.59l-.31-.15c.08-.14.15-.28.22-.43-1.01-1.11-2.02-2.23-3.05-3.34a18.123 18.123 0 0 1-4.96-12.32 16.282 16.282 0 0 1 1.57-7.17c.06-.14.13-.27.19-.41a4.12 4.12 0 0 0-.27 1.37 4.042 4.042 0 0 0 .38 1 3.111 3.111 0 0 0 .99.61 2.267 2.267 0 0 0 2.47-.67c.31-.4.56-.95 1.05-1.03.64-.11 1.08.62 1.22 1.24.49 2.18-.26 4.52.42 6.64a8.126 8.126 0 0 0 2.31 3.32c.86.82 2 1.61 3.14 1.28a2.987 2.987 0 0 0 1.75-1.87 21.737 21.737 0 0 1 .93-2.48 2.26 2.26 0 0 1 .87-.94 2.048 2.048 0 0 1 2.3.49 5.245 5.245 0 0 1 1.18 2.19 26.255 26.255 0 0 1 .75 2.9 11.056 11.056 0 0 0 1.03 3.5 2.947 2.947 0 0 0 3.01 1.6Z" style="fill:#fff"/><path d="M514.06 163.85a50.456 50.456 0 0 1-4.27 33.23 6.809 6.809 0 0 1-2.72 3.25 7.441 7.441 0 0 1-3.32.48l-60.9-.78c-1.44-.02-3.12-.16-3.89-1.38a4.471 4.471 0 0 1-.2-3.23c1.81-9.81 1.97-19.84 2.06-29.81q.346-37.05-.42-74.1c-.2-9.52-.39-19.36 1.96-28.48l.23.06c7.52-.2 14.65.2 22.17 0l.24-.06c1.48 5.1.84 10.9.53 16.38q-2.054 36.09-.73 72.27c.09-.1.18-.21.27-.31a31.904 31.904 0 0 1 18.22-10.74 25.737 25.737 0 0 1 20.68 5.06c5.46 4.47 8.6 11.26 10.09 18.16Zm-21.31 13.76c2.49-3.64 1.15-8.82-1.01-12.28a5.884 5.884 0 0 0-3.69-2.82c-1.75-.32-3.12.59-4.43 1.6a42.338 42.338 0 0 0-11.82 14.23l.47.93a29.682 29.682 0 0 0 4.03 1.55c3.96.89 8.87 1.05 12.71-.42a7.913 7.913 0 0 0 3.74-2.79Z" style="fill:#badeb8"/><path d="M444.25 23.28a56.362 56.362 0 0 1 3.76-5.17c2.17-2.67 5.08-7.91 8.54-8.78 2.95-.74 2.55 3.41 2.49 5.25-.24 7.13 4.91 12.48 6.85 18.94a21.685 21.685 0 0 1-1.77 15.85l-.51-.26a3.172 3.172 0 0 1-2.86-2.51 15.842 15.842 0 0 1-.22-4.08 5.214 5.214 0 0 0-1.27-3.78.816.816 0 0 0-.49-.26c-.35-.03-.61.32-.77.63-.59 1.15-.88 2.45-1.53 3.58a3.44 3.44 0 0 1-3.1 1.98 3.67 3.67 0 0 1-1.92-.99 6.465 6.465 0 0 1-2.08-3 10.017 10.017 0 0 1-.24-3.14l.33-9.92c.01-.45-.31-2.88-1.22-1.87-.33.38-.43.94-.77 1.35-.83 1.02-3.41 2.46-4.58 1.23a1.211 1.211 0 0 1-.29-.73 5.697 5.697 0 0 1 .81-2.67 11.637 11.637 0 0 1 .84-1.65Z" style="fill:#eab0e4"/><path d="m465 63.03-.24.06c-7.52.2-14.65-.2-22.17 0l-.23-.06a44.444 44.444 0 0 1 2.88-8 4.375 4.375 0 0 0 .53-1.56c4.37.19 10.99.33 15.36.53h.5a8.664 8.664 0 0 0 1.21 4.37 16.164 16.164 0 0 1 2.16 4.66Z" style="fill:#8195d2"/><path d="m463.61 49.11.51.26a20.23 20.23 0 0 1-1.97 3.14c-.59.78-.45.51-.52 1.49h-.5c-4.37-.2-10.99-.34-15.36-.53a1.313 1.313 0 0 0 .01-.28c-.07-1.06-1-1.81-1.78-2.52-6.56-5.99-6.14-14.61-2.66-22.14a43.436 43.436 0 0 1 2.91-5.25 11.637 11.637 0 0 0-.84 1.65 5.697 5.697 0 0 0-.81 2.67 1.211 1.211 0 0 0 .29.73c1.17 1.23 3.75-.21 4.58-1.23.34-.41.44-.97.77-1.35.91-1.01 1.23 1.42 1.22 1.87l-.33 9.92a10.017 10.017 0 0 0 .24 3.14 6.465 6.465 0 0 0 2.08 3 3.67 3.67 0 0 0 1.92.99 3.44 3.44 0 0 0 3.1-1.98c.65-1.13.94-2.43 1.53-3.58.16-.31.42-.66.77-.63a.816.816 0 0 1 .49.26 5.214 5.214 0 0 1 1.27 3.78 15.842 15.842 0 0 0 .22 4.08 3.172 3.172 0 0 0 2.86 2.51Z" style="fill:#fff"/><path d="M126.42 124.79c4.37 14.39 1.26 30.86-6.11 43.71-10.71 18.68-31.11 31.85-52.64 32.42-.99.02-1.98.02-2.98-.01-20.52-.62-42.16-13.74-50.36-32.58a6.883 6.883 0 0 1-.36-1.19l.79-.09a9.104 9.104 0 0 0 3.24-1.46q2.55-1.56 5.21-2.93l.28.54c14.37 28.69 54.89 32.04 76.78 10.01 13.26-13.34 18.18-34.94 8.86-51.88-9.69-17.61-32.63-24.95-50.79-30-20.47-5.69-47.73-22.17-35.43-47.49C34.73 19.52 71.94 10.7 92.88 26.12c7.13 5.25 15.49 12.94 18.28 21.97l.05.21c-.26.06-.52.11-.78.17-1.16.24-2.32.49-3.45.84-.85.26-1.69.59-2.52.91q-2.264.87-4.54 1.75l-.62.3a32.965 32.965 0 0 0-11.92-13.46 40.67 40.67 0 0 0-24.62-5.94c-5.86.4-11.77 1.97-16.52 5.41-4.76 3.45-8.21 8.96-8.29 14.83-.11 7.25 4.85 13.79 10.94 17.74 6.09 3.94 13.24 5.82 20.17 7.96 23.7 7.3 49.6 20.44 57.36 45.98Z" style="fill:#fef0a5"/><path d="M125.94 54.32c.44 2.05.72 4.36-.44 6.12-1 1.53-2.84 2.25-4.58 2.82a89.88 89.88 0 0 1-12.31 3.13 6.683 6.683 0 0 1-3.44-.02c-2.57-.93-3.07-4.24-3.56-6.93a28.887 28.887 0 0 0-2.31-7.17l.62-.3q2.28-.885 4.54-1.75c.83-.32 1.67-.65 2.52-.91 1.13-.35 2.29-.6 3.45-.84.26-.06.52-.11.78-.17q5.716-1.215 11.41-2.43l.61-.25a50.156 50.156 0 0 1 2.71 8.7Z" style="fill:#eab0e4"/><path d="m123.23 45.62-.61.25q-5.7 1.215-11.41 2.43l-.05-.21c-2.79-9.03-11.15-16.72-18.28-21.97-20.94-15.42-58.15-6.6-69.97 17.72-12.3 25.32 14.96 41.8 35.43 47.49 18.16 5.05 41.1 12.39 50.79 30 9.32 16.94 4.4 38.54-8.86 51.88-21.89 22.03-62.41 18.68-76.78-10.01l-.28-.54a79.793 79.793 0 0 1 7.83-3.54l.78-.64c1.47 1.67 2.73 3.08 3.62 4.07 6.2 6.82 15.09 12.56 24.15 14.27 9.43 1.77 19.27-1.56 27.13-7.07 9.94-6.98 17.64-19.05 14.97-30.9-1.76-7.81-7.72-14.12-14.57-18.26-6.86-4.14-14.63-6.43-22.23-8.94-12.39-4.09-24.7-8.94-35.25-16.61-10.54-7.68-19.26-18.5-22.21-31.2C-1.7 24.62 48.54 3.5 80.15 10.24c18.92 4.04 35.8 17.64 43.08 35.38Z" style="fill:#fef0a5"/><path d="m31.82 158.48-.78.64a79.793 79.793 0 0 0-7.83 3.54q-2.654 1.365-5.21 2.93a9.104 9.104 0 0 1-3.24 1.46l-.79.09c-.72-3.3-1.02-10.69-1.13-17.37 2.05.69 4.08 1.45 6.09 2.25l1.89-5.67.24-.21c3.57 4.12 7.64 8.8 10.76 12.34Z" style="fill:#fff"/><path d="m21.06 146.14-.24.21-1.89 5.67c-2.01-.8-4.04-1.56-6.09-2.25-.12-6.81-.04-12.88-.04-13.17 0 0 3.73 4.32 8.26 9.54Z" style="fill:#8195d2"/><path d="M64.696 199.785a59.105 59.105 0 0 1-41.786-20.047 47.602 47.602 0 0 1-6.547-9.716 15.272 15.272 0 0 1-1.666-5.454 158.98 158.98 0 0 1-.758-16.26 443.586 443.586 0 0 1-.015-11.72l-1.92.796q7.08 8.214 14.203 16.391c2.744 3.148 5.48 6.309 8.286 9.401a49.62 49.62 0 0 0 17.272 12.404 33.204 33.204 0 0 0 21.257 1.792 43.766 43.766 0 0 0 18.901-10.398c4.99-4.64 9.081-10.634 10.695-17.317a24.318 24.318 0 0 0-3.193-18.98c-8.368-13.031-24.347-16.668-38.033-21.395-14.449-4.99-28.912-11.48-39.706-22.622C12.91 77.598 6.788 65.426 7.52 52.572c.546-9.593 5.323-18.205 12.216-24.732 7.249-6.864 16.465-11.522 25.968-14.385a73.176 73.176 0 0 1 29.487-2.9 59.53 59.53 0 0 1 32.585 15.202 58.11 58.11 0 0 1 11.842 14.907 51.746 51.746 0 0 1 3.824 8.744q.76 2.307 1.298 4.679c.376 1.663.81 3.602.09 5.233-.735 1.663-2.605 2.324-4.207 2.859a85.97 85.97 0 0 1-6.102 1.78q-2.967.752-5.981 1.3c-1.849.333-3.558.387-4.561-1.414a13.168 13.168 0 0 1-1.168-4.078 32.395 32.395 0 0 0-1.237-4.891 32.063 32.063 0 0 0-4.76-8.833c-8.956-11.783-24.706-16.287-38.948-13.69-7.013 1.278-13.738 4.696-17.785 10.73a18.224 18.224 0 0 0-1.102 18.733c6.797 13.254 23.117 15.631 35.824 20.059 11.752 4.095 23.355 9.557 32.946 17.604 9.783 8.207 17.118 19.28 19.036 32.067 2.177 14.52-2.362 29.756-10.789 41.6a64.65 64.65 0 0 1-31.577 23.6 56.94 56.94 0 0 1-19.723 3.039 1.126 1.126 0 0 0 0 2.25 62.21 62.21 0 0 0 37.964-12.302 65.969 65.969 0 0 0 23.914-32.645c4.453-13.729 3.989-28.707-2.761-41.601-5.772-11.026-15.402-19.459-26.021-25.681A119.78 119.78 0 0 0 80.808 81.7c-6.287-2.458-12.76-4.262-19.167-6.36-7.056-2.31-14.24-5.463-18.805-11.592a17.915 17.915 0 0 1-3.739-9.501 16.234 16.234 0 0 1 2.716-9.71c4.109-6.382 11.552-9.483 18.851-10.349a40.715 40.715 0 0 1 22.8 3.69 32.363 32.363 0 0 1 14.73 14.682c1.477 3.042 2.018 6.17 2.77 9.424.661 2.863 2.201 5.624 5.474 5.744a23.725 23.725 0 0 0 5.702-.9q3.106-.674 6.16-1.57c3.088-.905 7.184-1.784 8.601-5.067 1.296-3.002.106-6.696-.757-9.667a54.125 54.125 0 0 0-3.504-8.935A61.893 61.893 0 0 0 64.225 7.964a79.76 79.76 0 0 0-29.762 7.387c-8.85 4.141-17.09 10.165-22.66 18.293A37.81 37.81 0 0 0 5.82 61.557c2.31 13.59 11.097 25.161 21.844 33.395 12.653 9.693 27.814 14.722 42.748 19.69 7.364 2.45 14.887 5.249 20.904 10.305 5.303 4.456 9.429 10.595 9.762 17.686.684 14.587-12.391 26.99-25.207 31.528a31.355 31.355 0 0 1-22.032-.156 46.966 46.966 0 0 1-17.806-12.475c-6.118-6.748-12.027-13.69-17.984-20.578q-2.23-2.578-4.455-5.16a1.136 1.136 0 0 0-1.92.796 239.231 239.231 0 0 0 .686 27.188 17.64 17.64 0 0 0 1.143 5.45 47.965 47.965 0 0 0 6.202 10.151 59.206 59.206 0 0 0 18.776 15.463 60.482 60.482 0 0 0 26.214 7.195c1.448.049 1.446-2.201 0-2.25Z"/><path d="M100.225 53.052a70.588 70.588 0 0 1 10.726-3.548l11.97-2.546c1.416-.301.817-2.47-.597-2.17l-11.971 2.546a70.583 70.583 0 0 0-10.726 3.548c-1.337.516-.756 2.693.598 2.17ZM13.991 167.926a1.126 1.126 0 0 0 0-2.25 1.126 1.126 0 0 0 0 2.25Z"/><path d="M15.06 168.131a11.401 11.401 0 0 0 3.764-1.73q2.012-1.22 4.092-2.324a80.855 80.855 0 0 1 8.42-3.868c1.334-.523.753-2.7-.598-2.17a86.218 86.218 0 0 0-8.42 3.812q-2.02 1.053-3.979 2.216a12.203 12.203 0 0 1-3.877 1.894c-1.422.262-.82 2.431.598 2.17Zm-2.66-17.329q3.147 1.068 6.232 2.303a1.14 1.14 0 0 0 1.384-.785l1.886-5.669a1.125 1.125 0 1 0-2.17-.598l-1.885 5.668 1.383-.785q-3.084-1.236-6.23-2.303a1.125 1.125 0 0 0-.598 2.17Z"/><path d="M112.242 47.794c-2.31-7.291-7.56-13.282-13.238-18.221-4.742-4.125-9.797-7.646-15.77-9.722-11.116-3.866-23.717-3.13-34.692.857-11.05 4.014-21.163 11.598-26.467 22.29-2.752 5.547-4.094 11.74-2.898 17.885a29.534 29.534 0 0 0 7.946 14.43c8.198 8.62 19.761 13.983 31.072 17.148 12.969 3.63 26.293 7.714 37.355 15.663a41.993 41.993 0 0 1 13.31 15.112 39.37 39.37 0 0 1 3.798 20.853 46.24 46.24 0 0 1-20.34 34.203 50.248 50.248 0 0 1-33.405 7.79 44.734 44.734 0 0 1-29.636-15.904 42.6 42.6 0 0 1-4.819-7.547c-.653-1.292-2.595-.155-1.943 1.136a45.141 45.141 0 0 0 25.862 22.22 52.454 52.454 0 0 0 33.98-.266 48.91 48.91 0 0 0 27.8-24.529c6.228-12.783 6.831-28.324-.31-40.882-6.755-11.88-19.277-18.936-31.623-23.76-11.772-4.598-24.412-6.71-35.64-12.672-9.774-5.19-20.338-13.589-21.51-25.43-1.208-12.214 7.399-23.556 17.07-30.016a53.36 53.36 0 0 1 34.015-8.65 41.286 41.286 0 0 1 16.354 4.868 51.08 51.08 0 0 1 7.858 5.625 59.346 59.346 0 0 1 8.184 8.204 30.881 30.881 0 0 1 5.517 9.913c.436 1.376 2.609.788 2.17-.598ZM13.991 167.926a1.126 1.126 0 0 0 0-2.25 1.126 1.126 0 0 0 0 2.25Zm1071.627-75.722a38.584 38.584 0 0 1 27.923 10.444 33.962 33.962 0 0 1 8.121 11.647 30.747 30.747 0 0 1 1.103 3.186c.274.956 1.077 2.943.079 3.695a4.79 4.79 0 0 1-1.847.435l-2.175.393-5.318.961c-1.254.227-3.202.945-4.457.59-1.173-.331-1.651-1.886-2.04-2.89a24.742 24.742 0 0 0-3.506-6.321 23.385 23.385 0 0 0-12.318-8.264 23.723 23.723 0 0 0-16.245 1.49c-4.404 2.117-8.076 6.495-6.042 11.575 2.072 5.177 7.91 7.152 12.676 9.03 5.393 2.125 10.887 3.983 16.26 6.156 9.687 3.917 21.41 9.608 25.47 20.01a27.103 27.103 0 0 1 1.499 8.176 20.887 20.887 0 0 1-1.07 8.766 53.741 53.741 0 0 1-8.041 14.954c-6.563 8.12-17.25 11.564-27.394 12.03-11.09.51-21.805-3.301-30.656-9.893-4.34-3.232-8.51-7.197-8.525-12.992-.007-2.74.133-5.472.104-8.215-.024-2.203-.018-4.407.042-6.61.02-.746.042-1.494.09-2.24l-1.921.796q4.092 3.638 8.188 7.273c3.022 2.682 5.924 5.505 8.96 8.166 5.758 5.047 12.692 8.219 20.462 8.141a29.034 29.034 0 0 0 20.274-8.702c2.456-2.525 4.458-5.798 4.699-9.385.257-3.84-2.142-6.564-5.221-8.483-6.85-4.27-14.545-7.048-22.091-9.806-7.594-2.775-15.26-5.541-22.195-9.765-6.34-3.86-12.51-9.54-12.686-17.496-.16-7.26 4.876-13.399 10.328-17.622a46.086 46.086 0 0 1 21.611-8.69 57.05 57.05 0 0 1 5.86-.54c1.442-.063 1.45-2.313 0-2.25a54.423 54.423 0 0 0-22.472 5.632c-6.068 3.12-11.903 7.924-15.164 14.009a18.686 18.686 0 0 0 1.033 19.777c4.306 6.125 11.232 10.028 17.89 13.098 7.294 3.363 14.958 5.804 22.43 8.723a100.758 100.758 0 0 1 11.018 4.977c3.267 1.754 7.52 3.774 7.425 8.073-.083 3.741-2.705 7.028-5.36 9.411a26.535 26.535 0 0 1-32.33 2.384c-3.96-2.593-7.249-6.255-10.782-9.383q-4.762-4.215-9.511-8.444l-.775-.69a1.14 1.14 0 0 0-1.92.796c-.204 3.239-.168 6.503-.121 9.745.04 2.768-.264 5.586-.083 8.344a14.285 14.285 0 0 0 2.732 7.44c3.267 4.48 8.402 7.909 13.207 10.545a49.49 49.49 0 0 0 16.36 5.653c10.227 1.536 21.67-.176 30.568-5.622a32.97 32.97 0 0 0 10.973-11.577 65.492 65.492 0 0 0 3.886-7.825 27.209 27.209 0 0 0 2.414-8.365c.482-5.517-.398-11.619-3.267-16.413a35.405 35.405 0 0 0-11.577-11.232c-10.195-6.526-22.04-9.58-33.094-14.252-2.68-1.133-5.593-2.45-7.296-4.925a5.84 5.84 0 0 1 .415-7.592c3.874-4.208 10.886-5.327 16.287-4.442a21.186 21.186 0 0 1 13.675 8.508c1.524 2.12 2.265 4.468 3.418 6.766a5.3 5.3 0 0 0 2.005 2.303c1.278.727 2.715.44 4.082.195q5.077-.908 10.152-1.834a3.634 3.634 0 0 0 3.59-4.815 31.277 31.277 0 0 0-6.197-13.286 40.419 40.419 0 0 0-24.602-15.056 42.156 42.156 0 0 0-9.01-.626c-1.443.05-1.45 2.3 0 2.25Zm-723.14 70.448c.462-7.006.064-14.043.471-21.055.286-4.914-.524-9.817-.442-14.734.086-5.081.013-10.162.006-15.244-.002-1.141-.018-2.285.012-3.426a15.947 15.947 0 0 1 .365-3.975 11.714 11.714 0 0 1 1.538-2.488c.642-1.06 1.13-2.249 1.682-3.358 1.187-2.39 2.26-4.823 3.344-7.26 1.951-4.386 3.938-8.757 5.92-13.13q2.38-5.256 4.769-10.508l-2.056-.269q4.029 9.568 8.123 19.108c1.599 3.72 3.19 7.445 4.87 11.129a19.752 19.752 0 0 0 1.931 3.531 10.889 10.889 0 0 1 1.553 2.443 9.757 9.757 0 0 1 .47 3.14 63.156 63.156 0 0 1-.105 6.39c-.314 4.537-.245 9.099-.281 13.645-.036 4.519.063 9.005.322 13.517.26 4.53.249 9.07.514 13.602.267 4.574.474 9.071.359 13.655-.114 4.53-.193 9.069-.197 13.6-.003 4.604.46 9.284.176 13.878-.105 1.685-.33 3.947-1.815 5.04-1.37 1.006-3.203.554-4.752.4-4.505-.447-9.022-.836-13.542-1.088-3.88-.216-7.828-.463-11.712-.414a4.155 4.155 0 0 1-1.923-.193c-.96-.518-.672-2.02-.631-2.902q.142-3.113.23-6.229c.196-6.979.153-13.963.466-20.939q.132-2.935.335-5.866c.098-1.445-2.152-1.44-2.25 0-.505 7.418-.568 14.839-.699 22.27q-.053 3.004-.147 6.008a53.337 53.337 0 0 0-.217 6.564c.389 4.109 4.502 3.464 7.528 3.604 4.376.203 8.747.301 13.118.623q3.515.258 7.025.58c2.001.185 4.186.71 6.186.36 3.719-.65 4.778-4.285 5.031-7.58.179-2.327.003-4.711-.05-7.043-.057-2.439-.11-4.877-.106-7.316.009-4.69.09-9.385.214-14.073.128-4.826-.2-9.576-.459-14.39-.252-4.702-.268-9.407-.55-14.107-.283-4.729-.215-9.457-.184-14.19.016-2.397.028-4.793.083-7.188.053-2.315.303-4.62.344-6.933a25.853 25.853 0 0 0-.384-6.243c-.469-1.996-1.892-3.318-2.863-5.05a92.69 92.69 0 0 1-3.821-8.454c-3.295-7.581-6.715-15.647-9.82-23.01l-.2-.477c-.326-.772-1.606-1.26-2.057-.269-3.43 7.541-6.864 15.08-10.245 22.644-.846 1.892-1.645 3.807-2.533 5.68a42.533 42.533 0 0 1-3.231 6.364 7.924 7.924 0 0 0-1.47 2.594 21.182 21.182 0 0 0-.407 3.62c-.296 5.04 0 10.15-.014 15.198-.007 2.588-.119 5.18-.015 7.767.098 2.45.337 4.894.432 7.346.165 4.288-.245 8.615-.27 12.91-.023 4.06.048 8.137-.22 12.19-.095 1.446 2.156 1.44 2.25 0ZM544.734 53.065c-2.173-2.39-4.531-4.66-5.979-7.59a16.99 16.99 0 0 1-1.666-8.583c.221-3.253 1.711-6.199 3.275-8.998a47.964 47.964 0 0 1 5.304-7.69q1.401-1.649 2.948-3.166a24.899 24.899 0 0 0 3.366-3.313 22.113 22.113 0 0 1 1.882-2.874c1.265-1.333 1.526 1.567 1.518 2.244a23.163 23.163 0 0 0 1.376 9.25c1.359 3.238 3.295 6.158 4.49 9.48 2.29 6.36 2.251 12.93-1.353 18.79-1.424 2.314-3.552 4.188-2.388 7.086 1.046 2.602 3.457 4.497 4.29 7.17a12.803 12.803 0 0 1 .3 3.902c-.017 1.708-.124 3.413-.246 5.116-.227 3.147-.461 6.283-.548 9.439-.198 7.242-.358 14.478-.606 21.719-.275 8.041.112 16.112.056 24.158-.029 4.102.005 8.204.005 12.306 0 1.952.02 3.904-.06 5.855a18.022 18.022 0 0 0 .373 5.194 1.133 1.133 0 0 0 1.652.672c1.895-1.281 3.1-3.117 4.758-4.651a26.397 26.397 0 0 1 5.633-3.842c4.479-2.375 9.323-2.794 14.313-2.53a24.213 24.213 0 0 1 7.509 1.114 20.756 20.756 0 0 1 5.743 3.86 26.93 26.93 0 0 1 7.746 11.17 42.648 42.648 0 0 1 3.178 14.775 72.041 72.041 0 0 1-.448 7.807 44.938 44.938 0 0 1-1.837 7.91c-.368 1.243-.754 2.482-1.137 3.721a16.46 16.46 0 0 1-.571 1.859 11.95 11.95 0 0 1-1.017 1.547 9.915 9.915 0 0 0-1.047 2.583 1.526 1.526 0 0 1-1.105 1.213 13.34 13.34 0 0 1-3.022.254q-2.222.102-4.446.12c-2.723.019-5.446.005-8.168-.012-5.52-.036-11.042-.157-16.56-.296-5.437-.138-10.868-.493-16.306-.272-5.375.22-10.749-.04-16.121-.265-.822-.035-2.745-.024-3.167-.998-.276-.635.784-2.27.945-2.928a65.785 65.785 0 0 0 1.06-7.539c.658-5.384.477-10.741.62-16.152.072-2.688.295-5.369.351-8.056.057-2.692-.251-5.374-.364-8.061-.228-5.464-.146-10.936-.196-16.403-.049-5.344.389-10.702.475-16.049.044-2.659.092-5.32.077-7.98-.015-2.585-.31-5.163-.23-7.75.04-1.246.131-2.492.064-3.739-.069-1.271-.278-2.53-.315-3.805-.079-2.643.03-5.296.051-7.94.043-5.418-.314-10.778.07-16.194.186-2.624.403-5.248.467-7.879.033-1.322-.205-2.454.338-3.693.527-1.202 1.15-2.37 1.742-3.542q1.556-3.078 3.104-6.16c.645-1.292-1.295-2.433-1.943-1.136-1.131 2.265-2.281 4.52-3.417 6.783a103.07 103.07 0 0 0-1.626 3.34 7.934 7.934 0 0 0-.439 3.739c.02 5.69-.96 11.337-.706 17.035.126 2.813.182 5.615.153 8.43-.028 2.765-.211 5.58.022 8.336.108 1.283.28 2.55.272 3.84-.01 1.49-.13 2.974-.092 4.466.07 2.766.245 5.513.225 8.282-.042 5.748-.165 11.486-.45 17.226-.283 5.68-.122 11.435-.007 17.12.06 2.945.246 5.872.427 8.81a80.136 80.136 0 0 1-.224 8.559c-.258 5.718.108 11.458-.532 17.151a67.368 67.368 0 0 1-1.147 8.363c-.434 1.776-1.886 3.638-.244 5.256 1.85 1.823 4.689 1.525 7.062 1.613 2.834.105 5.671.237 8.507.286 2.885.05 5.765-.192 8.65-.223 2.962-.032 5.932.178 8.893.269q8.644.265 17.293.376c5.763.07 11.556.191 17.312-.154 1.655-.1 3.368-.287 4.31-1.833a14.573 14.573 0 0 0 .826-2.368c.408-1.023 1.278-1.78 1.68-2.812a79.869 79.869 0 0 0 2.438-8.076 41.045 41.045 0 0 0 1.422-8.313 56.191 56.191 0 0 0 .164-8.188 41.21 41.21 0 0 0-1.42-7.66c-1.344-4.79-3.107-9.525-6.246-13.437-2.771-3.452-6.67-7.016-10.912-8.493a28.5 28.5 0 0 0-7.734-1.057 39.179 39.179 0 0 0-7.552.237 26.7 26.7 0 0 0-13.222 6.124c-1.824 1.53-3.09 3.633-5.065 4.97l1.653.672a18.132 18.132 0 0 1-.273-5.073c.07-1.955.04-3.916.04-5.872 0-3.937-.032-7.875-.005-11.812.052-7.574-.237-15.154-.095-22.727.072-3.831.364-7.655.44-11.487.075-3.725.097-7.452.192-11.178.09-3.463.351-6.902.591-10.357.209-2.996.759-6.63-.276-9.515-.957-2.67-3.36-4.52-4.312-7.175-.547-1.525.675-2.597 1.483-3.772a25.656 25.656 0 0 0 2.54-4.607c2.682-6.395 1.566-13.308-1.08-19.511-1.407-3.302-3.715-6.337-4.41-9.901a23.224 23.224 0 0 1-.475-4.979c.036-1.422.155-2.98-.647-4.238a3.336 3.336 0 0 0-2.9-1.498c-1.182.076-1.79 1.004-2.423 1.877a19.1 19.1 0 0 1-2.459 3.331c-1.344 1.201-2.65 2.43-3.87 3.76a50.323 50.323 0 0 0-6.265 8.457c-1.884 3.192-3.678 6.616-4.116 10.345a19.114 19.114 0 0 0 1.569 9.892c1.52 3.415 4.174 6.007 6.653 8.734.976 1.074 2.564-.52 1.591-1.59Zm-78.865 99.098c5.037-5.77 12.059-10.041 19.795-10.725a24.09 24.09 0 0 1 20.615 8.112c5.092 6.015 7.274 14.27 7.701 22.001a49.39 49.39 0 0 1-4.775 24.184c-.797 1.642-1.634 3.547-3.633 3.881-2.25.376-4.784.028-7.06-.001l-14.228-.181-28.456-.363c-4.536-.057-9.128.09-13.657-.186a2.907 2.907 0 0 1-2.243-.804c-.565-.803-.1-2.216.05-3.077.394-2.235.706-4.484.957-6.74 1.012-9.083.985-18.25 1.053-27.377q.209-28.35-.234-56.7c-.139-8.891-.603-17.826-.22-26.715a71.183 71.183 0 0 1 1.545-12.615 47.57 47.57 0 0 1 1.791-6.08q.523-1.41 1.153-2.776a6.645 6.645 0 0 0 .874-2.623c.029-1.834-1.51-2.887-2.675-4.054a14.515 14.515 0 0 1-2.995-4.309 16.64 16.64 0 0 1-.852-10.037c1.526-7.586 6.546-13.454 10.984-19.522a22.571 22.571 0 0 1 3.252-3.752c.58-.508 2.322-1.93 3.012-1.068.57.713.356 2.29.327 3.13a19.35 19.35 0 0 0 .349 4.79c.758 3.536 2.593 6.715 4.22 9.903 1.726 3.383 3.042 6.801 3.027 10.654a21.512 21.512 0 0 1-3.06 10.906c-.72 1.201-1.856 2.188-1.96 3.628a9.3 9.3 0 0 0 .99 4.654 32.013 32.013 0 0 1 2.358 4.88 23.861 23.861 0 0 1 .903 5.854c.167 3.955-.24 7.92-.457 11.866q-1.562 28.38-1.028 56.824.13 6.98.388 13.956c.033.901 1.254 1.578 1.92.796l.269-.314c.934-1.096-.65-2.695-1.591-1.591l-.268.314 1.92.795q-1.098-30.024.126-60.072c.198-4.826.43-9.651.738-14.472a51.209 51.209 0 0 0-.204-12.229 19.318 19.318 0 0 0-1.844-5.54c-.87-1.675-1.976-3.113-2-5.099-.012-.894.053-.74.611-1.502a21.362 21.362 0 0 0 1.647-2.633 24.146 24.146 0 0 0 2.082-5.427 21.901 21.901 0 0 0-.114-11.49c-1.093-3.659-3.156-6.912-4.77-10.346a21.777 21.777 0 0 1-1.845-5.475 27.16 27.16 0 0 1-.138-4.578c-.016-2.431-.938-5.308-3.963-4.572-3.168.771-5.36 4.025-7.15 6.5a118.36 118.36 0 0 0-7.002 9.876c-3.618 6.26-5.995 14.078-3.02 21.07a16.532 16.532 0 0 0 2.88 4.514c.634.714 1.376 1.307 2.035 1.995.953.995.5 1.749-.01 2.865a49.153 49.153 0 0 0-3.71 12.42c-1.485 8.922-1.121 18.002-.945 27.005q.583 29.836.444 59.682c-.046 9.836.072 19.718-.67 29.532a116.907 116.907 0 0 1-.773 7.368c-.286 2.05-1.035 4.307-.876 6.383.342 4.46 6.021 3.708 9.134 3.748l30.202.384 14.977.191 7.488.095c2.244.029 4.695.34 6.91-.088 3.88-.75 5.393-5.535 6.648-8.749a51.567 51.567 0 0 0 3.101-12.424 48.214 48.214 0 0 0-3.157-24.607c-3.171-7.432-8.872-13.361-16.714-15.743a29.081 29.081 0 0 0-22.81 2.899 35.223 35.223 0 0 0-8.96 7.41c-.95 1.086.636 2.684 1.59 1.59Zm200.121 20.961q24.668-1.174 49.368-1.454 5.987-.067 11.974-.081c1.403-.003 3.84-.427 4.507 1.188a9.442 9.442 0 0 1 .38 2.593q.169 1.701.284 3.407a109.93 109.93 0 0 1 .17 11.717c-.076 1.943-.141 3.918-.384 5.848-.115.916-.242 1.561-1.258 1.714a24.654 24.654 0 0 1-3.18.073l-48.904.853-24.452.427-5.989.104-2.994.052a21.831 21.831 0 0 1-3.309.053c-.975-.138-.724-.972-.757-1.818l-.116-2.993-.231-5.986c-1.258-32.753-2.373-65.53-1.932-98.312q.164-12.224.64-24.442c.116-2.942.165-5.901.375-8.838.16-2.224.436-4.742 1.74-6.624 1.55-2.238 5.032-2.498 7.51-2.699a52.463 52.463 0 0 1 9.677.252c1.517.158 3.03.356 4.538.584a9.349 9.349 0 0 1 2.137.465 2.262 2.262 0 0 1 1.418 2.279c.321 3.871.268 7.814.305 11.697.301 32.373-3.506 64.633-3.1 97.008q.075 5.909.351 11.813a1.14 1.14 0 0 0 1.125 1.125l.107-.005c1.441-.07 1.45-2.32 0-2.25l-.107.005 1.125 1.125c-.807-17.067-.184-34.153.682-51.204.871-17.145 1.977-34.289 2.076-51.462q.037-6.401-.132-12.801a51.852 51.852 0 0 0-.273-5.95 4.152 4.152 0 0 0-2.508-3.358 16.83 16.83 0 0 0-4.542-.932 94.305 94.305 0 0 0-4.993-.556 44.059 44.059 0 0 0-10.312.202c-2.67.413-5.335 1.097-6.952 3.42-1.43 2.05-1.837 4.687-2.061 7.12-.27 2.929-.287 5.898-.407 8.836q-.263 6.482-.43 12.968c-.45 17.378-.414 34.766-.101 52.146.311 17.306.896 34.606 1.547 51.902q.244 6.486.497 12.97c.04.998.075 1.996.117 2.994a5.021 5.021 0 0 0 .411 2.296c.798 1.408 2.497 1.28 3.889 1.255l25.95-.453 51.898-.905 6.488-.113c1.562-.027 3.614.262 5.03-.576 1.478-.875 1.59-2.659 1.722-4.19q.271-3.164.36-6.34a109.902 109.902 0 0 0-.382-12.687c-.144-1.634-.082-3.693-.894-5.17a4.303 4.303 0 0 0-3.596-2.028 58.52 58.52 0 0 0-6.003-.038q-3.243.016-6.486.046-6.485.062-12.97.186-12.97.248-25.933.745-6.356.243-12.71.547c-1.442.068-1.45 2.319 0 2.25Zm-515.381-14.985c.035-17.806 7.522-37.235 22.285-47.935 7.865-5.7 17.806-8.617 27.498-7.177 5.477.813 11.235 2.929 15.46 6.607a2.4 2.4 0 0 1 1.066 1.672 4.895 4.895 0 0 1-.898 2.255l-2.444 4.597c-.72 1.355-1.374 2.781-2.197 4.077a3.554 3.554 0 0 1-3.813 1.58c-2.658-.296-5.104-1.017-7.817-.846a23.212 23.212 0 0 0-7.507 1.789 27.626 27.626 0 0 0-12.089 10.071 40.133 40.133 0 0 0-6.04 15.712c-.975 5.617-1.373 11.683.452 17.175 3.11 9.356 12.961 14.798 22.537 14.39 2.812-.12 5.606-1.252 8.407-1.093 2.898.164 4.69 2.554 5.883 4.954a22.011 22.011 0 0 1 1.603 4.39c.364 1.434 1.002 3.51.224 4.902-.616 1.1-2.059 1.438-3.194 1.679-1.501.319-3.033.54-4.55.767-12.353 1.858-25.659 1.845-36.864-4.38a32.344 32.344 0 0 1-11.965-11.303 41.757 41.757 0 0 1-5.467-15.78 56.94 56.94 0 0 1-.57-8.103 1.126 1.126 0 0 0-2.25 0c.048 11.477 3.199 23.592 11.741 31.735 9.037 8.615 21.889 11.486 34.04 11.142a96.006 96.006 0 0 0 10.485-.932q2.413-.335 4.814-.757a11.077 11.077 0 0 0 4.133-1.309c2.543-1.629 2.377-4.53 1.844-7.157a21.563 21.563 0 0 0-3.404-8.25 8.462 8.462 0 0 0-6.732-3.859c-2.986-.063-5.87 1.088-8.87 1.123a22.053 22.053 0 0 1-14.204-4.86c-4.491-3.735-6.446-9.09-6.628-14.831a44.94 44.94 0 0 1 3.275-18.171 28.04 28.04 0 0 1 11.162-13.616 22.7 22.7 0 0 1 7.768-2.947 22.986 22.986 0 0 1 8.325.4c2.72.494 5.316.297 7.003-2.155a44.633 44.633 0 0 0 2.408-4.402l2.56-4.816a6.021 6.021 0 0 0 1.071-3.711 5.542 5.542 0 0 0-2.453-3.321 32.549 32.549 0 0 0-7.506-4.316c-10.085-4.172-21.632-3.303-31.346 1.462-17.325 8.499-27.057 28.023-29.099 46.532a65.14 65.14 0 0 0-.387 7.016 1.126 1.126 0 0 0 2.25 0Zm124.104-40.587.01.139a1.14 1.14 0 0 0 1.92.795 45.027 45.027 0 0 1 27.151-13.858c5.444-.667 11.357-.518 16.438 1.749a15.536 15.536 0 0 1 9.346 11.294c1.033 5.593-.27 11.64-.905 17.215l-.493 4.332-.247 2.166a4.26 4.26 0 0 1-.148 1.258c-.157.268-.41.056-.764-.05-2.73-.826-5.385-1.884-8.063-2.86-5.24-1.91-10.614-3.464-16.252-3.096a40.637 40.637 0 0 0-15.392 4.515 67.86 67.86 0 0 0-7.17 4.176c-2.079 1.378-3.838 2.95-4.404 5.48-.584 2.612-.12 5.402.028 8.037q.26 4.646.321 9.3.12 9.306-.56 18.6a64.332 64.332 0 0 1-.923 9.24c-.316 1.407-1.127 1.816-2.487 1.967-1.61.178-3.235.275-4.851.384q-4.674.313-9.36.415a67.562 67.562 0 0 1-8.995-.031 2.567 2.567 0 0 1-1.446-.482c-.488-.465-.336-1.425-.331-2.022.014-1.578.033-3.156.05-4.734l.106-9.715q.212-18.933.53-37.864.17-9.466.397-18.93.115-4.732.248-9.463a14.39 14.39 0 0 1 .857-5.536 6.103 6.103 0 0 1 3.19-2.942 33.22 33.22 0 0 1 7.435-2.085 58.458 58.458 0 0 1 9.072-1.078q1.18-.048 2.362-.05a4.93 4.93 0 0 1 1.795.083c.745.325.663 1.34.712 2.013.06.808.115 1.617.172 2.425l.651 9.213c.102 1.436 2.352 1.447 2.25 0l-.72-10.183c-.188-2.667-.191-5.559-3.53-5.783a47.661 47.661 0 0 0-9.336.527 58.342 58.342 0 0 0-9.406 1.995c-3.59 1.1-6.485 3.036-7.32 6.89a43.327 43.327 0 0 0-.53 7.997q-.133 4.981-.246 9.962-.472 20.673-.698 41.35-.127 10.213-.233 20.427l-.053 4.982c-.014 1.323-.146 2.803.777 3.88 1.66 1.94 5.065 1.447 7.31 1.452q5.054.01 10.105-.225a92.916 92.916 0 0 0 9.878-.723c2.627-.408 3.69-2.228 4.006-4.71.427-3.355.69-6.74.914-10.113q.667-10.019.4-20.07c-.09-3.372-.306-6.732-.5-10.097a12.392 12.392 0 0 1 .222-4.085 6.238 6.238 0 0 1 2.773-3.417 52.096 52.096 0 0 1 16.319-7.801 31.42 31.42 0 0 1 17.87.914c2.999.97 5.923 2.154 8.898 3.192 1.922.672 5.373 2.389 6.092-.673a39.587 39.587 0 0 0 .53-4.504l.602-5.295c.364-3.192.813-6.39.995-9.6.318-5.599-.695-11.127-4.739-15.263-3.934-4.024-9.411-5.873-14.912-6.374a46.264 46.264 0 0 0-31.492 9.392 46.82 46.82 0 0 0-5.887 5.3l1.92.795-.009-.14c-.101-1.435-2.352-1.446-2.25.001Zm535.556 38.425c-2.957.118-6.364-.003-9.005 1.546a5.656 5.656 0 0 0-2.904 6.338c.753 2.575 3.11 4.373 5.312 5.69a45.765 45.765 0 0 0 7.982 3.483c4.978 1.807 11.012 3.963 13.353 9.183a10.871 10.871 0 0 1-3.237 12.636c-2.346 1.778-5.384 2.36-8.229 2.785a99.935 99.935 0 0 1-9.99.995 54.824 54.824 0 0 1-19.51-2.183 34.267 34.267 0 0 1-13.423-7.987 26.032 26.032 0 0 1-7.583-14.66c-.538-3.313-.634-6.68-.955-10.018-.324-3.372-.822-6.724-1.15-10.095a44.086 44.086 0 0 1 1.619-18.069 54.347 54.347 0 0 1 18.91-26.702c17.96-13.187 47.086-14.09 63.111 2.824 7.273 7.676 10.388 19.567 5.724 29.425-5.338 11.284-18.628 13.952-29.911 14.486-3.37.16-6.743.198-10.114.323-1.444.054-1.45 2.304 0 2.25 12.514-.465 26.726.082 36.696-8.877 8.361-7.513 9.605-20.149 5.297-30.118-4.512-10.441-14.837-17.368-25.479-20.428a54.925 54.925 0 0 0-36.308 2.506 53.323 53.323 0 0 0-25.214 22.808 51.842 51.842 0 0 0-6.188 15.964c-1.315 6.79-.421 13.547.388 20.338.789 6.628.492 13.71 3.031 19.991a29.883 29.883 0 0 0 9.84 12.472c10.399 7.892 23.977 8.9 36.539 7.59 5.707-.595 12.516-1.051 16.359-5.914a13.18 13.18 0 0 0 1.72-13.478c-2.413-5.19-8.037-7.763-13.105-9.636a53.052 53.052 0 0 1-9.038-3.837c-2.171-1.299-5.897-4.083-3.777-6.95 1.965-2.658 6.331-2.315 9.239-2.43 1.443-.058 1.45-2.309 0-2.25Z"/><path d="M888.633 196.362c-5.03-.188-10.331-.367-15.63-.603a25.455 25.455 0 0 1-3.267-.476c-1.631-.288-2.428-1.414-2.329-3.357.13-2.542.318-5.082.468-7.623.192-3.243.24-6.5.6-9.724a56.692 56.692 0 0 1 1.394-6.222 19.48 19.48 0 0 0 .67-3.217c.084-1.553.52-2.413 2.032-2.657a24.989 24.989 0 0 1 4.766-.354 85.43 85.43 0 0 1 7.815.6c3.763.471 7.524 1.005 11.25 1.701a13.406 13.406 0 0 1 5.98 2.89 4.701 4.701 0 0 1 1.952 4.381c-.492 3.95-1.058 7.895-1.774 11.81a29.405 29.405 0 0 1-3.285 9.674 4.795 4.795 0 0 1-3.925 2.724c-2.142.163-4.287.291-6.717.453Z" style="fill:#fff"/><path d="M888.633 195.237c-4.052-.151-8.104-.292-12.155-.456a36.149 36.149 0 0 1-6.443-.583c-1.588-.353-1.542-1.577-1.465-2.987.22-4.007.472-8.012.68-12.02a39.068 39.068 0 0 1 .656-6.324c.409-1.874.94-3.723 1.396-5.586.202-.824.267-1.63.386-2.463.081-.57.189-.93.736-1.148a9.639 9.639 0 0 1 2.763-.37 27.75 27.75 0 0 1 3.129-.009 118.487 118.487 0 0 1 12.665 1.363c3.811.578 7.717.97 10.754 3.59 1.557 1.343 1.57 2.74 1.324 4.642q-.392 3.05-.865 6.087c-.664 4.224-1.309 8.588-3.246 12.45-.857 1.71-1.775 3.173-3.812 3.378-2.159.216-4.338.293-6.503.437-1.437.095-1.448 2.346 0 2.25 2.236-.149 4.487-.231 6.717-.453a5.836 5.836 0 0 0 4.136-2.18c2.643-3.278 3.615-7.947 4.328-11.985a192.45 192.45 0 0 0 1.107-7.08c.27-1.949.92-4.212.38-6.155-1.025-3.684-5.67-5.745-9.086-6.38a143.574 143.574 0 0 0-14.474-2.002 41.61 41.61 0 0 0-7.032-.165c-1.556.138-3.56.156-4.573 1.55a3.947 3.947 0 0 0-.662 1.879 28.802 28.802 0 0 1-.634 3.312 56.946 56.946 0 0 0-1.46 6.526c-.593 4.784-.613 9.664-.917 14.474-.12 1.896-.629 4.26.489 5.964 1.08 1.649 3.338 1.805 5.114 2.01 2.757.316 5.59.278 8.362.382q4.103.155 8.205.303c1.448.054 1.446-2.196 0-2.25ZM186.588 103.67a30.449 30.449 0 0 1 .95 3.165q.186.774.33 1.557.08.421.145.845c.05.32.064.428.095.671a1.155 1.155 0 0 0 1.125 1.125c.547-.024 1.202-.5 1.125-1.125a31.774 31.774 0 0 0-1.6-6.837 1.125 1.125 0 0 0-2.17.598Zm-10.991 4.722q.415.745.789 1.511.173.358.337.72l.139.312c.015.036.178.419.11.254a29.818 29.818 0 0 1 1.09 3.11 1.125 1.125 0 0 0 2.169-.598 31.008 31.008 0 0 0-2.692-6.444 1.125 1.125 0 0 0-1.942 1.135Zm-9.772 7.218q.57.648 1.117 1.317.281.344.556.694l.128.165a2.099 2.099 0 0 1 .016.02l.284.376q1.05 1.404 1.987 2.886a1.125 1.125 0 1 0 1.943-1.136 47.106 47.106 0 0 0-4.44-5.912 1.132 1.132 0 0 0-1.59 0 1.152 1.152 0 0 0 0 1.59Zm79.498 43.72c.3 4.96.691 10.314 3.487 14.605 1.227 1.883 3.455 3.377 5.562 1.781 2.198-1.666 2.307-4.777 2.736-7.255a6.881 6.881 0 0 1 1.411-3.599c1.065-1.143 2.671-1.33 3.601.066.801 1.2.713 2.763.735 4.143q.042 2.592.236 5.176c.24 3.205.63 6.398 1.081 9.58.373 2.631.926 5.446 2.846 7.427 1.77 1.828 4.59 2.729 6.935 1.46 2.323-1.258 3.25-4.024 3.826-6.43.338-1.407-1.831-2.007-2.17-.598-.443 1.848-1.097 4.534-3.138 5.236-2.546.876-4.619-1.738-5.326-3.84a40.047 40.047 0 0 1-1.355-8.167c-.338-2.942-.586-5.896-.665-8.857-.063-2.368.12-5.023-1.553-6.934a4.227 4.227 0 0 0-5.395-.826c-2.022 1.151-2.86 3.386-3.238 5.565-.212 1.224-.696 7.363-3.047 6.137-1.033-.539-1.631-1.991-2.099-2.989a19.14 19.14 0 0 1-1.215-3.487 44.81 44.81 0 0 1-1.005-8.194c-.087-1.439-2.337-1.448-2.25 0Zm720.392-42.158.01.14a1.14 1.14 0 0 0 1.92.795 45.027 45.027 0 0 1 27.15-13.859c5.444-.667 11.357-.518 16.438 1.75a15.536 15.536 0 0 1 9.347 11.293c1.032 5.593-.27 11.64-.906 17.215l-.493 4.332-.247 2.166a4.26 4.26 0 0 1-.148 1.258c-.157.268-.41.056-.764-.05-2.73-.826-5.385-1.884-8.062-2.86-5.241-1.91-10.615-3.464-16.252-3.096a40.637 40.637 0 0 0-15.392 4.515 67.862 67.862 0 0 0-7.17 4.176c-2.08 1.379-3.838 2.95-4.404 5.48-.584 2.612-.12 5.402.028 8.037q.26 4.646.32 9.3.121 9.306-.56 18.6a64.332 64.332 0 0 1-.923 9.24c-.315 1.407-1.126 1.817-2.487 1.967-1.61.178-3.234.275-4.85.384q-4.675.313-9.36.415a67.562 67.562 0 0 1-8.996-.031 2.567 2.567 0 0 1-1.446-.482c-.488-.465-.336-1.424-.33-2.022.013-1.578.033-3.156.05-4.733l.106-9.716q.212-18.933.529-37.864.17-9.465.397-18.93.115-4.732.248-9.463a14.389 14.389 0 0 1 .858-5.536 6.103 6.103 0 0 1 3.189-2.942 33.22 33.22 0 0 1 7.436-2.085 58.459 58.459 0 0 1 9.072-1.078q1.18-.048 2.361-.05a4.93 4.93 0 0 1 1.795.084c.745.324.664 1.34.713 2.013.059.808.114 1.616.171 2.424l.652 9.213c.101 1.436 2.352 1.447 2.25 0l-.72-10.183c-.189-2.666-.192-5.558-3.53-5.783a47.662 47.662 0 0 0-9.337.527 58.342 58.342 0 0 0-9.406 1.995c-3.59 1.1-6.485 3.036-7.319 6.89a43.327 43.327 0 0 0-.53 7.997q-.133 4.981-.246 9.962-.472 20.673-.698 41.35-.128 10.213-.233 20.427l-.053 4.983c-.014 1.323-.146 2.802.777 3.88 1.66 1.94 5.064 1.446 7.309 1.45q5.055.012 10.106-.224a92.919 92.919 0 0 0 9.877-.722c2.627-.409 3.69-2.229 4.007-4.711.426-3.354.69-6.74.914-10.112q.666-10.02.4-20.072c-.09-3.37-.306-6.73-.501-10.096a12.392 12.392 0 0 1 .223-4.085 6.238 6.238 0 0 1 2.773-3.417 52.096 52.096 0 0 1 16.318-7.801 31.42 31.42 0 0 1 17.87.914c3 .971 5.923 2.154 8.898 3.193 1.922.67 5.373 2.388 6.092-.674a39.587 39.587 0 0 0 .53-4.504l.603-5.294c.363-3.193.813-6.391.995-9.6.317-5.6-.695-11.128-4.739-15.264-3.934-4.023-9.412-5.873-14.913-6.374a46.264 46.264 0 0 0-31.492 9.392 46.819 46.819 0 0 0-5.886 5.3l1.92.795-.01-.139c-.101-1.436-2.352-1.447-2.25 0Z"/><path d="M936.325 158.95c.3 4.96.69 10.314 3.486 14.605 1.227 1.883 3.456 3.377 5.562 1.781 2.199-1.666 2.308-4.777 2.737-7.255a6.881 6.881 0 0 1 1.41-3.599c1.065-1.143 2.672-1.33 3.602.066.8 1.201.712 2.763.735 4.143q.042 2.592.236 5.176c.24 3.205.63 6.399 1.08 9.58.374 2.632.926 5.446 2.846 7.427 1.771 1.828 4.591 2.729 6.935 1.46 2.324-1.257 3.25-4.024 3.827-6.43.337-1.407-1.832-2.007-2.17-.598-.443 1.848-1.097 4.534-3.138 5.236-2.547.876-4.62-1.738-5.327-3.84a40.047 40.047 0 0 1-1.355-8.167c-.338-2.942-.586-5.896-.665-8.857-.062-2.368.121-5.023-1.553-6.934a4.227 4.227 0 0 0-5.395-.825c-2.021 1.15-2.86 3.385-3.238 5.564-.212 1.224-.695 7.363-3.047 6.137-1.032-.539-1.63-1.991-2.099-2.989a19.14 19.14 0 0 1-1.215-3.486 44.812 44.812 0 0 1-1.004-8.195c-.087-1.438-2.338-1.448-2.25 0Zm-778.792-31.731 6.59 4.162a1.135 1.135 0 0 0 1.54-.404 1.149 1.149 0 0 0-.404-1.539l-6.59-4.162a1.135 1.135 0 0 0-1.54.404 1.149 1.149 0 0 0 .404 1.539Zm-4.608 11.901a29.932 29.932 0 0 0 3.95 1.189 22.014 22.014 0 0 1 3.896.649 1.132 1.132 0 0 0 1.384-.786 1.153 1.153 0 0 0-.786-1.384 21.405 21.405 0 0 0-3.896-.649 29.933 29.933 0 0 1-3.95-1.188 1.125 1.125 0 0 0-.598 2.17Zm-2.42 14.897a49.787 49.787 0 0 0 7.91.268 1.149 1.149 0 0 0 1.126-1.125 1.136 1.136 0 0 0-1.125-1.125 49.787 49.787 0 0 1-7.91-.268 1.132 1.132 0 0 0-1.126 1.125 1.152 1.152 0 0 0 1.125 1.125Zm.582 15.164a40.86 40.86 0 0 0 7.302-1.715 1.125 1.125 0 1 0-.598-2.17c-1.13.346-2.26.691-3.403.986a26.163 26.163 0 0 1-3.3.65 1.153 1.153 0 0 0-1.126 1.124c.025.552.499 1.197 1.125 1.125Zm4.453 13.498a9.549 9.549 0 0 0 3.508-1.593c.517-.337 1.028-.685 1.561-.996a10.22 10.22 0 0 1 .922-.483c-.13.057.143-.055.14-.054.154-.058.31-.108.468-.155a1.125 1.125 0 0 0-.598-2.17 13.228 13.228 0 0 0-3.46 1.806 17.458 17.458 0 0 1-1.572.95c-.13.067-.265.125-.395.191-.118.06.154-.056-.045.02l-.182.068a5.63 5.63 0 0 1-.944.246 1.13 1.13 0 0 0-.786 1.384 1.157 1.157 0 0 0 1.384.786Zm9.568 9.675c1.188-.261 1.762-1.423 2.403-2.33.157-.222.32-.438.482-.656.093-.126-.169.213-.002.002l.126-.16q.126-.159.256-.315.53-.644 1.107-1.247a1.125 1.125 0 1 0-1.591-1.59 25.421 25.421 0 0 0-2.13 2.566c-.287.393-.548.803-.827 1.2-.031.045-.07.089-.097.135.023-.038.152-.185.054-.072a2.987 2.987 0 0 1-.222.235c-.032.03-.179.157-.033.032.143-.122-.01-.005-.042.015-.126.08.059-.032.1-.035a1.669 1.669 0 0 0-.182.05 1.134 1.134 0 0 0-.786 1.385 1.15 1.15 0 0 0 1.384.785Zm13.692 5.418a1.334 1.334 0 0 1 .006-.18q-.031.226.01.034.024-.087.056-.171-.083.192-.001.018c.108-.188.213-.377.329-.561.269-.43.52-.869.746-1.323a16.2 16.2 0 0 0 1.137-2.982 1.125 1.125 0 0 0-2.17-.598 14.88 14.88 0 0 1-.487 1.497c-.016.041-.172.423-.072.187a11.58 11.58 0 0 1-.16.36q-.154.336-.325.663c-.512.98-1.323 1.893-1.319 3.056a1.125 1.125 0 0 0 2.25 0ZM639.268 64.165q5.363-.077 10.723.186c1.447.07 1.444-2.18 0-2.25q-5.358-.263-10.723-.186a1.126 1.126 0 0 0 0 2.25Zm-.318 11.391q5.798.51 11.614.772c1.447.065 1.444-2.185 0-2.25q-5.814-.262-11.613-.772a1.134 1.134 0 0 0-1.125 1.125 1.148 1.148 0 0 0 1.125 1.125Zm-.195 13.122q5.203-.154 10.401.193a1.125 1.125 0 0 0 0-2.25q-5.193-.347-10.4-.193c-1.445.043-1.451 2.293 0 2.25Zm-.126 11.72 10.66-.298a1.126 1.126 0 0 0 0-2.25l-10.66.298a1.126 1.126 0 0 0 0 2.25Zm.129 12.182q4.85.217 9.702-.024a1.15 1.15 0 0 0 1.125-1.125 1.136 1.136 0 0 0-1.125-1.125q-4.848.24-9.702.025a1.125 1.125 0 0 0 0 2.25Zm-.067 12.637q4.979-.11 9.959-.077a1.126 1.126 0 0 0 0-2.25q-4.98-.033-9.959.077a1.126 1.126 0 0 0 0 2.25Zm.704 12.813 9.639-.07a1.126 1.126 0 0 0 0-2.25l-9.639.07a1.126 1.126 0 0 0 0 2.25Zm.129 11.134a65.24 65.24 0 0 0 10.016-.215 1.157 1.157 0 0 0 1.125-1.125 1.133 1.133 0 0 0-1.125-1.125 65.24 65.24 0 0 1-10.016.215 1.125 1.125 0 0 0 0 2.25Zm.385 11.966a92.955 92.955 0 0 0 9.7.002 1.15 1.15 0 0 0 1.125-1.125 1.136 1.136 0 0 0-1.125-1.125 92.955 92.955 0 0 1-9.7-.002 1.125 1.125 0 0 0 0 2.25Zm-.259 11.988a110.608 110.608 0 0 1 11.105-.255 1.126 1.126 0 0 0 0-2.25 110.608 110.608 0 0 0-11.104.255 1.153 1.153 0 0 0-1.125 1.125 1.134 1.134 0 0 0 1.125 1.125Zm.831 12.274q4.853.061 9.704-.163a1.149 1.149 0 0 0 1.125-1.125 1.136 1.136 0 0 0-1.125-1.125q-4.849.224-9.704.163a1.126 1.126 0 0 0 0 2.25Zm18.671 3.385.49 11.107c.063 1.443 2.314 1.45 2.25 0l-.49-11.107c-.063-1.442-2.313-1.45-2.25 0Zm13.744-.514c-.291 3.698.878 7.308.802 11a1.126 1.126 0 0 0 2.25 0c.076-3.692-1.093-7.302-.802-11a1.135 1.135 0 0 0-1.125-1.125 1.147 1.147 0 0 0-1.125 1.125Zm12.76-.015q.181 5.241.644 10.467a1.155 1.155 0 0 0 1.125 1.125 1.133 1.133 0 0 0 1.125-1.125q-.463-5.224-.644-10.467c-.05-1.444-2.3-1.45-2.25 0Zm12.029-.088a66.12 66.12 0 0 0 1.158 11.18 1.136 1.136 0 0 0 1.384.787 1.149 1.149 0 0 0 .786-1.384 62.519 62.519 0 0 1-1.078-10.582 1.126 1.126 0 0 0-2.25 0Zm12.792-.095c-.032 3.671 1.29 7.174 1.415 10.828.049 1.444 2.299 1.45 2.25 0-.124-3.655-1.447-7.164-1.415-10.828a1.126 1.126 0 0 0-2.25 0Zm11.041-.309a20.6 20.6 0 0 0 .495 5.591 10.019 10.019 0 0 1 .279 2.45 18.016 18.016 0 0 0 .074 2.85 1.132 1.132 0 0 0 1.384.785 1.156 1.156 0 0 0 .786-1.384 17.092 17.092 0 0 1 .01-2.448 11.719 11.719 0 0 0-.322-2.667 18.956 18.956 0 0 1-.456-5.177c.078-1.446-2.172-1.442-2.25 0Zm82.026-75.699c-3.804.159-8.66 2.122-9.815 6.115a12.691 12.691 0 0 0 3.002 11.757c3.298 3.199 8.017 1.46 11.62-.131a6.417 6.417 0 0 0 3.88-3.979 11.055 11.055 0 0 0 .155-6.129 14.742 14.742 0 0 0-1.618-3.085 12.022 12.022 0 0 0-2.14-2.698 6.724 6.724 0 0 0-2.731-1.523c-.707-.181-1.344-.155-2.054-.287-1.416-.263-2.022 1.905-.598 2.17a8.678 8.678 0 0 1 3.145.758 9.935 9.935 0 0 1 3.033 3.712 6.536 6.536 0 0 1 .943 2.132 10.602 10.602 0 0 1 .014 2.51 4.454 4.454 0 0 1-1.86 3.814 19.143 19.143 0 0 1-4.55 1.908 6.516 6.516 0 0 1-4.653-.062 6.854 6.854 0 0 1-2.908-3.807 11.21 11.21 0 0 1-.766-5.035 5.249 5.249 0 0 1 2.711-4.271 10.46 10.46 0 0 1 5.19-1.62c1.442-.06 1.45-2.31 0-2.25Zm-20.601 23.551c-3.803.16-8.66 2.122-9.814 6.115a12.691 12.691 0 0 0 3.002 11.757c3.297 3.2 8.016 1.46 11.619-.13a6.417 6.417 0 0 0 3.88-3.98 11.055 11.055 0 0 0 .155-6.128 14.741 14.741 0 0 0-1.617-3.085 12.022 12.022 0 0 0-2.14-2.698 6.724 6.724 0 0 0-2.731-1.523c-.707-.182-1.344-.156-2.055-.288-1.415-.263-2.022 1.905-.598 2.17a8.678 8.678 0 0 1 3.146.759 9.935 9.935 0 0 1 3.033 3.711 6.536 6.536 0 0 1 .943 2.133 10.601 10.601 0 0 1 .014 2.51 4.454 4.454 0 0 1-1.86 3.813 19.142 19.142 0 0 1-4.55 1.909 6.516 6.516 0 0 1-4.653-.063 6.854 6.854 0 0 1-2.909-3.807 11.21 11.21 0 0 1-.765-5.035 5.249 5.249 0 0 1 2.71-4.27 10.46 10.46 0 0 1 5.19-1.62c1.443-.06 1.45-2.31 0-2.25Zm1.041 31.792c-3.377.142-7.657 1.888-8.681 5.43a11.19 11.19 0 0 0 2.65 10.371c2.924 2.837 7.087 1.323 10.287-.091a5.718 5.718 0 0 0 3.443-3.55 9.772 9.772 0 0 0 .135-5.41 12.954 12.954 0 0 0-1.422-2.72 10.6 10.6 0 0 0-1.884-2.376 6.01 6.01 0 0 0-2.442-1.363c-.682-.175-1.12-.126-1.787-.25-1.415-.263-2.022 1.905-.598 2.17a7.488 7.488 0 0 1 2.702.645 8.493 8.493 0 0 1 2.587 3.177 5.521 5.521 0 0 1 .805 1.82 9.214 9.214 0 0 1 .007 2.146 3.726 3.726 0 0 1-1.547 3.192 16.51 16.51 0 0 1-3.923 1.646 5.539 5.539 0 0 1-3.936-.04 5.803 5.803 0 0 1-2.464-3.225 9.63 9.63 0 0 1-.66-4.342 4.413 4.413 0 0 1 2.286-3.59 8.951 8.951 0 0 1 4.442-1.39c1.442-.06 1.45-2.31 0-2.25Zm-421.398-63.228a188.808 188.808 0 0 0 31.62-.207c1.43-.13 1.443-2.381 0-2.25a188.808 188.808 0 0 1-31.62.207c-1.444-.112-1.437 2.139 0 2.25Zm8.992-20.557a78.238 78.238 0 0 0 7.196 6.225 1.123 1.123 0 0 0 1.364-.176 62.425 62.425 0 0 1 5.893-5.8c1.1-.946-.498-2.532-1.59-1.59a62.425 62.425 0 0 0-5.894 5.8l1.363-.177a73.601 73.601 0 0 1-6.74-5.873c-1.035-1.015-2.628.575-1.592 1.591ZM360.62 181.65c11.705-.06 23.395.582 35.077 1.233 1.446.08 1.442-2.17 0-2.25-11.682-.651-23.372-1.292-35.076-1.232a1.126 1.126 0 0 0 0 2.25Z"/><path d="M371.635 103.81c-1.073 9.82-.664 19.699-.152 29.54.517 9.917.792 19.753.484 29.682a123.35 123.35 0 0 0 .313 16.729c.15 1.425 2.401 1.44 2.25 0-1.04-9.894.046-19.847-.107-29.765-.152-9.879-1.032-19.73-1.196-29.609a132.367 132.367 0 0 1 .658-16.576c.157-1.438-2.095-1.427-2.25 0Zm11.389.124q.932 15.033.93 30.102c-.006 10.031-.595 20.041-.705 30.068a114.849 114.849 0 0 0 .928 16.958c.197 1.428 2.365.82 2.17-.599-1.365-9.907-.785-19.938-.439-29.893q.52-14.926.119-29.865-.23-8.391-.753-16.77c-.089-1.44-2.34-1.45-2.25 0Zm666.576 74.46q5.665-3.318 11.177-6.884c1.212-.783.085-2.732-1.135-1.943q-5.512 3.565-11.177 6.884a1.126 1.126 0 0 0 1.136 1.943Zm54.746-60.414c1.398-.425 2.833-.659 4.261-.952 1.494-.308 2.953-.744 4.423-1.145a62.958 62.958 0 0 1 8.685-1.564 1.163 1.163 0 0 0 1.125-1.125 1.13 1.13 0 0 0-1.125-1.125 67.512 67.512 0 0 0-8.956 1.556c-1.473.393-2.93.844-4.42 1.164-1.536.33-3.086.564-4.591 1.02-1.382.42-.793 2.592.598 2.17Zm-631.571 60.93a42.2 42.2 0 0 1 6.776-9.614 41.05 41.05 0 0 1 4.186-3.858c1.461-1.17 3.163-2.492 5.07-1.472 1.527.818 2.431 2.537 3.086 4.073a12.42 12.42 0 0 1 1.072 5.229 6.537 6.537 0 0 1-2.048 4.722 10.246 10.246 0 0 1-5.167 2.123 22.94 22.94 0 0 1-6.591.067 18.405 18.405 0 0 1-3.266-.638c-1.142-.358-2.213-.918-3.325-1.355l.672.517-.465-.93c-.647-1.295-2.588-.156-1.942 1.136.268.536.447 1.098 1.002 1.39a20.448 20.448 0 0 0 3.635 1.463 25 25 0 0 0 7.41.854c4.43-.1 9.648-1.329 11.573-5.802 1.728-4.014.383-9.163-2.106-12.584a6.194 6.194 0 0 0-5.62-2.862c-2.246.284-4.13 2.048-5.775 3.471a43.633 43.633 0 0 0-10.12 12.935c-.664 1.284 1.277 2.423 1.943 1.135Zm97.022 2.92a42.2 42.2 0 0 1 6.775-9.614 41.05 41.05 0 0 1 4.187-3.858c1.46-1.17 3.162-2.492 5.069-1.472 1.527.818 2.431 2.537 3.086 4.073a12.421 12.421 0 0 1 1.073 5.229 6.537 6.537 0 0 1-2.049 4.722 10.246 10.246 0 0 1-5.167 2.123 22.94 22.94 0 0 1-6.59.067 18.406 18.406 0 0 1-3.267-.638c-1.142-.358-2.213-.918-3.325-1.355l.672.517-.464-.93c-.648-1.295-2.59-.156-1.943 1.136.268.536.448 1.098 1.002 1.39a20.447 20.447 0 0 0 3.635 1.463 25 25 0 0 0 7.411.854c4.43-.1 9.647-1.328 11.573-5.802 1.727-4.014.382-9.163-2.106-12.584a6.195 6.195 0 0 0-5.62-2.862c-2.246.285-4.13 2.048-5.775 3.471a43.634 43.634 0 0 0-10.12 12.935c-.665 1.284 1.276 2.423 1.943 1.135ZM537.884 27.744c-.73 1.393-1.975 3.164-1.482 4.822a3.097 3.097 0 0 0 2.566 2.227 3.336 3.336 0 0 0 2.2-.367 3.546 3.546 0 0 0 .883-.705c.099-.108.179-.237.268-.352q.144-.197.295-.39l-.246.192c.258 1.896-.003 3.8.248 5.695a8.158 8.158 0 0 0 2.45 4.637c1.181 1.211 2.83 2.47 4.631 1.962 1.56-.44 2.313-1.954 2.79-3.368.223-.663.466-2.112 1.371-2.046.926.067 1.332 1.54 1.549 2.226 1.027 3.249 1.186 9.299 6.111 8.583 1.428-.208.82-2.376-.598-2.17-2.27.33-2.504-3.758-2.832-5.154-.415-1.76-.91-4.044-2.507-5.135a2.988 2.988 0 0 0-4.304.783c-.883 1.333-1.13 5.29-3.508 3.713a6.54 6.54 0 0 1-2.996-5.575c.003-1.791.488-4.263-.785-5.762a1.996 1.996 0 0 0-1.973-.746c-.965.218-1.106 1.118-1.833 1.59a1.058 1.058 0 0 1-1.65-.549c-.157-.883.905-2.233 1.295-2.976.672-1.28-1.269-2.42-1.943-1.135Zm6.151 27.821 13.106.587c1.448.064 1.445-2.186 0-2.25l-13.106-.587c-1.448-.065-1.445 2.185 0 2.25Zm-5.02 11.864c8.044-.205 16.092-.091 24.137-.296a1.126 1.126 0 0 0 0-2.25c-8.045.205-16.093.091-24.137.296a1.126 1.126 0 0 0 0 2.25Zm-93.24-12.837c5.116.226 10.238.304 15.354.53 1.448.065 1.445-2.186 0-2.25-5.116-.226-10.238-.304-15.354-.53-1.448-.064-1.445 2.186 0 2.25Zm-3.181 9.621c7.388-.183 14.776.183 22.163 0a1.126 1.126 0 0 0 0-2.25c-7.387.183-14.775-.183-22.163 0a1.126 1.126 0 0 0 0 2.25Zm432.317 97.674a34.104 34.104 0 0 0-5.75 7.645 1.136 1.136 0 0 0 .971 1.693c2.204-.023 4.062-1.508 5.872-2.603l6.317-3.821-1.363-1.767-11.291 13.834c-.766.939.19 2.457 1.363 1.767 3.012-1.771 5.792-3.935 8.624-5.974l9.107-6.56-1.363-1.766a126.082 126.082 0 0 1-21.197 19.47c-.956.694-.436 2.49.867 2.057a20.345 20.345 0 0 0 6.948-4.362c2.27-2.004 4.482-4.054 6.855-5.94a96.02 96.02 0 0 1 15.782-10.145l-1.364-1.766c-8.383 9.984-18.689 18.038-28.933 26.002-.844.656-.062 1.858.795 1.92 1.53.112 2.696-.94 3.867-1.777l4.226-3.02 8.654-6.182 17.308-12.366-1.54-1.539c-1.959 3.217-5.358 5.681-8.238 8.034-3.07 2.507-6.256 4.867-9.477 7.175-6.32 4.528-12.774 8.87-18.922 13.636a1.134 1.134 0 0 0 .796 1.92c3.496-.368 6.417-2.364 9.401-4.065q4.94-2.815 9.944-5.514 10.007-5.399 20.26-10.324l-1.364-1.767q-14.877 11.624-30.566 22.152a1.135 1.135 0 0 0 .568 2.096c2.495.144 4.698-1.466 6.774-2.636l7.304-4.117 14.606-8.233-1.363-1.767-12.727 11.62a1.141 1.141 0 0 0 .228 1.766 2.903 2.903 0 0 0 2.938.067c1.364-.562 2.698-1.211 4.043-1.819L902.53 191l-1.364-1.767a85.002 85.002 0 0 0-7.267 6.71c-1.006 1.043.583 2.636 1.59 1.591a85.004 85.004 0 0 1 7.268-6.71c1.063-.872-.292-2.25-1.363-1.767l-6.882 3.11-3.33 1.505c-.659.297-2.493 1.543-3.156 1.05l.227 1.766 12.727-11.62c.96-.875-.268-2.383-1.364-1.766l-13.747 7.749-6.873 3.874c-1.146.646-2.288 1.3-3.437 1.938a6.33 6.33 0 0 1-3.491 1.118l.567 2.096q15.913-10.688 31.022-22.503c1.066-.833-.29-2.283-1.363-1.767q-9.811 4.72-19.408 9.865-4.69 2.518-9.323 5.137c-2.99 1.69-6.234 4.225-9.738 4.594l.795 1.92c6.352-4.923 13.055-9.368 19.566-14.075 3.123-2.257 6.204-4.574 9.181-7.021 2.938-2.414 6.239-4.914 8.242-8.203.558-.916-.6-2.21-1.539-1.54l-16.502 11.791-8.05 5.752-4.227 3.019-2.012 1.438c-.63.45-1.31 1.098-2.128 1.038l.796 1.92c10.244-7.964 20.55-16.017 28.933-26.002a1.13 1.13 0 0 0-1.363-1.766 98.554 98.554 0 0 0-15.19 9.675c-2.312 1.79-4.524 3.693-6.685 5.663-2.15 1.96-4.363 3.946-7.172 4.88l.867 2.057a128.52 128.52 0 0 0 21.652-19.822c.779-.899-.26-2.562-1.364-1.767l-9.107 6.56c-2.831 2.038-5.612 4.202-8.623 5.973l1.363 1.767 11.29-13.834c.762-.933-.193-2.474-1.363-1.767l-5.501 3.328-2.65 1.602a5.86 5.86 0 0 1-2.902 1.187l.971 1.692a31.927 31.927 0 0 1 5.399-7.189 1.126 1.126 0 0 0-1.591-1.59ZM444.54 20.987a12.97 12.97 0 0 0-3.023 5.91 2.57 2.57 0 0 0 2.893 3.012 5.78 5.78 0 0 0 4.25-2.572 4.42 4.42 0 0 0 .342-.706l-.47-.142q-.645-.369-.418-.052c-.056.123.185.688.205.859a19.645 19.645 0 0 1-.066 2.806c-.092 2.777-.266 5.566-.266 8.344a7.549 7.549 0 0 0 2.255 5.657c1.363 1.335 3.188 2.228 5.04 1.287 2.009-1.022 2.592-3.133 3.395-5.057l.108-.266q.453-.452-.067-.46-.558-.226.043.263l.187.313a4.786 4.786 0 0 1 .447 1.964c.076 1.291-.09 2.578.098 3.865.317 2.18 1.789 4.129 4.115 4.225 1.448.06 1.445-2.19 0-2.25-2.37-.098-1.945-3.696-1.952-5.237a6.56 6.56 0 0 0-1.475-4.669c-1.464-1.49-2.852-.3-3.509 1.248-.56 1.318-1.306 4.615-3.356 4.184a4.419 4.419 0 0 1-2.157-1.756 5.054 5.054 0 0 1-.92-3.084c-.032-2.356.137-4.729.215-7.084.043-1.31.99-7.688-2.045-7.17-.868.147-1.222.907-1.607 1.605a3.433 3.433 0 0 1-1.945 1.5c-.467.157-.853.313-1.047-.15-.22-.524.276-1.221.488-1.696a13.387 13.387 0 0 1 1.834-3.1c.91-1.111-.672-2.712-1.591-1.591Zm603.73 146.442c.246.01-.076-.055.033.01.076.045.2.07.05.006.16.067.315.145.474.214.387.168.778.328 1.176.469a12.304 12.304 0 0 0 2.09.56 1.455 1.455 0 0 0 1.592-.659c.188-.284.352-.588.514-.887a21.819 21.819 0 0 0 1.014-2.172 1.128 1.128 0 0 0-.786-1.384 1.16 1.16 0 0 0-1.384.785 13.167 13.167 0 0 1-.119.278q-.087.198-.18.394-.206.44-.436.868-.217.404-.454.798a1.793 1.793 0 0 0-.112.185c.259-.585 1.215-.318.683-.428q-.238-.05-.475-.107a14.119 14.119 0 0 1-1.755-.551l-.251-.1c-.17-.068.136.063-.03-.014q-.212-.097-.425-.191a3.218 3.218 0 0 0-1.22-.325 1.134 1.134 0 0 0-1.124 1.125 1.149 1.149 0 0 0 1.125 1.125Z"/></svg>