<?xml version="1.0" encoding="UTF-8" standalone="no"?>
<svg
   viewBox="0 0 512 512"
   version="1.1"
   id="svg1"
   sodipodi:docname="no-pen.svg"
   inkscape:version="1.3.2 (091e20ef0f, 2023-11-25)"
   xmlns:inkscape="http://www.inkscape.org/namespaces/inkscape"
   xmlns:sodipodi="http://sodipodi.sourceforge.net/DTD/sodipodi-0.dtd"
   xmlns="http://www.w3.org/2000/svg"
   xmlns:svg="http://www.w3.org/2000/svg">
  <defs
     id="defs1" />
  <sodipodi:namedview
     id="namedview1"
     pagecolor="#ffffff"
     bordercolor="#000000"
     borderopacity="0.25"
     inkscape:showpageshadow="2"
     inkscape:pageopacity="0.0"
     inkscape:pagecheckerboard="0"
     inkscape:deskcolor="#d1d1d1"
     inkscape:zoom="1.0326351"
     inkscape:cx="372.34836"
     inkscape:cy="285.6769"
     inkscape:window-width="1504"
     inkscape:window-height="979"
     inkscape:window-x="0"
     inkscape:window-y="0"
     inkscape:window-maximized="0"
     inkscape:current-layer="svg1" />
  <path
     d="M497.9 74.16L437.8 14.06c-18.75-18.75-49.19-18.75-67.93 0l-56.53 56.55l127.1 128l56.56-56.55C516.7 123.3 516.7 92.91 497.9 74.16zM290.8 93.23l-259.7 259.7c-2.234 2.234-3.755 5.078-4.376 8.176l-26.34 131.7C-1.921 504 7.95 513.9 19.15 511.7l131.7-26.34c3.098-.6191 5.941-2.141 8.175-4.373l259.7-259.7L290.8 93.23z"
     id="path1" />
  <path
     style="fill:#000000"
     d="M 18.612057,17.789742 C 485.19956,488.60834 485.19956,488.60834 485.19956,488.60834"
     id="path2" />
  <path
     style="fill:#000000;stroke-width:4.8999999;stroke-dasharray:none"
     d="M 479.90232,492.88247 23.91408,33.17469"
     id="path3" />
  <path
     style="fill:#000000;stroke:#000000;stroke-width:57.269;stroke-dasharray:none;stroke-opacity:1"
     d="M 22.148452,21.727468 491.21127,491.00809"
     id="path5" />
</svg>
