<svg xmlns="http://www.w3.org/2000/svg" xml:space="preserve" width="24" height="24"><path d="M21.882 10.945V1.529l-2.891 2.996c-1.735-1.883-4.214-2.996-6.94-2.996-5.454 0-9.915 4.622-9.915 10.272 0 5.649 4.461 10.27 9.914 10.27 2.727 0 5.206-1.112 7.023-2.995l-3.47-3.595c-.909.942-2.148 1.54-3.47 1.54-2.726 0-4.957-2.31-4.957-5.135 0-2.824 2.23-5.135 4.957-5.135 1.405 0 2.644.599 3.47 1.54l-2.726 2.654ZM12.05 4.953c-3.635 0-6.61 3.081-6.61 6.848 0 3.766 2.975 6.847 6.61 6.847 1.24 0 2.314-.342 3.305-.942l1.24 1.284c-1.322.856-2.81 1.37-4.545 1.37-4.544 0-8.262-3.852-8.262-8.56 0-4.707 3.718-8.559 8.262-8.559 2.314 0 4.38.942 5.867 2.482l1.156 1.284L20.23 5.81v3.424h-3.222l.991-1.027-1.24-1.284c-1.239-1.199-2.89-1.969-4.709-1.969Z" style="stroke-width:.840939"/></svg>